<svg xmlns="http://www.w3.org/2000/svg" viewBox="0 0 420 420" class="social-icon social-icon-twitter"><path d="M415 54.6c-1.7-3.4-5.7-4.4-9.1-2.7l-32.2 17.8c-3.4 1.7-4.4 6-2.7 9.1 1.3 2.3 3.4 3.4 6 3.4 1 0 2.3-.3 3.4-.7l32.2-17.8c3.1-1.7 4.5-5.8 2.4-9.1zM356.3 24.4c-3.4-1.7-7.4 0-9.1 3.4l-10.1 21.1c-1.7 3.4 0 7.4 3.4 9.1 1 .3 2 .7 3 .7 2.3 0 5-1.3 6-3.7l10.1-21.1c1.8-3.8.1-7.8-3.3-9.5zM399.3 117.3l-18.5-5.4c-3.7-1-7.4 1-8.4 4.4-1 3.7 1 7.4 4.4 8.4l18.5 5.4c.7.3 1.3.3 2 .3 3 0 5.7-2 6.4-4.7.9-3.7-1.1-7.4-4.4-8.4zM315.7 119.7c-11.4 5-23.5 8.4-36.6 10.1 13.1-7.7 23.2-20.5 27.9-35.2-12.4 7.4-25.8 12.4-40.3 15.4-11.4-12.4-28.2-20.1-46.3-20.1-34.9 0-63.4 28.5-63.4 63.4 0 5 .7 9.7 1.7 14.4-52.7-2.7-99.7-27.9-130.9-66.5-5.4 9.4-8.7 20.1-8.7 31.9 0 22.1 11.1 41.6 28.2 52.7-10.4-.3-20.1-3.4-28.9-8.1v.7c0 30.9 21.8 56.4 51 62.4-5.4 1.3-11.1 2.3-16.8 2.3-4 0-8.1-.3-12.1-1 8.1 25.2 31.5 43.6 59.4 44-21.8 17.1-49 27.2-78.9 27.2-5 0-10.1-.3-15.1-1 28.2 18.1 61.4 28.5 97.3 28.5 15.8 0 30.2-1.7 44-5v54c0 3.7 3 6.7 6.7 6.7s6.7-3 6.7-6.7v-57.7c8.1-2.7 15.8-5.7 22.8-9.1v63.8c0 3.7 3 6.7 6.7 6.7s6.7-3 6.7-6.7v-70.8c56.7-34.2 86.9-98 86.9-155.7 0-2.7 0-5.4-.3-8.1 13.2-8.7 23.9-19.8 32.3-32.5zm-90.6 22.8c-7 0-13.1-5.7-13.1-13.1 0-7 5.7-13.1 13.1-13.1 7 0 13.1 5.7 13.1 13.1-.3 7.4-6 13.1-13.1 13.1z"/></svg>