<svg xmlns="http://www.w3.org/2000/svg" viewBox="0 0 420 420" class="social-icon social-icon-instagram"><path fill="#111111" d="M400.7 179.6h-90.5c-4.9 0-8.9-4-8.9-8.9s4-8.9 8.9-8.9h90.5c4.9 0 8.9 4 8.9 8.9.1 4.9-4 8.9-8.9 8.9zM111.5 179.6h-96.7c-4.9 0-8.9-4-8.9-8.9s4-8.9 8.9-8.9h96.7c4.9 0 8.9 4 8.9 8.9s-4 8.9-8.9 8.9zM381.6 4h-343.2c-18.2 0-33.4 15.2-33.4 33.4v343.1c0 18.4 15.2 33.5 33.4 33.5h343.2c18.3 0 33.4-15.2 33.4-33.4v-343.2c0-18.2-15.2-33.4-33.4-33.4zm-73.6 81.1c0-12.9 10.2-23.2 23.2-23.2h2.2c12.9 0 23.2 10.3 23.2 23.2v2.2c0 12.9-10.2 23.2-23.2 23.2h-2.2c-12.9 0-23.2-10.3-23.2-23.2v-2.2zm-98 36.6c56.2 0 101.6 45.5 101.6 101.6s-45.4 101.6-101.6 101.6-101.6-45.5-101.6-101.6c0-55.7 45.4-101.6 101.6-101.6zm-187.2-76.2c1.3-12.5 12-22.3 25-22.3h51.2c4.9 0 8.9 4 8.9 8.9s-4 8.9-8.9 8.9h-51.2c-4 0-7.6 3.6-7.6 7.6v51.2c0 4.9-4 8.9-8.9 8.9-4.5 0-8-3.1-8.9-7.1v-56.1h.4zm374.4 335.1c0 8.5-7.1 15.6-15.6 15.6h-343.2c-8.5 0-15.6-7.1-15.6-15.6v-200.1h75.8c-5.3 13.4-8 27.6-8 42.8 0 66 53.5 119.4 119.4 119.4s119.4-53.5 119.4-119.4c0-15.2-2.7-29.4-8-42.8h75.8v200.1zM148.1 223.3c0-33.9 27.6-61.9 61.9-61.9 4.9 0 8.9-4 8.9-8.9s-4-8.9-8.9-8.9c-44.1 0-79.8 35.7-79.8 79.8 0 4.9 4 8.9 8.9 8.9s9-3.7 9-9z"/></svg>