<?xml version="1.0" encoding="utf-8"?>
<!-- Generator: Adobe Illustrator 18.1.1, SVG Export Plug-In . SVG Version: 6.00 Build 0)  -->
<!DOCTYPE svg PUBLIC "-//W3C//DTD SVG 1.1//EN" "http://www.w3.org/Graphics/SVG/1.1/DTD/svg11.dtd">
<svg version="1.1" id="Layer_1" xmlns="http://www.w3.org/2000/svg" xmlns:xlink="http://www.w3.org/1999/xlink" x="0px" y="0px"
	 viewBox="0 0 294 280" enable-background="new 0 0 294 280" xml:space="preserve">
<rect id="animbg" x="9.5" y="8.6" fill="#61C2A3" width="283.5" height="261"/>
<path opacity="0.6" fill="#45AC8B" d="M186.4,207.5c0,3.1-15.8,3.8-35.3,3.8s-35.3-0.8-35.3-3.8c0-3.1,15.8-4.9,35.3-4.9
	S186.4,204.4,186.4,207.5z"/>
<line fill="none" stroke="#C5E5D6" stroke-width="4" stroke-linecap="round" stroke-linejoin="round" stroke-miterlimit="10" x1="132.9" y1="185.4" x2="132.9" y2="205.6"/>
<line fill="none" stroke="#C5E5D6" stroke-width="4" stroke-linecap="round" stroke-linejoin="round" stroke-miterlimit="10" x1="172.3" y1="186.2" x2="172.3" y2="205.3"/>
<path fill="none" stroke="#C5E5D6" stroke-width="4" stroke-linecap="round" stroke-linejoin="round" stroke-miterlimit="10" d="
	M192.4,160.6c8-1.4,16.1,7.4,18.2,19.7"/>
<rect x="164.7" y="159.7" fill="#B9DCE2" width="26.5" height="26.5"/>
<rect x="138.3" y="159.7" fill="#C4E5D6" width="26.5" height="26.5"/>
<path fill="none" stroke="#C5E5D6" stroke-width="4" stroke-linecap="round" stroke-linejoin="round" stroke-miterlimit="10" d="
	M110.4,161.7c-8.4-1.6-17,6.9-19.4,19.1"/>
<rect x="111.7" y="159.7" fill="#F1F2F2" width="26.5" height="26.5"/>
<rect x="138.3" y="106.8" fill="#B9DCE2" width="26.5" height="30.5"/>
<rect x="111.7" y="106.8" fill="#F1F2F2" width="26.5" height="26.5"/>
<rect x="111.7" y="133.3" fill="#B9DCE2" width="26.5" height="26.5"/>
<g>
	<rect x="164.7" y="133.3" fill="#C4E5D6" width="26.5" height="26.5"/>
</g>
<path fill="none" stroke="#F1F2F2" stroke-width="4" stroke-linejoin="round" stroke-miterlimit="10" d="M186.4,186.4h-69.7
	c-2.8,0-5-2.2-5-5v-69.7c0-2.8,2.2-5,5-5h69.7c2.8,0,5,2.2,5,5v69.7C191.4,184.1,189.1,186.4,186.4,186.4z"/>
<rect x="138.3" y="133.3" fill="#F1F2F2" width="26.5" height="26.5"/>
<line fill="none" stroke="#F1F2F2" stroke-width="4" stroke-linecap="round" stroke-linejoin="round" stroke-miterlimit="10" x1="129.4" y1="206.4" x2="132.8" y2="206.4"/>
<line fill="none" stroke="#F1F2F2" stroke-width="4" stroke-linecap="round" stroke-linejoin="round" stroke-miterlimit="10" x1="172.3" y1="206.4" x2="169.1" y2="206.4"/>
<polyline fill="none" stroke="#F1F2F2" stroke-width="4" stroke-linecap="round" stroke-linejoin="round" stroke-miterlimit="10" points="
	216.8,180.4 210.8,180.5 209,180.7 203.4,183.9 "/>
<line fill="none" stroke="#F1F2F2" stroke-width="4" stroke-linecap="round" stroke-linejoin="round" stroke-miterlimit="10" x1="214.2" y1="190.1" x2="211.1" y2="181.2"/>
<line fill="none" stroke="#F1F2F2" stroke-width="4" stroke-linecap="round" stroke-linejoin="round" stroke-miterlimit="10" x1="207.6" y1="189.5" x2="209.7" y2="182.9"/>
<polyline fill="none" stroke="#F1F2F2" stroke-width="4" stroke-linecap="round" stroke-linejoin="round" stroke-miterlimit="10" points="
	84.5,180.4 90.4,180.5 92.2,180.7 97.8,183.9 "/>
<line fill="none" stroke="#F1F2F2" stroke-width="4" stroke-linecap="round" stroke-linejoin="round" stroke-miterlimit="10" x1="87" y1="190.1" x2="90.1" y2="181.2"/>
<line fill="none" stroke="#F1F2F2" stroke-width="4" stroke-linecap="round" stroke-linejoin="round" stroke-miterlimit="10" x1="93.7" y1="189.5" x2="91.6" y2="182.9"/>
<g>
	<path fill="none" stroke="#FFFFFF" stroke-width="2" stroke-linecap="round" stroke-linejoin="round" stroke-miterlimit="10" d="
		M37.7,192.2c-2.1-3.2-1.8-7.6,1.1-10.4c0,0,0,0,0.1-0.1 M40.7,185c-0.5-2.6,0.2-5.4,2.3-7.5c1.1-1.1,2.4-1.8,3.7-2.1
		c-0.7,6.4,1.3,13.1,5.9,18.2c0.3-0.5,0.7-1,1.2-1.5c3.2-3.2,8.5-3.2,11.7,0c1.7,1.7,2.5,3.9,2.4,6.1c1.6,1.1,3.3,1.8,5.1,2.3
		l-6,0.3l4.5,2.8c-2,0.4-4,0.4-5.9,0.1c-0.2,0.3-0.5,0.5-0.7,0.8c-7.7,7.7-22.5,10.7-33.3-0.1c-3.3-3.3-5.4-7.4-6.3-11.6
		c0.4,0.5,0.8,1,1.3,1.5c2.7,2.7,6.2,4.3,9.8,4.8c-2.5-2.6-3-6.5-1.4-9.5"/>
</g>
<ellipse opacity="0.6" fill="#45AC8B" cx="91" cy="223" rx="11" ry="1"/>
<path fill="none" stroke="#FFFFFF" stroke-width="2" stroke-linecap="round" stroke-linejoin="round" stroke-miterlimit="10" d="
	M108.3,205.7c0,0-19.7,13.7-22.2,15.4c-3.1,2.1-5.6-0.2-6.9-6"/>
<line fill="none" stroke="#FFFFFF" stroke-width="2" stroke-linecap="round" stroke-linejoin="round" stroke-miterlimit="10" x1="96.1" y1="221.9" x2="87.6" y2="209.7"/>
<path fill="none" stroke="#FFFFFF" stroke-width="2" stroke-linecap="round" stroke-linejoin="round" stroke-miterlimit="10" d="
	M257.7,213.1l-28.9-0.5c-1.1,0-2-1-2-2.1l0.5-28.9c0-1.1,1-2,2.1-2l28.9,0.5c1.1,0,2,1,2,2.1l-0.5,28.9
	C259.7,212.2,258.8,213.1,257.7,213.1z"/>
<line fill="none" stroke="#FFFFFF" stroke-width="2" stroke-linecap="round" stroke-linejoin="round" stroke-miterlimit="10" x1="252" y1="193.3" x2="260.1" y2="193.4"/>
<line fill="none" stroke="#FFFFFF" stroke-width="2" stroke-linecap="round" stroke-linejoin="round" stroke-miterlimit="10" x1="227.1" y1="192.8" x2="235.3" y2="193"/>
<circle fill="none" stroke="#FFFFFF" stroke-width="2" stroke-linecap="round" stroke-linejoin="round" stroke-miterlimit="10" cx="243.5" cy="197.6" r="9.3"/>
<g>
	<g>
		<path fill="#FFFFFF" d="M253.9,184.6C253.9,184.6,253.9,184.6,253.9,184.6l0.2,0c0.8,0,1.5,0.7,1.5,1.5l0,0.2
			c0,0.8-0.7,1.5-1.5,1.5c0,0,0,0,0,0l-0.2,0c-0.8,0-1.5-0.7-1.5-1.5l0-0.2C252.4,185.3,253.1,184.6,253.9,184.6 M253.9,182.6
			C253.9,182.6,253.9,182.6,253.9,182.6c-1.9,0-3.5,1.5-3.5,3.5l0,0.2c0,0.9,0.3,1.8,1,2.5c0.7,0.7,1.5,1.1,2.5,1.1l0.2,0
			c0,0,0,0,0.1,0c1.9,0,3.5-1.5,3.5-3.5l0-0.2c0-1.9-1.5-3.5-3.5-3.6L253.9,182.6C254,182.6,253.9,182.6,253.9,182.6L253.9,182.6z"
			/>
	</g>
</g>
<circle fill="#009A73" cx="124.9" cy="147.3" r="4.2"/>
<circle fill="#009A73" cx="177.8" cy="147.3" r="4.2"/>
<line fill="none" stroke="#009A73" stroke-width="4" stroke-linecap="round" stroke-miterlimit="10" x1="166.8" y1="139.1" x2="181.8" y2="132.7"/>
<line fill="none" stroke="#009A73" stroke-width="4" stroke-linecap="round" stroke-miterlimit="10" x1="136.5" y1="138.1" x2="122.5" y2="133.7"/>
<g>
	<path fill="none" stroke="#009A73" stroke-width="4" stroke-linecap="round" stroke-miterlimit="10" d="M142.7,170.6
		c0-5.2,4.3-9.5,9.5-9.5s9.5,4.3,9.5,9.5"/>
</g>
<ellipse opacity="0.6" fill="#45AC8B" cx="48.2" cy="212.8" rx="13.9" ry="1"/>
<path opacity="0.6" fill="#45AC8B" d="M265.7,214.3c0,0.5-9.5,1-21.3,1c-11.7,0-22.3-0.4-22.3-1c0-0.5,10.5-1,22.3-1
	C256.2,213.4,265.7,213.8,265.7,214.3z"/>
<line fill="none" stroke="#C5E5D6" stroke-width="2" stroke-linecap="round" stroke-linejoin="round" stroke-miterlimit="10" x1="163.7" y1="71.8" x2="161.8" y2="84.8"/>
<line fill="none" stroke="#C5E5D6" stroke-width="2" stroke-linecap="round" stroke-linejoin="round" stroke-miterlimit="10" x1="170.5" y1="72.5" x2="168.1" y2="85.9"/>
<line fill="none" stroke="#C5E5D6" stroke-width="2" stroke-linecap="round" stroke-linejoin="round" stroke-miterlimit="10" x1="157.7" y1="75.1" x2="175.9" y2="78"/>
<line fill="none" stroke="#C5E5D6" stroke-width="2" stroke-linecap="round" stroke-linejoin="round" stroke-miterlimit="10" x1="156.2" y1="80.8" x2="172.9" y2="83.8"/>
<line fill="none" stroke="#C5E5D6" stroke-width="2" stroke-linecap="round" stroke-linejoin="round" stroke-miterlimit="10" x1="143.1" y1="62.1" x2="146" y2="78.7"/>
<line fill="none" stroke="#C5E5D6" stroke-width="2" stroke-linecap="round" stroke-linejoin="round" stroke-miterlimit="10" x1="146.6" y1="82.6" x2="146.8" y2="84"/>
<path fill="none" stroke="#C5E5D6" stroke-width="2" stroke-linecap="round" stroke-linejoin="round" stroke-miterlimit="10" d="
	M123.8,78c-0.9-3,0.9-6.2,3.9-7.1c3-0.9,6.2,0.9,7.1,3.9c0.3,1.1,0.3,2.3,0,3.3c-0.6,1.7-3.2,3.2-1.8,5.6"/>
<line fill="none" stroke="#C5E5D6" stroke-width="2" stroke-linecap="round" stroke-linejoin="round" stroke-miterlimit="10" x1="134.3" y1="86.5" x2="134.9" y2="87.4"/>
</svg>
