<?xml version="1.0" encoding="utf-8"?>
<!-- Generator: Adobe Illustrator 19.2.1, SVG Export Plug-In . SVG Version: 6.00 Build 0)  -->
<svg version="1.1" id="Layer_1" xmlns="http://www.w3.org/2000/svg" xmlns:xlink="http://www.w3.org/1999/xlink" x="0px" y="0px"
	 viewBox="0 0 774 228" style="enable-background:new 0 0 774 228;" xml:space="preserve">
<style type="text/css">
	.st0{fill:#FFFFFF;}
	.st1{enable-background:new    ;}
</style>
<title>Fill 2</title>
<g>
	<g>
		<g>
			<path class="st0" d="M511.1,102.4c0,6.9,4.7,11.8,11,11.8c6,0,11-4,11-11.7s-5-11.8-11-11.8C516,90.7,511.1,95.4,511.1,102.4
				L511.1,102.4z M511.1,76.8v17.7c2.2-4.5,6.5-6.6,11.2-6.6c7.5,0,13.5,5.2,13.5,14.4s-5.9,14.4-13.5,14.4c-4.7,0.1-9-2.5-11.2-6.6
				v6.2h-2.6V76.8H511.1L511.1,76.8z"/>
		</g>
		<g>
			<path class="st0" d="M563.8,102.4c0-7.2-5.2-11.9-11.5-11.9c-6.3,0-11.5,4.7-11.5,11.9c0,7.2,5.2,11.6,11.5,11.6
				C558.7,114,563.8,109.7,563.8,102.4 M538.2,102.4c0-8.9,6.3-14.5,14.2-14.5s14.2,5.7,14.2,14.5s-6.3,14.3-14.2,14.3
				S538.2,111.3,538.2,102.4"/>
		</g>
		<g>
			<path class="st0" d="M594.8,102.4c0-7.2-5.2-11.9-11.5-11.9s-11.5,4.7-11.5,11.9c0,7.2,5.2,11.6,11.5,11.6
				S594.8,109.7,594.8,102.4 M569,102.4c0-8.9,6.3-14.5,14.2-14.5s14.2,5.7,14.2,14.5s-6.3,14.3-14.2,14.3S569,111.3,569,102.4"/>
		</g>
		<g>
			<path class="st0" d="M603,88.4v5c2.2-3.8,6.1-5.4,10-5.5c7.5,0,12.6,4.6,12.6,12.3v16.1h-2.8v-16c0-6.3-3.9-9.7-10-9.7
				c-5.8,0.1-9.8,4.4-9.8,10.2v15.5h-2.7V88.4H603L603,88.4z"/>
		</g>
		<g>
			<path class="st0" d="M652.8,112.4c-2.7,2.7-6.4,4.2-10.2,4.2c-7.9,0-14.4-5.4-14.4-14.2s6.3-14.2,14.4-14.2
				c3.8,0,7.5,1.5,10.2,4.2l-1.8,1.8c-2.2-2.2-5.3-3.4-8.4-3.3c-6.3,0-11.7,4.1-11.7,11.6s5.3,11.6,11.7,11.6c3.1,0,6.1-1.2,8.3-3.4
				L652.8,112.4z"/>
		</g>
		<g>
			<path class="st0" d="M679.5,102.4c0-7.2-5.2-11.9-11.5-11.9s-11.5,4.7-11.5,11.9c0,7.2,5.2,11.6,11.5,11.6
				S679.5,109.7,679.5,102.4 M653.8,102.4c0-8.9,6.3-14.5,14.2-14.5s14.2,5.7,14.2,14.5s-6.3,14.3-14.2,14.3
				S653.8,111.3,653.8,102.4"/>
		</g>
		<g>
			<path class="st0" d="M688.2,88.4v5c2.2-3.8,6.1-5.4,10-5.5c7.5,0,12.6,4.6,12.6,12.3v16.1H708v-16c0-6.3-3.9-9.7-10-9.7
				c-5.7,0.2-9.7,4.5-9.7,10.3v15.5h-2.8v-28H688.2L688.2,88.4z"/>
		</g>
		<g>
			<path class="st0" d="M513.2,134.9h7.2c6.1,0,6.1-8.9,0-8.9h-7.2V134.9z M520.5,139.3h-7.2v7.4h-4.8v-25.2c4,0,8,0,11.9,0
				C532.8,121.5,532.8,139.3,520.5,139.3L520.5,139.3L520.5,139.3z"/>
		</g>
		<g>
			<polygon class="st0" points="532.2,121.5 536.8,121.5 536.8,146.7 532.2,146.7 			"/>
		</g>
		<g>
			<polygon class="st0" points="557.7,121.5 562.8,121.5 562.8,121.7 554.2,134 563.2,146.6 563.2,146.7 557.8,146.7 551.2,137.2 
				544.8,146.7 539.5,146.7 539.5,146.6 548.2,134 539.8,121.7 539.8,121.5 545,121.5 551.2,130.9 			"/>
		</g>
		<g>
			<polygon class="st0" points="584,146.7 565,146.7 565,121.5 584,121.5 584,126.1 569.8,126.1 569.8,131.9 583.5,131.9 
				583.5,136.3 569.8,136.3 569.8,142 584,142 			"/>
		</g>
		<g>
			<polygon class="st0" points="591.5,121.5 591.5,142.3 604.5,142.3 604.5,146.7 586.8,146.7 586.8,121.5 			"/>
		</g>
		<g>
			<path class="st0" d="M622.7,127.6c-0.9-1.4-3.3-2.8-6-2.8c-3.5,0-5.2,1.5-5.2,3.4c0,2.2,2.6,2.8,5.6,3.2c5.3,0.6,10.2,2,10.2,8
				c0,5.6-5,8-10.6,8c-5.2,0-9.2-1.6-11-6.2l4-2.1c1.1,2.8,4,4,7.1,4s5.8-1,5.8-3.8c0-2.4-2.5-3.4-5.9-3.7c-5.2-0.6-10-2-10-7.6
				c0-5.2,5.1-7.3,9.8-7.4c3.9,0,8,1.1,10,5L622.7,127.6z"/>
		</g>
	</g>
	<g>
		<g class="st1">
			<path class="st0" d="M71.8,69.2v10.2h-5.4v-29h9.4c1.9,0,3.6,0.2,5,0.7c1.5,0.5,2.6,1.1,3.5,1.9c0.9,0.8,1.6,1.8,2,2.9
				s0.7,2.4,0.7,3.7c0,1.4-0.2,2.7-0.7,3.9c-0.5,1.2-1.2,2.2-2.1,3c-0.9,0.8-2.1,1.5-3.5,2s-3,0.7-4.9,0.7
				C75.8,69.2,71.8,69.2,71.8,69.2z M71.8,65h4c1,0,1.8-0.1,2.6-0.4c0.7-0.2,1.3-0.6,1.8-1.1s0.8-1,1.1-1.7s0.4-1.4,0.4-2.2
				c0-0.8-0.1-1.5-0.4-2.1c-0.3-0.6-0.6-1.2-1.1-1.6s-1.1-0.8-1.8-1c-0.7-0.2-1.6-0.3-2.6-0.3h-4V65z"/>
			<path class="st0" d="M91.8,79.4V58.8h2.9c0.5,0,0.9,0.1,1.1,0.3c0.2,0.2,0.3,0.5,0.4,1l0.3,2.5c0.7-1.3,1.6-2.3,2.6-3
				s2.1-1.1,3.3-1.1c1,0,1.9,0.2,2.5,0.7l-0.6,3.7c0,0.2-0.1,0.4-0.3,0.5c-0.1,0.1-0.3,0.2-0.5,0.2c-0.2,0-0.5,0-0.8-0.1
				c-0.3-0.1-0.8-0.1-1.4-0.1c-1,0-1.9,0.3-2.6,0.9c-0.7,0.6-1.4,1.4-1.9,2.5v12.8h-5V79.4z"/>
			<path class="st0" d="M117.8,58.5c1.3,0,2.5,0.2,3.6,0.6c1.1,0.4,2,1,2.8,1.8c0.8,0.8,1.4,1.8,1.8,2.9c0.4,1.1,0.7,2.5,0.7,4
				c0,0.4,0,0.7,0,0.9c0,0.2-0.1,0.4-0.2,0.6c-0.1,0.1-0.2,0.2-0.4,0.3c-0.1,0.1-0.3,0.1-0.6,0.1h-12.7c0.1,2.1,0.7,3.7,1.7,4.6
				c1,1,2.3,1.5,3.9,1.5c0.8,0,1.5-0.1,2.1-0.3c0.6-0.2,1.1-0.4,1.5-0.6c0.4-0.2,0.8-0.4,1.1-0.6c0.3-0.2,0.6-0.3,1-0.3
				c0.2,0,0.4,0,0.5,0.1c0.1,0.1,0.3,0.2,0.4,0.3l1.4,1.8c-0.5,0.7-1.1,1.3-1.8,1.7c-0.7,0.4-1.4,0.8-2.1,1
				c-0.7,0.3-1.5,0.4-2.3,0.5s-1.5,0.2-2.2,0.2c-1.4,0-2.8-0.2-4-0.7c-1.2-0.5-2.3-1.2-3.2-2.1c-0.9-0.9-1.6-2.1-2.1-3.4
				c-0.5-1.4-0.8-3-0.8-4.8c0-1.4,0.2-2.7,0.7-4c0.5-1.2,1.1-2.3,2-3.2c0.8-0.9,1.9-1.6,3.1-2.2C114.8,58.8,116.2,58.5,117.8,58.5z
				 M117.8,62.1c-1.4,0-2.6,0.4-3.4,1.2s-1.3,2-1.6,3.5h9.3c0-0.6-0.1-1.2-0.3-1.8s-0.4-1.1-0.8-1.5c-0.4-0.4-0.8-0.8-1.4-1
				C119.2,62.2,118.6,62.1,117.8,62.1z"/>
			<path class="st0" d="M138.4,79.7c-1.8,0-3.1-0.5-4.1-1.5s-1.4-2.4-1.4-4.2V62.5h-2.1c-0.3,0-0.5-0.1-0.7-0.3s-0.3-0.4-0.3-0.8v-2
				l3.3-0.5l1-5.6c0.1-0.2,0.2-0.4,0.4-0.5c0.2-0.1,0.4-0.2,0.7-0.2h2.6v6.5h5.4v3.5h-5.4v11.1c0,0.6,0.2,1.1,0.5,1.5
				c0.3,0.4,0.7,0.5,1.3,0.5c0.3,0,0.6,0,0.8-0.1c0.2-0.1,0.4-0.2,0.5-0.2c0.2-0.1,0.3-0.2,0.4-0.2c0.1-0.1,0.2-0.1,0.4-0.1
				c0.1,0,0.3,0,0.4,0.1c0.1,0.1,0.2,0.2,0.3,0.3l1.5,2.4c-0.7,0.6-1.5,1.1-2.5,1.4S139.4,79.7,138.4,79.7z"/>
			<path class="st0" d="M154.9,79.7c-1.8,0-3.1-0.5-4.1-1.5s-1.4-2.4-1.4-4.2V62.5h-2.1c-0.3,0-0.5-0.1-0.7-0.3s-0.3-0.4-0.3-0.8v-2
				l3.3-0.5l1-5.6c0.1-0.3,0.2-0.5,0.4-0.6c0.2-0.1,0.4-0.2,0.7-0.2h2.6V59h5.4v3.5h-5.4v11.1c0,0.6,0.2,1.1,0.5,1.5
				c0.3,0.4,0.7,0.5,1.3,0.5c0.3,0,0.6,0,0.8-0.1c0.2-0.1,0.4-0.2,0.5-0.2c0.2-0.1,0.3-0.2,0.4-0.2c0.1-0.1,0.2-0.1,0.4-0.1
				c0.1,0,0.3,0,0.4,0.1c0.1,0.1,0.2,0.2,0.3,0.3l1.4,2.5c-0.7,0.6-1.5,1.1-2.5,1.4S155.9,79.7,154.9,79.7z"/>
			<path class="st0" d="M171.9,85c-0.1,0.3-0.3,0.6-0.6,0.8c-0.2,0.2-0.6,0.3-1.1,0.3h-3.7l3.8-8.2l-8.3-19h4.3
				c0.4,0,0.7,0.1,0.9,0.3s0.4,0.4,0.5,0.6l4.4,10.6c0.1,0.3,0.3,0.7,0.4,1.1c0.1,0.4,0.2,0.7,0.3,1.1c0.1-0.4,0.2-0.8,0.4-1.1
				c0.1-0.4,0.3-0.7,0.4-1.1l4.1-10.6c0.1-0.3,0.3-0.5,0.5-0.7c0.2-0.2,0.5-0.3,0.8-0.3h4L171.9,85z"/>
			<path class="st0" d="M210.1,63.2c-0.1,0.2-0.3,0.3-0.4,0.4c-0.1,0.1-0.3,0.2-0.6,0.2s-0.5-0.1-0.7-0.2c-0.2-0.2-0.5-0.3-0.9-0.5
				c-0.3-0.2-0.7-0.4-1.2-0.5c-0.5-0.1-1-0.2-1.7-0.2c-0.9,0-1.6,0.2-2.3,0.5s-1.2,0.8-1.6,1.4c-0.4,0.6-0.8,1.3-1,2.1
				c-0.2,0.8-0.3,1.8-0.3,2.8c0,1.1,0.1,2.1,0.4,2.9c0.3,0.8,0.6,1.6,1,2.1c0.4,0.6,1,1,1.6,1.3c0.6,0.3,1.3,0.5,2.1,0.5
				s1.4-0.1,1.9-0.3s0.9-0.4,1.2-0.6c0.3-0.2,0.6-0.4,0.9-0.6c0.2-0.2,0.5-0.3,0.8-0.3c0.4,0,0.7,0.2,0.9,0.5l1.4,1.8
				c-0.5,0.6-1.1,1.2-1.8,1.6c-0.6,0.4-1.3,0.8-2,1c-0.7,0.3-1.4,0.4-2.1,0.5c-0.7,0.1-1.5,0.2-2.2,0.2c-1.3,0-2.5-0.2-3.6-0.7
				s-2.1-1.2-2.9-2.1c-0.8-0.9-1.5-2-2-3.3c-0.5-1.3-0.7-2.8-0.7-4.5c0-1.5,0.2-2.9,0.7-4.2c0.4-1.3,1.1-2.4,1.9-3.3
				c0.8-0.9,1.9-1.7,3.1-2.2c1.2-0.5,2.7-0.8,4.3-0.8c1.5,0,2.9,0.2,4,0.7s2.2,1.2,3.1,2.1L210.1,63.2z"/>
			<path class="st0" d="M224.4,58.5c1.5,0,2.9,0.2,4.2,0.7s2.3,1.2,3.2,2.1c0.9,0.9,1.6,2,2,3.3c0.4,1.3,0.7,2.8,0.7,4.4
				s-0.2,3.1-0.7,4.4c-0.5,1.3-1.2,2.4-2,3.3c-0.9,0.9-1.9,1.6-3.2,2.1s-2.6,0.7-4.2,0.7s-2.9-0.2-4.2-0.7s-2.3-1.2-3.2-2.1
				s-1.6-2-2.1-3.3c-0.5-1.3-0.7-2.8-0.7-4.4s0.2-3.1,0.7-4.4c0.5-1.3,1.2-2.4,2.1-3.3c0.9-0.9,2-1.6,3.2-2.1
				C221.6,58.8,222.9,58.5,224.4,58.5z M224.4,75.9c1.7,0,3-0.6,3.8-1.7c0.8-1.1,1.2-2.8,1.2-5c0-2.2-0.4-3.9-1.2-5.1
				c-0.8-1.2-2.1-1.7-3.8-1.7s-3,0.6-3.8,1.8c-0.8,1.2-1.2,2.8-1.2,5c0,2.2,0.4,3.9,1.2,5C221.4,75.3,222.8,75.9,224.4,75.9z"/>
			<path class="st0" d="M253.9,79.4c-0.6,0-1.1-0.3-1.3-0.9l-0.4-2c-0.4,0.5-0.9,0.9-1.3,1.3c-0.5,0.4-1,0.7-1.5,1
				c-0.5,0.3-1.1,0.5-1.7,0.7c-0.6,0.2-1.3,0.2-2,0.2c-1.1,0-2.1-0.2-3.1-0.7c-0.9-0.5-1.7-1.1-2.4-2s-1.2-2-1.6-3.3
				c-0.4-1.3-0.5-2.8-0.5-4.5c0-1.5,0.2-2.9,0.6-4.2c0.4-1.3,1-2.4,1.8-3.4s1.7-1.7,2.8-2.3c1.1-0.6,2.3-0.8,3.6-0.8
				c1.1,0,2.1,0.2,2.9,0.6c0.8,0.4,1.5,0.9,2.2,1.5v-11h4.9v29.7L253.9,79.4L253.9,79.4z M247.4,75.7c1,0,1.9-0.2,2.6-0.6
				c0.7-0.4,1.4-1,2-1.8v-9.2c-0.6-0.7-1.2-1.2-1.8-1.4c-0.7-0.3-1.4-0.4-2.1-0.4c-0.7,0-1.4,0.1-2,0.4s-1.1,0.7-1.5,1.3
				s-0.7,1.3-1,2.2c-0.2,0.9-0.3,1.9-0.3,3.1c0,1.2,0.1,2.2,0.3,3c0.2,0.8,0.5,1.5,0.8,2c0.4,0.5,0.8,0.9,1.3,1.1
				C246.1,75.6,246.6,75.7,247.4,75.7z"/>
			<path class="st0" d="M271.8,58.5c1.3,0,2.5,0.2,3.6,0.6c1.1,0.4,2,1,2.8,1.8c0.8,0.8,1.4,1.8,1.8,2.9c0.4,1.1,0.7,2.5,0.7,4
				c0,0.4,0,0.7,0,0.9c0,0.2-0.1,0.4-0.2,0.6c-0.1,0.1-0.2,0.2-0.4,0.3c-0.1,0.1-0.3,0.1-0.6,0.1h-12.7c0.1,2.1,0.7,3.7,1.7,4.6
				c1,1,2.3,1.5,3.9,1.5c0.8,0,1.5-0.1,2.1-0.3s1.1-0.4,1.5-0.6c0.4-0.2,0.8-0.4,1.1-0.6c0.3-0.2,0.6-0.3,1-0.3c0.2,0,0.4,0,0.5,0.1
				c0.1,0.1,0.3,0.2,0.4,0.3l1.4,1.8c-0.5,0.6-1.2,1.2-1.8,1.6c-0.7,0.4-1.4,0.8-2.1,1c-0.7,0.3-1.5,0.4-2.3,0.5s-1.5,0.2-2.2,0.2
				c-1.4,0-2.8-0.2-4-0.7c-1.2-0.5-2.3-1.2-3.2-2.1s-1.6-2.1-2.1-3.4c-0.5-1.4-0.8-3-0.8-4.8c0-1.4,0.2-2.7,0.7-4
				c0.5-1.2,1.1-2.3,2-3.2c0.8-0.9,1.9-1.6,3.1-2.2C268.9,58.8,270.1,58.5,271.8,58.5z M271.9,62.1c-1.4,0-2.6,0.4-3.4,1.2
				s-1.3,2-1.6,3.5h9.3c0-0.6-0.1-1.2-0.3-1.8s-0.4-1.1-0.8-1.5c-0.4-0.4-0.8-0.8-1.4-1C273.2,62.2,272.5,62.1,271.9,62.1z"/>
			<path class="st0" d="M284.5,76.6c0-0.4,0.1-0.8,0.2-1.2c0.2-0.4,0.4-0.7,0.6-1c0.3-0.3,0.6-0.5,1-0.6c0.4-0.2,0.8-0.2,1.2-0.2
				c0.4,0,0.8,0.1,1.2,0.2c0.4,0.2,0.7,0.4,1,0.6c0.3,0.3,0.5,0.6,0.6,1c0.2,0.4,0.2,0.8,0.2,1.2s-0.1,0.8-0.2,1.2
				c-0.2,0.4-0.4,0.7-0.6,1c-0.3,0.3-0.6,0.5-1,0.6c-0.4,0.2-0.8,0.2-1.2,0.2c-0.4,0-0.8-0.1-1.2-0.2c-0.4-0.2-0.7-0.4-1-0.6
				c-0.3-0.3-0.5-0.6-0.6-1C284.5,77.5,284.5,77.1,284.5,76.6z"/>
		</g>
		<g class="st1">
			<path class="st0" d="M81.7,103.7c-0.1,0.3-0.3,0.5-0.5,0.6c-0.2,0.1-0.4,0.2-0.7,0.2c-0.3,0-0.6-0.1-0.9-0.3
				c-0.3-0.2-0.7-0.4-1.2-0.7c-0.5-0.3-1-0.5-1.6-0.7c-0.6-0.2-1.3-0.3-2.1-0.3c-0.7,0-1.4,0.1-1.9,0.3c-0.6,0.2-1,0.4-1.4,0.8
				c-0.4,0.3-0.7,0.7-0.8,1.1c-0.2,0.4-0.3,0.9-0.3,1.5c0,0.7,0.2,1.2,0.6,1.7s0.9,0.8,1.5,1.2c0.6,0.3,1.3,0.6,2.1,0.9
				c0.8,0.3,1.6,0.5,2.4,0.8c0.8,0.3,1.7,0.6,2.5,1c0.8,0.4,1.5,0.9,2.1,1.4c0.6,0.6,1.1,1.3,1.5,2.1c0.4,0.8,0.6,1.9,0.6,3.1
				c0,1.3-0.2,2.5-0.7,3.7c-0.4,1.1-1.1,2.1-2,3c-0.9,0.8-1.9,1.5-3.1,2s-2.7,0.7-4.3,0.7c-0.9,0-1.8-0.1-2.7-0.3
				c-0.9-0.2-1.8-0.4-2.6-0.8c-0.8-0.3-1.6-0.7-2.3-1.2c-0.7-0.5-1.4-1-1.9-1.6l1.6-2.6c0.1-0.2,0.3-0.3,0.5-0.5
				c0.2-0.1,0.4-0.2,0.7-0.2s0.7,0.1,1.1,0.4s0.8,0.6,1.4,0.9c0.5,0.3,1.1,0.6,1.9,0.9c0.7,0.3,1.6,0.4,2.6,0.4
				c1.5,0,2.7-0.4,3.6-1.1s1.3-1.8,1.3-3.1c0-0.8-0.2-1.4-0.6-1.9c-0.4-0.5-0.9-0.9-1.5-1.2c-0.6-0.3-1.3-0.6-2.1-0.8
				c-0.8-0.2-1.6-0.5-2.4-0.7c-0.8-0.3-1.6-0.6-2.4-1s-1.5-0.9-2.1-1.5s-1.1-1.3-1.5-2.2c-0.4-0.9-0.6-2-0.6-3.3
				c0-1.1,0.2-2.1,0.6-3.1s1-1.9,1.8-2.7c0.8-0.8,1.8-1.4,3-1.9c1.2-0.5,2.5-0.7,4-0.7c1.7,0,3.3,0.3,4.7,0.8
				c1.4,0.5,2.7,1.3,3.7,2.2L81.7,103.7z"/>
			<path class="st0" d="M88.3,127.4v-20.6h3c0.6,0,1.1,0.3,1.3,0.9l0.3,1.5c0.4-0.4,0.7-0.8,1.1-1.1c0.4-0.3,0.8-0.6,1.3-0.9
				c0.4-0.2,0.9-0.4,1.4-0.6s1.1-0.2,1.7-0.2c1.3,0,2.4,0.3,3.2,1c0.8,0.7,1.5,1.6,1.9,2.8c0.3-0.7,0.7-1.3,1.2-1.8s1-0.9,1.6-1.2
				c0.6-0.3,1.2-0.5,1.8-0.7c0.6-0.1,1.3-0.2,1.9-0.2c1.1,0,2.1,0.2,3,0.5c0.9,0.3,1.6,0.9,2.2,1.5c0.6,0.6,1.1,1.5,1.4,2.4
				c0.3,1,0.5,2.1,0.5,3.3v13.1h-4.9v-12.8c0-1.3-0.3-2.3-0.9-3s-1.4-1-2.5-1c-0.5,0-1,0.1-1.4,0.3c-0.4,0.2-0.8,0.4-1.1,0.8
				c-0.3,0.3-0.6,0.7-0.8,1.2c-0.2,0.5-0.3,1.1-0.3,1.7v13.1h-5v-13.1c0-1.4-0.3-2.4-0.8-3c-0.6-0.6-1.4-0.9-2.5-0.9
				c-0.7,0-1.4,0.2-2,0.5c-0.6,0.3-1.2,0.8-1.7,1.5v15H88.3z"/>
			<path class="st0" d="M139.1,127.4H137c-0.5,0-0.8-0.1-1.1-0.2s-0.5-0.4-0.6-0.8l-0.4-1.5c-0.5,0.5-1,0.9-1.5,1.2s-1,0.7-1.6,0.9
				c-0.5,0.2-1.1,0.4-1.7,0.5c-0.6,0.1-1.3,0.2-2,0.2c-0.9,0-1.7-0.1-2.4-0.4c-0.7-0.2-1.4-0.6-1.9-1.1s-0.9-1.1-1.2-1.7
				c-0.3-0.7-0.4-1.5-0.4-2.4c0-0.8,0.2-1.5,0.6-2.3c0.4-0.8,1.1-1.4,2-2c0.9-0.6,2.2-1.1,3.8-1.5c1.6-0.4,3.5-0.6,5.9-0.6v-1.2
				c0-1.4-0.3-2.4-0.9-3.1s-1.4-1-2.5-1c-0.8,0-1.5,0.1-2,0.3s-1,0.4-1.4,0.6s-0.8,0.4-1.1,0.6s-0.7,0.3-1.1,0.3
				c-0.3,0-0.6-0.1-0.9-0.3c-0.2-0.2-0.4-0.4-0.6-0.6l-0.9-1.6c2.4-2.2,5.2-3.2,8.5-3.2c1.2,0,2.3,0.2,3.2,0.6
				c0.9,0.4,1.7,0.9,2.4,1.6c0.7,0.7,1.1,1.5,1.5,2.5c0.3,1,0.5,2,0.5,3.2V127.4z M129.6,124.3c0.5,0,1,0,1.4-0.1
				c0.4-0.1,0.8-0.2,1.2-0.4c0.4-0.2,0.7-0.4,1.1-0.7c0.4-0.3,0.7-0.6,1.1-1v-3.4c-1.4,0-2.6,0.1-3.6,0.3c-1,0.2-1.7,0.4-2.3,0.7
				c-0.6,0.3-1,0.6-1.2,1c-0.2,0.4-0.4,0.8-0.4,1.2c0,0.9,0.3,1.5,0.8,1.9C128.1,124.1,128.6,124.3,129.6,124.3z"/>
			<path class="st0" d="M144.9,127.4v-20.6h2.9c0.5,0,0.9,0.1,1.1,0.3c0.2,0.2,0.3,0.5,0.4,1l0.3,2.5c0.7-1.3,1.6-2.3,2.6-3
				c1-0.7,2.1-1.1,3.3-1.1c1,0,1.9,0.2,2.5,0.7l-0.6,3.7c0,0.2-0.1,0.4-0.3,0.5c-0.1,0.1-0.3,0.2-0.5,0.2s-0.5,0-0.8-0.1
				s-0.8-0.1-1.4-0.1c-1,0-1.9,0.3-2.6,0.9s-1.4,1.4-1.9,2.5v12.8h-5V127.4z"/>
			<path class="st0" d="M169.1,127.7c-1.8,0-3.1-0.5-4.1-1.5s-1.4-2.4-1.4-4.2v-11.5h-2.1c-0.3,0-0.5-0.1-0.7-0.3
				c-0.2-0.2-0.3-0.4-0.3-0.8v-2l3.3-0.5l1-5.6c0.1-0.3,0.2-0.5,0.4-0.6s0.4-0.2,0.7-0.2h2.6v6.5h5.4v3.5h-5.4v11.1
				c0,0.6,0.2,1.1,0.5,1.5c0.3,0.4,0.7,0.5,1.3,0.5c0.3,0,0.6,0,0.8-0.1c0.2-0.1,0.4-0.2,0.5-0.2c0.2-0.1,0.3-0.2,0.4-0.2
				c0.1-0.1,0.2-0.1,0.4-0.1c0.1,0,0.3,0,0.4,0.1s0.2,0.2,0.3,0.3l1.5,2.4c-0.7,0.6-1.5,1.1-2.5,1.4S170.1,127.7,169.1,127.7z"/>
			<path class="st0" d="M201.9,127.4c-0.6,0-1.1-0.3-1.3-0.9l-0.4-2c-0.4,0.5-0.9,0.9-1.3,1.3c-0.5,0.4-1,0.7-1.5,1
				s-1.1,0.5-1.7,0.7c-0.6,0.2-1.3,0.2-2,0.2c-1.1,0-2.1-0.2-3.1-0.7c-0.9-0.5-1.7-1.1-2.4-2c-0.7-0.9-1.2-2-1.6-3.3
				c-0.4-1.3-0.5-2.8-0.5-4.5c0-1.5,0.2-2.9,0.6-4.2c0.4-1.3,1-2.4,1.8-3.4s1.7-1.7,2.8-2.2s2.3-0.8,3.6-0.8c1.1,0,2.1,0.2,2.9,0.6
				c0.8,0.4,1.5,0.9,2.2,1.5V97.6h4.9v29.7L201.9,127.4L201.9,127.4z M195.4,123.7c1,0,1.9-0.2,2.6-0.6c0.7-0.4,1.4-1,2-1.8v-9.2
				c-0.6-0.7-1.2-1.2-1.8-1.4c-0.7-0.3-1.4-0.4-2.1-0.4c-0.7,0-1.4,0.1-2,0.4s-1.1,0.7-1.5,1.3c-0.4,0.6-0.7,1.3-1,2.2
				c-0.2,0.9-0.3,1.9-0.3,3.1s0.1,2.2,0.3,3s0.5,1.5,0.8,2c0.4,0.5,0.8,0.9,1.3,1.1C194.1,123.6,194.8,123.7,195.4,123.7z"/>
			<path class="st0" d="M219.8,106.5c1.3,0,2.5,0.2,3.6,0.6s2,1,2.8,1.8c0.8,0.8,1.4,1.8,1.8,2.9s0.7,2.5,0.7,3.9c0,0.4,0,0.7,0,0.9
				c0,0.2-0.1,0.4-0.2,0.6c-0.1,0.1-0.2,0.2-0.4,0.3c-0.1,0.1-0.3,0.1-0.6,0.1h-12.7c0.1,2.1,0.7,3.7,1.7,4.6c1,1,2.3,1.5,3.9,1.5
				c0.8,0,1.5-0.1,2.1-0.3s1.1-0.4,1.5-0.6s0.8-0.4,1.1-0.6s0.6-0.3,1-0.3c0.2,0,0.4,0,0.5,0.1s0.3,0.2,0.4,0.3l1.4,1.8
				c-0.5,0.6-1.2,1.2-1.8,1.6c-0.7,0.4-1.4,0.8-2.1,1c-0.7,0.3-1.5,0.4-2.3,0.5s-1.5,0.2-2.2,0.2c-1.4,0-2.8-0.2-4-0.7
				s-2.3-1.2-3.2-2.1s-1.6-2.1-2.1-3.4c-0.5-1.4-0.8-3-0.8-4.8c0-1.4,0.2-2.7,0.7-3.9c0.5-1.2,1.1-2.3,2-3.2
				c0.8-0.9,1.9-1.6,3.1-2.2C216.9,106.8,218.2,106.5,219.8,106.5z M219.9,110.1c-1.4,0-2.6,0.4-3.4,1.2s-1.3,2-1.6,3.5h9.3
				c0-0.6-0.1-1.2-0.3-1.8s-0.4-1.1-0.8-1.5s-0.8-0.8-1.4-1C221.2,110.2,220.6,110.1,219.9,110.1z"/>
			<path class="st0" d="M245.9,110.8c-0.1,0.2-0.3,0.4-0.4,0.4c-0.1,0.1-0.3,0.1-0.6,0.1c-0.2,0-0.5-0.1-0.8-0.2s-0.6-0.3-0.9-0.5
				c-0.4-0.2-0.8-0.3-1.2-0.5c-0.5-0.1-1-0.2-1.6-0.2c-1,0-1.7,0.2-2.3,0.6s-0.8,1-0.8,1.6c0,0.4,0.1,0.8,0.4,1.1
				c0.3,0.3,0.7,0.6,1.1,0.8s1,0.4,1.6,0.6s1.2,0.4,1.8,0.6s1.2,0.5,1.8,0.7s1.1,0.6,1.6,1s0.9,0.9,1.1,1.5s0.4,1.3,0.4,2.1
				c0,1-0.2,1.9-0.5,2.7c-0.4,0.8-0.9,1.6-1.6,2.2c-0.7,0.6-1.5,1.1-2.6,1.4c-1,0.3-2.2,0.5-3.5,0.5c-0.7,0-1.4-0.1-2.1-0.2
				c-0.7-0.1-1.3-0.3-1.9-0.5c-0.6-0.2-1.2-0.5-1.7-0.8s-1-0.6-1.4-1l1.1-1.9c0.1-0.2,0.3-0.4,0.5-0.5s0.5-0.2,0.8-0.2
				s0.6,0.1,0.9,0.3c0.3,0.2,0.6,0.4,1,0.6s0.8,0.4,1.3,0.6s1.1,0.3,1.9,0.3c0.6,0,1.1-0.1,1.5-0.2s0.8-0.3,1-0.6
				c0.3-0.2,0.5-0.5,0.6-0.8s0.2-0.6,0.2-0.9c0-0.5-0.1-0.9-0.4-1.2s-0.7-0.6-1.1-0.8c-0.5-0.2-1-0.4-1.6-0.6s-1.2-0.4-1.9-0.6
				c-0.6-0.2-1.3-0.5-1.9-0.8c-0.6-0.3-1.1-0.7-1.6-1.1s-0.9-1-1.1-1.6c-0.3-0.6-0.4-1.4-0.4-2.3c0-0.8,0.2-1.6,0.5-2.4
				s0.8-1.4,1.5-2c0.6-0.6,1.5-1,2.4-1.4c1-0.3,2.1-0.5,3.4-0.5c1.4,0,2.7,0.2,3.9,0.7s2.1,1.1,2.9,1.8L245.9,110.8z"/>
			<path class="st0" d="M258.1,100.9c0,0.4-0.1,0.8-0.3,1.2c-0.2,0.4-0.4,0.7-0.7,1c-0.3,0.3-0.6,0.5-1,0.7
				c-0.4,0.2-0.8,0.2-1.2,0.2s-0.8-0.1-1.2-0.2c-0.4-0.2-0.7-0.4-1-0.7c-0.3-0.3-0.5-0.6-0.7-1s-0.2-0.8-0.2-1.2s0.1-0.9,0.2-1.2
				c0.1-0.3,0.4-0.7,0.7-1c0.3-0.3,0.6-0.5,1-0.7c0.4-0.2,0.8-0.2,1.2-0.2s0.9,0.1,1.2,0.2c0.4,0.2,0.7,0.4,1,0.7
				c0.3,0.3,0.5,0.6,0.7,1C258,100.1,258.1,100.4,258.1,100.9z M257.5,106.8v20.5h-4.9v-20.5H257.5z"/>
			<path class="st0" d="M271.1,106.5c0.9,0,1.7,0.1,2.5,0.3c0.8,0.2,1.5,0.4,2.1,0.8h5.9v1.8c0,0.3-0.1,0.5-0.2,0.7
				c-0.2,0.2-0.4,0.3-0.8,0.4l-1.8,0.3c0.1,0.3,0.2,0.7,0.3,1.1s0.1,0.8,0.1,1.2c0,1-0.2,1.9-0.6,2.7c-0.4,0.8-1,1.5-1.7,2.1
				c-0.7,0.6-1.6,1-2.5,1.3c-1,0.3-2,0.5-3.2,0.5c-0.8,0-1.5-0.1-2.3-0.2c-0.6,0.4-1,0.8-1,1.3c0,0.4,0.2,0.7,0.6,0.9
				c0.4,0.2,0.9,0.3,1.5,0.4c0.6,0.1,1.3,0.1,2.1,0.1c0.8,0,1.6,0,2.4,0.1c0.8,0.1,1.6,0.2,2.4,0.4c0.8,0.2,1.5,0.4,2.1,0.8
				c0.6,0.4,1.1,0.9,1.5,1.5c0.4,0.6,0.6,1.4,0.6,2.4c0,0.9-0.2,1.8-0.7,2.6c-0.5,0.8-1.1,1.6-1.9,2.3c-0.8,0.7-1.9,1.2-3.1,1.6
				c-1.2,0.4-2.6,0.6-4.2,0.6c-1.6,0-2.9-0.1-4.1-0.5c-1.1-0.3-2.1-0.7-2.9-1.2s-1.3-1.1-1.7-1.7c-0.4-0.7-0.6-1.3-0.6-2
				c0-1,0.3-1.8,0.9-2.4c0.6-0.7,1.4-1.2,2.4-1.6c-0.5-0.3-0.9-0.7-1.2-1.1c-0.3-0.5-0.5-1.1-0.5-1.8c0-0.3,0.1-0.6,0.2-1
				c0.1-0.3,0.3-0.6,0.5-1c0.2-0.3,0.5-0.6,0.8-0.9c0.3-0.3,0.7-0.5,1.2-0.8c-1-0.6-1.9-1.3-2.4-2.2c-0.6-0.9-0.9-2-0.9-3.3
				c0-1,0.2-1.9,0.6-2.8c0.4-0.8,1-1.5,1.7-2.1c0.7-0.6,1.6-1,2.6-1.3C268.9,106.6,270,106.5,271.1,106.5z M276.5,128.2
				c0-0.4-0.1-0.7-0.4-1c-0.2-0.3-0.6-0.5-1-0.6c-0.4-0.1-0.9-0.2-1.4-0.3c-0.6-0.1-1.1-0.1-1.8-0.1c-0.6,0-1.3,0-1.9,0
				s-1.3-0.1-1.9-0.2c-0.6,0.3-1,0.7-1.3,1.1c-0.3,0.4-0.5,0.9-0.5,1.5c0,0.4,0.1,0.7,0.3,1s0.5,0.6,0.9,0.8
				c0.4,0.2,0.9,0.4,1.5,0.5c0.6,0.1,1.4,0.2,2.3,0.2c0.9,0,1.7-0.1,2.4-0.2c0.7-0.1,1.2-0.3,1.7-0.6c0.4-0.3,0.8-0.6,0.9-0.9
				C276.5,129,276.5,128.6,276.5,128.2z M271.1,116.6c0.6,0,1.1-0.1,1.6-0.2s0.8-0.4,1.1-0.7c0.3-0.3,0.5-0.6,0.7-1.1
				c0.2-0.4,0.2-0.9,0.2-1.4c0-1-0.3-1.8-0.9-2.4s-1.5-0.9-2.7-0.9c-1.2,0-2.1,0.3-2.7,0.9c-0.6,0.6-0.9,1.4-0.9,2.4
				c0,0.5,0.1,0.9,0.2,1.3c0.2,0.4,0.4,0.8,0.7,1.1c0.3,0.3,0.7,0.5,1.1,0.7S270.5,116.6,271.1,116.6z"/>
			<path class="st0" d="M285.8,127.4v-20.6h3c0.6,0,1.1,0.3,1.3,0.9l0.3,1.6c0.4-0.4,0.9-0.8,1.3-1.2c0.4-0.4,0.9-0.6,1.5-0.9
				c0.5-0.3,1.1-0.4,1.7-0.6c0.6-0.1,1.2-0.2,1.9-0.2c1.1,0,2.1,0.2,3,0.6s1.6,0.9,2.2,1.6c0.6,0.7,1,1.5,1.3,2.5s0.5,2,0.5,3.2
				v13.1h-4.9v-13.1c0-1.3-0.3-2.2-0.9-2.9s-1.5-1-2.6-1c-0.9,0-1.7,0.2-2.4,0.6s-1.5,0.9-2.1,1.6v14.8H285.8z"/>
			<path class="st0" d="M308.2,124.6c0-0.4,0.1-0.8,0.2-1.2c0.2-0.4,0.4-0.7,0.6-1c0.3-0.3,0.6-0.5,1-0.6c0.4-0.2,0.8-0.2,1.2-0.2
				s0.8,0.1,1.2,0.2c0.4,0.2,0.7,0.4,1,0.6c0.3,0.3,0.5,0.6,0.6,1c0.2,0.4,0.2,0.8,0.2,1.2c0,0.4-0.1,0.8-0.2,1.2
				c-0.2,0.4-0.4,0.7-0.6,1c-0.3,0.3-0.6,0.5-1,0.6c-0.4,0.2-0.8,0.2-1.2,0.2s-0.8-0.1-1.2-0.2c-0.4-0.2-0.7-0.4-1-0.6
				c-0.3-0.3-0.5-0.6-0.6-1C308.4,125.5,308.2,125.1,308.2,124.6z"/>
		</g>
	</g>
	<g>
		<g class="st1">
			<path class="st0" d="M70.6,182.8v-21.7h1.7c0.4,0,0.7,0.2,0.8,0.6l0.2,1.9c0.7-0.8,1.5-1.5,2.4-2s1.9-0.8,3.1-0.8
				c0.9,0,1.8,0.2,2.5,0.5s1.4,0.9,1.9,1.6s0.9,1.6,1.2,2.6c0.3,1,0.4,2.2,0.4,3.6c0,1.2-0.2,2.3-0.5,3.3s-0.8,1.9-1.4,2.7
				s-1.3,1.3-2.2,1.8c-0.9,0.4-1.8,0.6-2.9,0.6c-1,0-1.9-0.2-2.6-0.5c-0.7-0.3-1.3-0.8-1.9-1.4v7.2L70.6,182.8L70.6,182.8z
				 M77.8,163.2c-0.9,0-1.7,0.2-2.4,0.6c-0.7,0.4-1.3,1-1.9,1.8v7.8c0.5,0.7,1.1,1.2,1.7,1.5s1.3,0.4,2.1,0.4c1.5,0,2.7-0.5,3.5-1.6
				c0.8-1.1,1.2-2.6,1.2-4.6c0-1.1-0.1-2-0.3-2.7c-0.2-0.8-0.5-1.4-0.8-1.9c-0.4-0.5-0.8-0.8-1.3-1.1
				C79.1,163.3,78.4,163.2,77.8,163.2z"/>
			<path class="st0" d="M95.1,156.1c0,0.3-0.1,0.5-0.2,0.8c-0.1,0.2-0.3,0.5-0.4,0.6c-0.1,0.1-0.4,0.3-0.6,0.4
				c-0.2,0.1-0.5,0.2-0.8,0.2c-0.3,0-0.5-0.1-0.8-0.2c-0.2-0.1-0.5-0.3-0.6-0.4c-0.2-0.2-0.3-0.4-0.4-0.6s-0.2-0.5-0.2-0.8
				s0.1-0.5,0.2-0.8s0.3-0.5,0.4-0.7c0.2-0.2,0.4-0.3,0.6-0.4c0.2-0.1,0.5-0.2,0.8-0.2c0.3,0,0.5,0.1,0.8,0.2
				c0.3,0.1,0.5,0.3,0.6,0.4c0.1,0.1,0.3,0.4,0.4,0.7C94.9,155.5,95.1,155.8,95.1,156.1z M94.3,161.2v16.2h-2.8v-16.2H94.3z"/>
		</g>
		<g class="st1">
			<path class="st0" d="M106.8,169.1l-5.5-7.9h2.7c0.2,0,0.4,0,0.5,0.1c0.1,0.1,0.2,0.2,0.3,0.3l4,6.1c0.1-0.3,0.2-0.6,0.4-0.9
				l3.5-5.1c0.1-0.1,0.2-0.3,0.3-0.4c0.1-0.1,0.2-0.1,0.4-0.1h2.6l-5.5,7.7l5.7,8.5h-2.7c-0.2,0-0.4-0.1-0.6-0.2
				c-0.1-0.1-0.2-0.3-0.3-0.4l-4.1-6.4c-0.1,0.3-0.2,0.6-0.3,0.8l-3.8,5.5c-0.1,0.1-0.2,0.3-0.3,0.4c-0.1,0.1-0.3,0.2-0.5,0.2h-2.5
				L106.8,169.1z"/>
		</g>
		<g class="st1">
			<path class="st0" d="M127.9,160.9c1,0,1.9,0.2,2.7,0.5s1.5,0.8,2.1,1.4c0.6,0.6,1.1,1.4,1.4,2.3c0.3,0.9,0.5,1.9,0.5,3.1
				c0,0.4,0,0.7-0.1,0.9c-0.1,0.1-0.3,0.2-0.5,0.2h-10.9c0,1,0.2,1.9,0.4,2.7c0.2,0.8,0.6,1.4,1.1,1.9c0.4,0.5,1,0.9,1.6,1.1
				c0.6,0.2,1.3,0.4,2.1,0.4c0.7,0,1.3-0.1,1.8-0.2c0.5-0.2,1-0.3,1.3-0.5c0.4-0.2,0.7-0.4,0.9-0.5s0.5-0.2,0.6-0.2
				c0.2,0,0.4,0.1,0.5,0.3l0.8,1c-0.4,0.4-0.8,0.8-1.3,1.1s-1,0.6-1.6,0.8s-1.1,0.4-1.7,0.5s-1.2,0.2-1.8,0.2
				c-1.1,0-2.2-0.2-3.1-0.6c-0.9-0.4-1.8-0.9-2.4-1.7s-1.2-1.6-1.6-2.7s-0.6-2.3-0.6-3.7c0-1.1,0.2-2.2,0.5-3.2s0.8-1.8,1.5-2.6
				c0.7-0.7,1.4-1.3,2.4-1.7C125.7,161.1,126.8,160.9,127.9,160.9z M127.9,163c-1.4,0-2.5,0.4-3.2,1.2c-0.7,0.8-1.3,1.9-1.5,3.3h8.8
				c0-0.7-0.1-1.3-0.3-1.8c-0.2-0.5-0.4-1-0.8-1.4c-0.4-0.4-0.8-0.7-1.3-0.9C129.2,163.1,128.6,163,127.9,163z"/>
			<path class="st0" d="M144.4,153.8v23.6h-2.8v-23.6H144.4z"/>
			<path class="st0" d="M161.6,163.8c-0.1,0.2-0.3,0.4-0.6,0.4c-0.2,0-0.3-0.1-0.5-0.2c-0.2-0.1-0.5-0.2-0.7-0.4
				c-0.3-0.1-0.6-0.3-1-0.4c-0.4-0.1-0.9-0.2-1.4-0.2s-0.9,0.1-1.3,0.2c-0.4,0.1-0.7,0.3-1,0.5c-0.3,0.2-0.5,0.5-0.6,0.7
				c-0.1,0.3-0.2,0.6-0.2,0.9c0,0.4,0.1,0.8,0.4,1c0.2,0.3,0.6,0.5,1,0.7c0.4,0.2,0.8,0.4,1.3,0.5c0.5,0.2,1,0.3,1.5,0.5
				s1,0.4,1.5,0.6s0.9,0.5,1.3,0.8c0.4,0.3,0.7,0.7,1,1.2c0.2,0.5,0.4,1,0.4,1.7s-0.1,1.4-0.4,2.1c-0.3,0.7-0.7,1.2-1.2,1.6
				s-1.2,0.8-1.9,1.1c-0.8,0.3-1.6,0.4-2.6,0.4c-1.1,0-2.2-0.2-3.1-0.6c-0.9-0.4-1.7-0.8-2.3-1.4l0.7-1.1c0.1-0.1,0.2-0.2,0.3-0.3
				c0.1-0.1,0.3-0.1,0.5-0.1s0.4,0.1,0.6,0.2c0.2,0.1,0.5,0.3,0.8,0.5c0.3,0.2,0.7,0.3,1.1,0.5s1,0.2,1.6,0.2c0.6,0,1-0.1,1.5-0.2
				c0.4-0.1,0.8-0.3,1-0.6c0.2-0.3,0.5-0.5,0.6-0.8s0.2-0.7,0.2-1c0-0.4-0.1-0.8-0.4-1.1c-0.2-0.3-0.6-0.5-1-0.8
				c-0.4-0.3-0.8-0.4-1.4-0.5c-0.5-0.2-1-0.3-1.6-0.5c-0.5-0.2-1-0.4-1.6-0.6c-0.5-0.2-1-0.5-1.4-0.8c-0.4-0.3-0.7-0.7-1-1.2
				c-0.2-0.5-0.4-1.1-0.4-1.8c0-0.6,0.1-1.2,0.4-1.8c0.3-0.6,0.6-1.1,1.1-1.5c0.5-0.4,1.1-0.8,1.8-1c0.7-0.3,1.5-0.4,2.4-0.4
				c1.1,0,2,0.2,2.9,0.5c0.8,0.3,1.6,0.8,2.2,1.4L161.6,163.8z"/>
			<path class="st0" d="M168.4,175.6c0-0.3,0.1-0.5,0.2-0.8c0.1-0.2,0.2-0.5,0.4-0.6c0.2-0.2,0.4-0.3,0.6-0.4
				c0.2-0.1,0.5-0.2,0.8-0.2c0.3,0,0.5,0.1,0.8,0.2c0.2,0.1,0.5,0.3,0.6,0.4c0.2,0.2,0.3,0.4,0.4,0.6c0.1,0.2,0.2,0.5,0.2,0.8
				s-0.1,0.6-0.2,0.8c-0.1,0.2-0.2,0.5-0.4,0.6c-0.2,0.2-0.4,0.3-0.6,0.4c-0.2,0.1-0.5,0.2-0.8,0.2c-0.3,0-0.5-0.1-0.8-0.2
				c-0.2-0.1-0.5-0.2-0.6-0.4c-0.2-0.2-0.3-0.4-0.4-0.6C168.4,176.2,168.4,175.9,168.4,175.6z"/>
			<path class="st0" d="M179.6,177.4v-13.8l-1.8-0.2c-0.2-0.1-0.4-0.1-0.6-0.2c-0.1-0.1-0.2-0.3-0.2-0.5v-1.2h2.6v-1.6
				c0-0.9,0.1-1.8,0.4-2.5s0.6-1.3,1.1-1.8s1.1-0.9,1.8-1.1c0.7-0.3,1.5-0.4,2.3-0.4c0.7,0,1.4,0.1,2,0.3l-0.1,1.4
				c0,0.2-0.1,0.3-0.3,0.4c-0.2,0-0.4,0.1-0.7,0.1h-0.5c-0.5,0-0.9,0.1-1.3,0.2c-0.4,0.1-0.7,0.3-1,0.6c-0.3,0.3-0.5,0.7-0.7,1.1
				c-0.2,0.5-0.2,1.1-0.2,1.7v1.5h4.7v2.1h-4.6v13.8h-2.9V177.4z"/>
		</g>
		<g class="st1">
			<path class="st0" d="M198.2,156.1c0,0.3-0.1,0.5-0.2,0.8c-0.1,0.2-0.3,0.5-0.4,0.6c-0.1,0.1-0.4,0.3-0.6,0.4
				c-0.2,0.1-0.5,0.2-0.8,0.2s-0.5-0.1-0.8-0.2c-0.2-0.1-0.5-0.3-0.6-0.4c-0.2-0.2-0.3-0.4-0.4-0.6c-0.1-0.2-0.2-0.5-0.2-0.8
				s0.1-0.5,0.2-0.8c0.1-0.3,0.3-0.5,0.4-0.7c0.2-0.2,0.4-0.3,0.6-0.4c0.2-0.1,0.5-0.2,0.8-0.2s0.5,0.1,0.8,0.2
				c0.3,0.1,0.5,0.3,0.6,0.4c0.1,0.1,0.3,0.4,0.4,0.7C198.1,155.5,198.2,155.8,198.2,156.1z M197.6,161.2v16.2h-2.8v-16.2H197.6z"/>
		</g>
	</g>
</g>
<path class="st0" d="M449.8,129.8l-0.1,23.9l-48-27.8l23.8-13.6l-23.5-9.2l43.4-34.6l4.5,29.8l17-13.3l7.8,54.9L449.8,129.8z
	 M440.2,60.8c-28.3,0.1-51.2,23.1-51.1,51.4s23.1,51.2,51.4,51.1c28.3-0.1,51.1-23,51.1-51.2C491.5,83.7,468.5,60.8,440.2,60.8
	L440.2,60.8L440.2,60.8z"/>
<polygon class="st0" points="453.6,123.2 449.9,98.2 449.9,98.3 425.5,112.2 429.9,113.9 423.2,119.1 449.8,129.8 449.8,121.7 "/>
</svg>
