<?xml version="1.0" encoding="UTF-8" standalone="no"?>
<svg width="323px" height="103px" viewBox="0 0 323 103" version="1.1" xmlns="http://www.w3.org/2000/svg" xmlns:xlink="http://www.w3.org/1999/xlink">
    <!-- Generator: Sketch 3.6.1 (26313) - http://www.bohemiancoding.com/sketch -->
    <title>Group 2 Copy</title>
    <desc>Created with Sketch.</desc>
    <defs>
        <path d="M1.76,52.4435404 C1.76,80.7488199 24.7570968,103.693975 53.1282258,103.693975 L53.1282258,103.693975 C81.4958065,103.693975 104.496452,80.7488199 104.496452,52.4435404 L104.496452,52.4435404 C104.494677,24.1364907 81.4958065,1.1913354 53.1282258,1.1913354 L53.1282258,1.1913354 C24.7570968,1.1913354 1.76,24.1364907 1.76,52.4435404 M14.5341935,66.2031988 L38.3083871,52.5975466 L14.795,43.4368323 L58.1793548,8.80136646 L62.7337097,38.6113043 L79.7890323,25.2658696 L87.6220968,80.1504969 L62.645,70.1330124 L62.5775806,94.0553106" id="path-1"></path>
        <path d="M1.76,52.4435404 C1.76,80.7488199 24.7570968,103.693975 53.1282258,103.693975 L53.1282258,103.693975 C81.4958065,103.693975 104.496452,80.7488199 104.496452,52.4435404 L104.496452,52.4435404 C104.494677,24.1364907 81.4958065,1.1913354 53.1282258,1.1913354 L53.1282258,1.1913354 C24.7570968,1.1913354 1.76,24.1364907 1.76,52.4435404 M14.5341935,66.2031988 L38.3083871,52.5975466 L14.795,43.4368323 L58.1793548,8.80136646 L62.7337097,38.6113043 L79.7890323,25.2658696 L87.6220968,80.1504969 L62.645,70.1330124 L62.5775806,94.0553106" id="path-3"></path>
        <path d="M1.76,52.4435404 C1.76,80.7488199 24.7570968,103.693975 53.1282258,103.693975 L53.1282258,103.693975 C81.4958065,103.693975 104.496452,80.7488199 104.496452,52.4435404 L104.496452,52.4435404 C104.494677,24.1364907 81.4958065,1.1913354 53.1282258,1.1913354 L53.1282258,1.1913354 C24.7570968,1.1913354 1.76,24.1364907 1.76,52.4435404 L1.76,52.4435404 Z M14.5341935,66.2031988 L38.3083871,52.5975466 L14.795,43.4368323 L58.1793548,8.80136646 L62.7337097,38.6113043 L79.7890323,25.2658696 L87.6220968,80.1504969 L62.645,70.1330124 L62.5775806,94.0553106 L14.5341935,66.2031988 Z" id="path-5"></path>
        <path d="M1.76,52.4435404 C1.76,80.7488199 24.7570968,103.693975 53.1282258,103.693975 L53.1282258,103.693975 C81.4958065,103.693975 104.496452,80.7488199 104.496452,52.4435404 L104.496452,52.4435404 C104.494677,24.1364907 81.4958065,1.1913354 53.1282258,1.1913354 L53.1282258,1.1913354 C24.7570968,1.1913354 1.76,24.1364907 1.76,52.4435404 M14.5341935,66.2031988 L38.3083871,52.5975466 L14.795,43.4368323 L58.1793548,8.80136646 L62.7337097,38.6113043 L79.7890323,25.2658696 L87.6220968,80.1504969 L62.645,70.1330124 L62.5775806,94.0553106" id="path-7"></path>
        <path d="M1.76,52.4435404 C1.76,80.7488199 24.7570968,103.693975 53.1282258,103.693975 L53.1282258,103.693975 C81.4958065,103.693975 104.496452,80.7488199 104.496452,52.4435404 L104.496452,52.4435404 C104.494677,24.1364907 81.4958065,1.1913354 53.1282258,1.1913354 L53.1282258,1.1913354 C24.7570968,1.1913354 1.76,24.1364907 1.76,52.4435404 M14.5341935,66.2031988 L38.3083871,52.5975466 L14.795,43.4368323 L58.1793548,8.80136646 L62.7337097,38.6113043 L79.7890323,25.2658696 L87.6220968,80.1504969 L62.645,70.1330124 L62.5775806,94.0553106" id="path-9"></path>
        <path d="M1.76,52.4435404 C1.76,80.7488199 24.7570968,103.693975 53.1282258,103.693975 L53.1282258,103.693975 C81.4958065,103.693975 104.496452,80.7488199 104.496452,52.4435404 L104.496452,52.4435404 C104.494677,24.1364907 81.4958065,1.1913354 53.1282258,1.1913354 L53.1282258,1.1913354 C24.7570968,1.1913354 1.76,24.1364907 1.76,52.4435404 M14.5341935,66.2031988 L38.3083871,52.5975466 L14.795,43.4368323 L58.1793548,8.80136646 L62.7337097,38.6113043 L79.7890323,25.2658696 L87.6220968,80.1504969 L62.645,70.1330124 L62.5775806,94.0553106" id="path-11"></path>
        <path d="M1.76,52.4435404 C1.76,80.7488199 24.7570968,103.693975 53.1282258,103.693975 L53.1282258,103.693975 C81.4958065,103.693975 104.496452,80.7488199 104.496452,52.4435404 L104.496452,52.4435404 C104.494677,24.1364907 81.4958065,1.1913354 53.1282258,1.1913354 L53.1282258,1.1913354 C24.7570968,1.1913354 1.76,24.1364907 1.76,52.4435404 M14.5341935,66.2031988 L38.3083871,52.5975466 L14.795,43.4368323 L58.1793548,8.80136646 L62.7337097,38.6113043 L79.7890323,25.2658696 L87.6220968,80.1504969 L62.645,70.1330124 L62.5775806,94.0553106" id="path-13"></path>
        <path d="M1.76,52.4435404 C1.76,80.7488199 24.7570968,103.693975 53.1282258,103.693975 L53.1282258,103.693975 C81.4958065,103.693975 104.496452,80.7488199 104.496452,52.4435404 L104.496452,52.4435404 C104.494677,24.1364907 81.4958065,1.1913354 53.1282258,1.1913354 L53.1282258,1.1913354 C24.7570968,1.1913354 1.76,24.1364907 1.76,52.4435404 M14.5341935,66.2031988 L38.3083871,52.5975466 L14.795,43.4368323 L58.1793548,8.80136646 L62.7337097,38.6113043 L79.7890323,25.2658696 L87.6220968,80.1504969 L62.645,70.1330124 L62.5775806,94.0553106" id="path-15"></path>
        <path d="M1.76,52.4435404 C1.76,80.7488199 24.7570968,103.693975 53.1282258,103.693975 L53.1282258,103.693975 C81.4958065,103.693975 104.496452,80.7488199 104.496452,52.4435404 L104.496452,52.4435404 C104.494677,24.1364907 81.4958065,1.1913354 53.1282258,1.1913354 L53.1282258,1.1913354 C24.7570968,1.1913354 1.76,24.1364907 1.76,52.4435404 L1.76,52.4435404 Z M14.5341935,66.2031988 L38.3083871,52.5975466 L14.795,43.4368323 L58.1793548,8.80136646 L62.7337097,38.6113043 L79.7890323,25.2658696 L87.6220968,80.1504969 L62.645,70.1330124 L62.5775806,94.0553106 L14.5341935,66.2031988 Z" id="path-17"></path>
        <path d="M1.76,52.4435404 C1.76,80.7488199 24.7570968,103.693975 53.1282258,103.693975 L53.1282258,103.693975 C81.4958065,103.693975 104.496452,80.7488199 104.496452,52.4435404 L104.496452,52.4435404 C104.494677,24.1364907 81.4958065,1.1913354 53.1282258,1.1913354 L53.1282258,1.1913354 C24.7570968,1.1913354 1.76,24.1364907 1.76,52.4435404 L1.76,52.4435404 Z M14.5341935,66.2031988 L38.3083871,52.5975466 L14.795,43.4368323 L58.1793548,8.80136646 L62.7337097,38.6113043 L79.7890323,25.2658696 L87.6220968,80.1504969 L62.645,70.1330124 L62.5775806,94.0553106 L14.5341935,66.2031988 Z" id="path-19"></path>
        <path d="M1.76,52.4435404 C1.76,80.7488199 24.7570968,103.693975 53.1282258,103.693975 L53.1282258,103.693975 C81.4958065,103.693975 104.496452,80.7488199 104.496452,52.4435404 L104.496452,52.4435404 C104.494677,24.1364907 81.4958065,1.1913354 53.1282258,1.1913354 L53.1282258,1.1913354 C24.7570968,1.1913354 1.76,24.1364907 1.76,52.4435404 M14.5341935,66.2031988 L38.3083871,52.5975466 L14.795,43.4368323 L58.1793548,8.80136646 L62.7337097,38.6113043 L79.7890323,25.2658696 L87.6220968,80.1504969 L62.645,70.1330124 L62.5775806,94.0553106" id="path-21"></path>
        <path d="M1.76,52.4435404 C1.76,80.7488199 24.7570968,103.693975 53.1282258,103.693975 L53.1282258,103.693975 C81.4958065,103.693975 104.496452,80.7488199 104.496452,52.4435404 L104.496452,52.4435404 C104.494677,24.1364907 81.4958065,1.1913354 53.1282258,1.1913354 L53.1282258,1.1913354 C24.7570968,1.1913354 1.76,24.1364907 1.76,52.4435404 M14.5341935,66.2031988 L38.3083871,52.5975466 L14.795,43.4368323 L58.1793548,8.80136646 L62.7337097,38.6113043 L79.7890323,25.2658696 L87.6220968,80.1504969 L62.645,70.1330124 L62.5775806,94.0553106" id="path-23"></path>
        <path d="M1.76,52.4435404 C1.76,80.7488199 24.7570968,103.693975 53.1282258,103.693975 L53.1282258,103.693975 C81.4958065,103.693975 104.496452,80.7488199 104.496452,52.4435404 L104.496452,52.4435404 C104.494677,24.1364907 81.4958065,1.1913354 53.1282258,1.1913354 L53.1282258,1.1913354 C24.7570968,1.1913354 1.76,24.1364907 1.76,52.4435404 L1.76,52.4435404 Z M14.5341935,66.2031988 L38.3083871,52.5975466 L14.795,43.4368323 L58.1793548,8.80136646 L62.7337097,38.6113043 L79.7890323,25.2658696 L87.6220968,80.1504969 L62.645,70.1330124 L62.5775806,94.0553106 L14.5341935,66.2031988 Z" id="path-25"></path>
        <path d="M1.76,52.4435404 C1.76,80.7488199 24.7570968,103.693975 53.1282258,103.693975 L53.1282258,103.693975 C81.4958065,103.693975 104.496452,80.7488199 104.496452,52.4435404 L104.496452,52.4435404 C104.494677,24.1364907 81.4958065,1.1913354 53.1282258,1.1913354 L53.1282258,1.1913354 C24.7570968,1.1913354 1.76,24.1364907 1.76,52.4435404 L1.76,52.4435404 Z M14.5341935,66.2031988 L38.3083871,52.5975466 L14.795,43.4368323 L58.1793548,8.80136646 L62.7337097,38.6113043 L79.7890323,25.2658696 L87.6220968,80.1504969 L62.645,70.1330124 L62.5775806,94.0553106 L14.5341935,66.2031988 Z" id="path-27"></path>
        <path d="M1.76,52.4435404 C1.76,80.7488199 24.7570968,103.693975 53.1282258,103.693975 L53.1282258,103.693975 C81.4958065,103.693975 104.496452,80.7488199 104.496452,52.4435404 L104.496452,52.4435404 C104.494677,24.1364907 81.4958065,1.1913354 53.1282258,1.1913354 L53.1282258,1.1913354 C24.7570968,1.1913354 1.76,24.1364907 1.76,52.4435404 L1.76,52.4435404 Z M14.5341935,66.2031988 L38.3083871,52.5975466 L14.795,43.4368323 L58.1793548,8.80136646 L62.7337097,38.6113043 L79.7890323,25.2658696 L87.6220968,80.1504969 L62.645,70.1330124 L62.5775806,94.0553106 L14.5341935,66.2031988 Z" id="path-29"></path>
        <path d="M1.76,52.4435404 C1.76,80.7488199 24.7570968,103.693975 53.1282258,103.693975 L53.1282258,103.693975 C81.4958065,103.693975 104.496452,80.7488199 104.496452,52.4435404 L104.496452,52.4435404 C104.494677,24.1364907 81.4958065,1.1913354 53.1282258,1.1913354 L53.1282258,1.1913354 C24.7570968,1.1913354 1.76,24.1364907 1.76,52.4435404 L1.76,52.4435404 Z M14.5341935,66.2031988 L38.3083871,52.5975466 L14.795,43.4368323 L58.1793548,8.80136646 L62.7337097,38.6113043 L79.7890323,25.2658696 L87.6220968,80.1504969 L62.645,70.1330124 L62.5775806,94.0553106 L14.5341935,66.2031988 Z" id="path-31"></path>
    </defs>
    <g id="Page-1" stroke="none" stroke-width="1" fill="none" fill-rule="evenodd">
        <g id="Group-2-Copy" transform="translate(-2.000000, -1.000000)">
            <path d="M124.936758,42.9583416 C124.936758,49.9027826 129.622403,54.703528 135.940306,54.703528 C141.986758,54.703528 146.947403,50.7507019 146.947403,43.0114472 C146.947403,35.1606708 141.986758,31.2644907 135.940306,31.2644907 C129.730629,31.2662609 124.936758,36.0121304 124.936758,42.9583416 L124.936758,42.9583416 Z M124.879984,17.4340248 L124.879984,35.1642112 C127.060468,30.6484658 131.419661,28.6145217 136.048532,28.6145217 C143.567565,28.6145217 149.559016,33.8117888 149.559016,43.0149876 C149.559016,52.2766025 143.62079,57.4154534 136.103532,57.4154534 C131.526113,57.4154534 127.113694,55.0434037 124.879984,50.809118 L124.879984,56.9640559 L122.268371,56.9640559 L122.268371,17.4340248 L124.879984,17.4340248 Z" id="Fill-2" fill="#FFFFFF"></path>
            <path d="M177.63279,43.0700404 C177.63279,35.8441398 172.482306,31.1549161 166.141339,31.1549161 C159.803919,31.1549161 154.65521,35.8441398 154.65521,43.0700404 C154.65521,50.2977112 159.803919,54.6488292 166.141339,54.6488292 C172.484081,54.6488292 177.63279,50.2977112 177.63279,43.0700404 M151.937145,43.0700404 C151.937145,34.2067174 158.278113,28.559823 166.141339,28.559823 C174.011661,28.559823 180.349081,34.2067174 180.349081,43.0700404 C180.349081,51.9351335 174.011661,57.3572143 166.141339,57.3572143 C158.278113,57.3572143 151.937145,51.9351335 151.937145,43.0700404" id="Fill-4" fill="#FFFFFF"></path>
            <path d="M208.450355,43.0700404 C208.450355,35.8441398 203.301645,31.1549161 196.958903,31.1549161 C190.61971,31.1549161 185.471,35.8441398 185.471,43.0700404 C185.471,50.2977112 190.61971,54.6488292 196.958903,54.6488292 C203.301645,54.6488292 208.450355,50.2977112 208.450355,43.0700404 M182.75471,43.0700404 C182.75471,34.2067174 189.093903,28.559823 196.958903,28.559823 C204.829226,28.559823 211.164871,34.2067174 211.164871,43.0700404 C211.164871,51.9351335 204.827452,57.3572143 196.958903,57.3572143 C189.095677,57.3572143 182.75471,51.9351335 182.75471,43.0700404" id="Fill-6" fill="#FFFFFF"></path>
            <path d="M216.728742,29.0664503 L216.728742,34.0353634 C218.879065,30.1958292 222.784065,28.6150528 226.690839,28.560177 C234.160194,28.560177 239.310677,33.1343385 239.310677,40.8700528 L239.310677,56.9610466 L236.537613,56.9610466 L236.537613,40.9249286 C236.537613,34.601823 232.632613,31.2119161 226.57729,31.2685621 C220.804065,31.3252081 216.783742,35.6745559 216.783742,41.432972 L216.783742,56.9610466 L214.010677,56.9610466 L214.010677,29.0664503 L216.728742,29.0664503 Z" id="Fill-8" fill="#FFFFFF"></path>
            <path d="M266.532129,53.0659286 C263.704065,55.8876056 260.024387,57.2435683 256.342935,57.2435683 C248.476161,57.2435683 241.968419,51.8232578 241.968419,43.0130404 C241.968419,34.2045932 248.250839,28.7825124 256.342935,28.7825124 C260.022613,28.7825124 263.704065,30.1933509 266.532129,32.9601522 L264.720677,34.7108665 C262.458581,32.4521087 259.343097,31.3793758 256.342935,31.3793758 C250.005516,31.3793758 244.682935,35.5021398 244.682935,43.0112702 C244.682935,50.523941 250.005516,54.6449348 256.342935,54.6449348 C259.343097,54.6449348 262.400032,53.4589099 264.663903,51.198382 L266.532129,53.0659286 Z" id="Fill-10" fill="#FFFFFF"></path>
            <path d="M293.221145,43.0700404 C293.221145,35.8441398 288.070661,31.1549161 281.729694,31.1549161 C275.3905,31.1549161 270.24179,35.8441398 270.24179,43.0700404 C270.24179,50.2977112 275.3905,54.6488292 281.729694,54.6488292 C288.070661,54.6488292 293.221145,50.2977112 293.221145,43.0700404 M267.523726,43.0700404 C267.523726,34.2067174 273.862919,28.559823 281.729694,28.559823 C289.598242,28.559823 295.937435,34.2067174 295.937435,43.0700404 C295.937435,51.9351335 289.598242,57.3572143 281.729694,57.3572143 C273.864694,57.3572143 267.523726,51.9351335 267.523726,43.0700404" id="Fill-12" fill="#FFFFFF"></path>
            <path d="M301.934565,29.0664503 L301.934565,34.0353634 C304.086661,30.1958292 307.991661,28.6150528 311.896661,28.560177 C319.36779,28.560177 324.5165,33.1343385 324.5165,40.8700528 L324.5165,56.9610466 L321.743435,56.9610466 L321.743435,40.9249286 C321.743435,34.601823 317.838435,31.2119161 311.783113,31.2685621 C306.009887,31.3252081 301.991339,35.6745559 301.991339,41.432972 L301.991339,56.9610466 L299.218274,56.9610466 L299.218274,29.0664503 L301.934565,29.0664503 Z" id="Fill-14" fill="#FFFFFF"></path>
            <path d="M127.040952,75.5595093 L134.203371,75.5595093 C140.315468,75.5595093 140.279984,66.6112174 134.203371,66.6112174 L127.040952,66.6112174 L127.040952,75.5595093 Z M134.203371,79.9247888 L127.040952,79.9247888 L127.040952,87.3595714 L122.268371,87.3595714 L122.268371,62.0972422 C126.247887,62.0972422 130.225629,62.0600683 134.203371,62.0600683 C146.573048,62.0600683 146.608532,79.9247888 134.203371,79.9247888 L134.203371,79.9247888 Z" id="Fill-16" fill="#FFFFFF"></path>
            <path d="M145.867097,62.0979503 L150.605968,62.0979503 L150.605968,87.3602795 L145.867097,87.3602795 L145.867097,62.0979503 Z" id="Fill-18" fill="#FFFFFF"></path>
            <path d="M171.380532,62.0981273 L176.625048,62.0981273 L176.625048,62.3140901 L168.052145,74.5850217 L176.880532,87.2153012 L176.880532,87.3586863 L171.526016,87.3586863 L165.051984,77.8687174 L158.576177,87.3586863 L153.221661,87.3586863 L153.221661,87.2153012 L162.01279,74.5850217 L153.475371,62.3140901 L153.475371,62.0981273 L158.723435,62.0981273 L165.051984,71.519059 L171.380532,62.0981273 Z" id="Fill-20" fill="#FFFFFF"></path>
            <path d="M197.693065,87.3608106 L178.737581,87.3608106 L178.737581,62.0984814 L197.693065,62.0984814 L197.693065,66.7168975 L183.476452,66.7168975 L183.476452,72.5284193 L197.185645,72.5284193 L197.185645,76.9662764 L183.476452,76.9662764 L183.476452,82.6698168 L197.693065,82.6698168 L197.693065,87.3608106 Z" id="Fill-21" fill="#FFFFFF"></path>
            <path d="M205.266565,62.0981273 L205.266565,82.9580031 L218.287371,82.9580031 L218.287371,87.3586863 L200.49221,87.3586863 L200.49221,62.0981273 L205.266565,62.0981273 Z" id="Fill-22" fill="#FFFFFF"></path>
            <path d="M236.389468,68.1962422 C235.523661,66.7517702 233.133823,65.381646 230.385597,65.381646 C226.840758,65.381646 225.142855,66.8597516 225.142855,68.7379193 C225.142855,70.9400311 227.745597,71.5542857 230.783016,71.9136335 C236.06479,72.5632919 240.984629,73.9351863 240.984629,79.9609006 C240.984629,85.5900932 235.993823,88.0099379 230.350113,88.0099379 C225.178339,88.0099379 221.200597,86.4220807 219.318177,81.8018944 L223.295919,79.7449379 C224.415435,82.5241304 227.348177,83.7508696 230.422855,83.7508696 C233.42479,83.7508696 236.245758,82.7046894 236.245758,79.9609006 C236.245758,77.58 233.749468,76.6046273 230.385597,76.2452795 C225.213823,75.6310248 220.437694,74.2573602 220.437694,68.5909938 C220.437694,63.3954969 225.573984,61.2677329 230.240113,61.230559 C234.184145,61.230559 238.271887,62.3475466 240.188016,66.2472671 L236.389468,68.1962422 Z" id="Fill-23" fill="#FFFFFF"></path>
            <path d="M63.5308548,70.4126925 L63.4652097,94.3349907 L15.4218226,66.4828789 L39.1942419,52.8772267 L15.682629,43.7165124 L59.0669839,9.0792764 L63.6213387,38.8909845 L80.6748871,25.5455497 L88.5097258,80.430177 L63.5308548,70.4126925 Z M54.0140806,1.47101553 C25.6447258,1.47101553 2.64762903,24.4161708 2.64762903,52.7214503 C2.64762903,81.0285 25.6447258,103.973655 54.0140806,103.973655 C82.3834355,103.973655 105.382306,81.0285 105.382306,52.7214503 C105.380532,24.4161708 82.3834355,1.47101553 54.0140806,1.47101553 L54.0140806,1.47101553 Z" id="Fill-24" fill="#FFFFFF"></path>
            <g id="Group-28" transform="translate(0.887097, 0.279503)">
                <mask id="mask-2" fill="white">
                    <use xlink:href="#path-1"></use>
                </mask>
                <g id="Clip-27"></g>
                <path d="M53.1276935,1.19080435 C81.4970484,1.19080435 104.495919,24.1377298 104.495919,52.4430093 C104.495919,80.7482888 81.4970484,103.695214 53.1276935,103.695214 C24.7583387,103.695214 1.75946774,80.7482888 1.75946774,52.4430093 C1.75946774,24.1377298 24.7583387,1.19080435 53.1276935,1.19080435" id="Fill-26" fill="#FFFFFF" mask="url(#mask-2)"></path>
            </g>
            <g id="Group-31" transform="translate(0.887097, 0.279503)">
                <mask id="mask-4" fill="white">
                    <use xlink:href="#path-3"></use>
                </mask>
                <g id="Clip-30"></g>
                <path d="M53.1276935,1.19080435 C81.4970484,1.19080435 104.495919,24.1377298 104.495919,52.4430093 C104.495919,80.7482888 81.4970484,103.695214 53.1276935,103.695214 C24.7583387,103.695214 1.75946774,80.7482888 1.75946774,52.4430093 C1.75946774,24.1377298 24.7583387,1.19080435 53.1276935,1.19080435" id="Fill-29" fill="#FFFFFF" mask="url(#mask-4)"></path>
            </g>
            <g id="Group-34" transform="translate(0.887097, 0.279503)">
                <mask id="mask-6" fill="white">
                    <use xlink:href="#path-5"></use>
                </mask>
                <g id="Clip-33"></g>
                <path d="M94.4484839,82.8841957 C100.75929,74.3713696 104.495742,63.8440714 104.495742,52.4405311 C104.495742,38.7162764 99.0773548,26.2630155 90.2738065,17.061587 L36.066871,59.4770217 L94.4484839,82.8841957 Z" id="Fill-32" fill="#FFFFFF" mask="url(#mask-6)"></path>
            </g>
            <g id="Group-37" transform="translate(0.887097, 0.279503)">
                <mask id="mask-8" fill="white">
                    <use xlink:href="#path-7"></use>
                </mask>
                <g id="Clip-36"></g>
                <path d="M3.54253226,39.0522578 L66.5530161,63.602972 L57.0433387,1.35436957 C55.7481774,1.25700932 54.4459194,1.19151242 53.1276935,1.19151242 C29.4014032,1.19151242 9.44527419,17.2417919 3.54253226,39.0522578" id="Fill-35" fill="#FFFFFF" mask="url(#mask-8)"></path>
            </g>
            <g id="Group-40" transform="translate(0.887097, 0.279503)">
                <mask id="mask-10" fill="white">
                    <use xlink:href="#path-9"></use>
                </mask>
                <g id="Clip-39"></g>
                <path d="M53.1276935,103.692736 C56.349629,103.692736 59.4970484,103.382953 62.5557581,102.816494 L62.7331774,38.6189161 L5.41430645,71.4240093 C12.9759194,90.3295994 31.4825323,103.692736 53.1276935,103.692736" id="Fill-38" fill="#FFFFFF" mask="url(#mask-10)"></path>
            </g>
            <g id="Group-43" transform="translate(0.887097, 0.279503)">
                <mask id="mask-12" fill="white">
                    <use xlink:href="#path-11"></use>
                </mask>
                <g id="Clip-42"></g>
                <path d="M56.9933065,1.35029814 L62.7044355,38.6339627 L90.273629,17.0642422 C81.7521774,8.16020497 70.0566935,2.32036025 56.9933065,1.35029814" id="Fill-41" fill="#FFFFFF" mask="url(#mask-12)"></path>
            </g>
            <g id="Group-46" transform="translate(0.887097, 0.279503)">
                <mask id="mask-14" fill="white">
                    <use xlink:href="#path-13"></use>
                </mask>
                <g id="Clip-45"></g>
                <path d="M77.2045645,7.16854658 L88.9142419,89.1936708 C98.5179516,79.8789503 104.493435,66.861 104.493435,52.4428323 C104.493435,32.8185466 93.4366613,15.7787329 77.2045645,7.16854658" id="Fill-44" fill="#FFFFFF" mask="url(#mask-14)"></path>
            </g>
            <g id="Group-49" transform="translate(0.887097, 0.279503)">
                <mask id="mask-16" fill="white">
                    <use xlink:href="#path-15"></use>
                </mask>
                <g id="Clip-48"></g>
                <path d="M53.1276935,1.19080435 C24.7565645,1.19080435 1.75946774,24.1359596 1.75946774,52.4430093 C1.75946774,52.9067981 1.78253226,53.3652764 1.79495161,53.8255248 L65.7014032,2.74325776 C61.6775323,1.73248137 57.4655968,1.19080435 53.1276935,1.19080435" id="Fill-47" fill="#FFFFFF" mask="url(#mask-16)"></path>
            </g>
            <g id="Group-52" transform="translate(0.887097, 0.279503)">
                <mask id="mask-18" fill="white">
                    <use xlink:href="#path-17"></use>
                </mask>
                <g id="Clip-51"></g>
                <path d="M2.19662903,59.0227919 C5.43630645,84.217854 26.9945323,103.695214 53.1284032,103.695214 C60.0229194,103.695214 66.5945323,102.32863 72.6019516,99.8716118 L2.19662903,59.0227919 Z" id="Fill-50" fill="#FFFFFF" mask="url(#mask-18)"></path>
            </g>
            <g id="Group-59" transform="translate(0.887097, 0.279503)">
                <g id="Group-55">
                    <mask id="mask-20" fill="white">
                        <use xlink:href="#path-19"></use>
                    </mask>
                    <g id="Clip-54"></g>
                    <path d="M62.5530968,102.817556 C75.5739032,100.406562 86.8719677,93.1063137 94.4477742,82.8834876 L62.6435806,70.1328354 L62.5530968,102.817556 Z" id="Fill-53" fill="#FFFFFF" mask="url(#mask-20)"></path>
                </g>
                <g id="Group-58">
                    <mask id="mask-22" fill="white">
                        <use xlink:href="#path-21"></use>
                    </mask>
                    <g id="Clip-57"></g>
                    <path d="M5.41945161,71.4406491 L14.5742903,66.2062081 L2.19396774,59.0210217 C2.75283871,63.3544379 3.84929032,67.516146 5.41945161,71.4406491" id="Fill-56" fill="#FFFFFF" mask="url(#mask-22)"></path>
                </g>
            </g>
            <g id="Group-62" transform="translate(0.887097, 0.279503)">
                <mask id="mask-24" fill="white">
                    <use xlink:href="#path-23"></use>
                </mask>
                <g id="Clip-61"></g>
                <path d="M1.79530645,53.8264099 L14.7948226,43.4619689 L3.54466129,39.0471242 C2.3878871,43.3185839 1.75982258,47.8060062 1.75982258,52.4421242 C1.75982258,52.905913 1.7828871,53.3643913 1.79530645,53.8264099" id="Fill-60" fill="#FFFFFF" mask="url(#mask-24)"></path>
            </g>
            <g id="Group-65" transform="translate(0.887097, 0.279503)">
                <mask id="mask-26" fill="white">
                    <use xlink:href="#path-25"></use>
                </mask>
                <g id="Clip-64"></g>
                <path d="M79.7881452,25.2736584 L90.273629,17.0653043 C86.4892742,13.1107081 82.0839516,9.75620497 77.2049194,7.16819255 L79.7881452,25.2736584 Z" id="Fill-63" fill="#FFFFFF" mask="url(#mask-26)"></path>
            </g>
            <g id="Group-68" transform="translate(0.887097, 0.279503)">
                <mask id="mask-28" fill="white">
                    <use xlink:href="#path-27"></use>
                </mask>
                <g id="Clip-67"></g>
                <path d="M65.7209194,2.74821429 C62.8981774,2.04013975 59.979629,1.57104037 56.9936613,1.34976708 L58.1397903,8.83234472 L65.7209194,2.74821429 Z" id="Fill-66" fill="#FFFFFF" mask="url(#mask-28)"></path>
            </g>
            <g id="Group-75" transform="translate(0.887097, 0.279503)">
                <g id="Group-71">
                    <mask id="mask-30" fill="white">
                        <use xlink:href="#path-29"></use>
                    </mask>
                    <g id="Clip-70"></g>
                    <path d="M62.601,94.0386708 L62.5566452,102.815255 C66.0482581,102.169137 69.4139032,101.174292 72.619871,99.864354 L62.601,94.0386708 Z" id="Fill-69" fill="#FFFFFF" mask="url(#mask-30)"></path>
                </g>
                <g id="Group-74">
                    <mask id="mask-32" fill="white">
                        <use xlink:href="#path-31"></use>
                    </mask>
                    <g id="Clip-73"></g>
                    <path d="M87.622629,80.1485497 L88.9231129,89.1818106 L88.9248871,89.1800404 C89.8989194,88.2329907 90.8374677,87.2452267 91.7352097,86.2255994 C91.7902097,86.1636429 91.8452097,86.0999161 91.9002097,86.0361894 C92.7873065,85.0183323 93.6424677,83.970382 94.4461774,82.8834876 L87.622629,80.1485497 Z" id="Fill-72" fill="#FFFFFF" mask="url(#mask-32)"></path>
                </g>
            </g>
            <path d="M67.4408226,63.8838913 L63.6209839,38.8906304 L63.5925968,38.9136429 L39.1938871,52.8786429 L43.5672742,54.5815621 L36.9530806,59.7558168 L63.5305,70.4123385 L63.5517903,62.3686118 L67.4408226,63.8838913 Z" id="Fill-76" fill="#FFFFFF"></path>
        </g>
    </g>
</svg>