<?xml version="1.0" encoding="utf-8"?>
<!-- Generator: Adobe Illustrator 19.2.1, SVG Export Plug-In . SVG Version: 6.00 Build 0)  -->
<svg version="1.1" id="Layer_1" xmlns="http://www.w3.org/2000/svg" xmlns:xlink="http://www.w3.org/1999/xlink" x="0px" y="0px"
	 viewBox="0 0 773 228" style="enable-background:new 0 0 773 228;" xml:space="preserve">
<style type="text/css">
	.st0{fill:#E24B70;}
	.st1{fill:#FFFFFF;}
	.st2{filter:url(#Adobe_OpacityMaskFilter);}
	.st3{mask:url(#mask-2);fill:#FFFFFF;}
	.st4{filter:url(#Adobe_OpacityMaskFilter_1_);}
	.st5{mask:url(#mask-4);fill:#FFFFFF;}
	.st6{filter:url(#Adobe_OpacityMaskFilter_2_);}
	.st7{mask:url(#mask-6);fill:#FFFFFF;}
	.st8{filter:url(#Adobe_OpacityMaskFilter_3_);}
	.st9{mask:url(#mask-8);fill:#FFFFFF;}
	.st10{filter:url(#Adobe_OpacityMaskFilter_4_);}
	.st11{mask:url(#mask-10);fill:#FFFFFF;}
	.st12{filter:url(#Adobe_OpacityMaskFilter_5_);}
	.st13{mask:url(#mask-12);fill:#FFFFFF;}
	.st14{filter:url(#Adobe_OpacityMaskFilter_6_);}
	.st15{mask:url(#mask-14);fill:#FFFFFF;}
	.st16{filter:url(#Adobe_OpacityMaskFilter_7_);}
	.st17{mask:url(#mask-16);fill:#FFFFFF;}
	.st18{filter:url(#Adobe_OpacityMaskFilter_8_);}
	.st19{mask:url(#mask-18);fill:#FFFFFF;}
	.st20{filter:url(#Adobe_OpacityMaskFilter_9_);}
	.st21{mask:url(#mask-20);fill:#FFFFFF;}
	.st22{filter:url(#Adobe_OpacityMaskFilter_10_);}
	.st23{mask:url(#mask-22);fill:#FFFFFF;}
	.st24{filter:url(#Adobe_OpacityMaskFilter_11_);}
	.st25{mask:url(#mask-24);fill:#FFFFFF;}
	.st26{filter:url(#Adobe_OpacityMaskFilter_12_);}
	.st27{mask:url(#mask-26);fill:#FFFFFF;}
	.st28{filter:url(#Adobe_OpacityMaskFilter_13_);}
	.st29{mask:url(#mask-28);fill:#FFFFFF;}
	.st30{filter:url(#Adobe_OpacityMaskFilter_14_);}
	.st31{mask:url(#mask-30);fill:#FFFFFF;}
	.st32{filter:url(#Adobe_OpacityMaskFilter_15_);}
	.st33{mask:url(#mask-32);fill:#FFFFFF;}
	.st34{enable-background:new    ;}
	.st35{font-family:'Lato-Regular';}
	.st36{font-size:32px;}
	.st37{letter-spacing:3;}
</style>
<title>itewiki</title>
<desc>Created with Sketch.</desc>
<g id="Page-1">
	<g id="ICTexpo-2" transform="translate(-2027.000000, 0.000000)">
		<polygon id="Fill-1" class="st0" points="2027,227.6 2800.7,227.6 2800.7,0 2027,0 		"/>
		<g id="Group-2" transform="translate(2401.000000, 61.000000)">
			<path id="Fill-2" class="st1" d="M124.9,43c0,6.9,4.7,11.7,11,11.7c6,0,11-4,11-11.7c0-7.9-5-11.7-11-11.7
				C129.7,31.3,124.9,36,124.9,43L124.9,43z M124.9,17.4v17.7c2.2-4.5,6.5-6.5,11.2-6.5c7.5,0,13.5,5.2,13.5,14.4
				c0,9.3-5.9,14.4-13.5,14.4c-4.6,0-9-2.4-11.2-6.6V57h-2.6V17.4H124.9z"/>
			<path id="Fill-4" class="st1" d="M177.6,43.1c0-7.2-5.2-11.9-11.5-11.9c-6.3,0-11.5,4.7-11.5,11.9c0,7.2,5.1,11.6,11.5,11.6
				C172.5,54.6,177.6,50.3,177.6,43.1 M151.9,43.1c0-8.9,6.3-14.5,14.2-14.5c7.9,0,14.2,5.6,14.2,14.5c0,8.9-6.3,14.3-14.2,14.3
				C158.3,57.4,151.9,51.9,151.9,43.1"/>
			<path id="Fill-6" class="st1" d="M208.5,43.1c0-7.2-5.1-11.9-11.5-11.9c-6.3,0-11.5,4.7-11.5,11.9c0,7.2,5.1,11.6,11.5,11.6
				C203.3,54.6,208.5,50.3,208.5,43.1 M182.8,43.1c0-8.9,6.3-14.5,14.2-14.5c7.9,0,14.2,5.6,14.2,14.5c0,8.9-6.3,14.3-14.2,14.3
				C189.1,57.4,182.8,51.9,182.8,43.1"/>
			<path id="Fill-8" class="st1" d="M216.7,29.1v5c2.2-3.8,6.1-5.4,10-5.5c7.5,0,12.6,4.6,12.6,12.3V57h-2.8v-16
				c0-6.3-3.9-9.7-10-9.7c-5.8,0.1-9.8,4.4-9.8,10.2V57H214V29.1H216.7z"/>
			<path id="Fill-10" class="st1" d="M266.5,53.1c-2.8,2.8-6.5,4.2-10.2,4.2c-7.9,0-14.4-5.4-14.4-14.2c0-8.8,6.3-14.2,14.4-14.2
				c3.7,0,7.4,1.4,10.2,4.2l-1.8,1.8c-2.3-2.3-5.4-3.3-8.4-3.3c-6.3,0-11.7,4.1-11.7,11.6c0,7.5,5.3,11.6,11.7,11.6
				c3,0,6.1-1.2,8.3-3.4L266.5,53.1z"/>
			<path id="Fill-12" class="st1" d="M293.2,43.1c0-7.2-5.2-11.9-11.5-11.9c-6.3,0-11.5,4.7-11.5,11.9c0,7.2,5.1,11.6,11.5,11.6
				C288.1,54.6,293.2,50.3,293.2,43.1 M267.5,43.1c0-8.9,6.3-14.5,14.2-14.5c7.9,0,14.2,5.6,14.2,14.5c0,8.9-6.3,14.3-14.2,14.3
				C273.9,57.4,267.5,51.9,267.5,43.1"/>
			<path id="Fill-14" class="st1" d="M301.9,29.1v5c2.2-3.8,6.1-5.4,10-5.5c7.5,0,12.6,4.6,12.6,12.3V57h-2.8v-16
				c0-6.3-3.9-9.7-10-9.7c-5.8,0.1-9.8,4.4-9.8,10.2V57h-2.8V29.1H301.9z"/>
			<path id="Fill-16" class="st1" d="M127,75.6h7.2c6.1,0,6.1-8.9,0-8.9H127V75.6z M134.2,79.9H127v7.4h-4.8V62.1c4,0,8,0,11.9,0
				C146.6,62.1,146.6,79.9,134.2,79.9L134.2,79.9z"/>
			<polygon id="Fill-18" class="st1" points="145.9,62.1 150.6,62.1 150.6,87.4 145.9,87.4 			"/>
			<polygon id="Fill-20" class="st1" points="171.4,62.1 176.6,62.1 176.6,62.3 168.1,74.6 176.9,87.2 176.9,87.4 171.5,87.4 
				165.1,77.9 158.6,87.4 153.2,87.4 153.2,87.2 162,74.6 153.5,62.3 153.5,62.1 158.7,62.1 165.1,71.5 			"/>
			<polygon id="Fill-21" class="st1" points="197.7,87.4 178.7,87.4 178.7,62.1 197.7,62.1 197.7,66.7 183.5,66.7 183.5,72.5 
				197.2,72.5 197.2,77 183.5,77 183.5,82.7 197.7,82.7 			"/>
			<polygon id="Fill-22" class="st1" points="205.3,62.1 205.3,83 218.3,83 218.3,87.4 200.5,87.4 200.5,62.1 			"/>
			<path id="Fill-23" class="st1" d="M236.4,68.2c-0.9-1.4-3.3-2.8-6-2.8c-3.5,0-5.2,1.5-5.2,3.4c0,2.2,2.6,2.8,5.6,3.2
				c5.3,0.6,10.2,2,10.2,8c0,5.6-5,8-10.6,8c-5.2,0-9.1-1.6-11-6.2l4-2.1c1.1,2.8,4.1,4,7.1,4c3,0,5.8-1,5.8-3.8
				c0-2.4-2.5-3.4-5.9-3.7c-5.2-0.6-9.9-2-9.9-7.7c0-5.2,5.1-7.3,9.8-7.4c3.9,0,8,1.1,9.9,5L236.4,68.2z"/>
			<path id="Fill-24" class="st1" d="M63.5,70.4l-0.1,23.9l-48-27.9l23.8-13.6l-23.5-9.2L59.1,9.1l4.6,29.8l17.1-13.3l7.8,54.9
				L63.5,70.4z M54,1.5C25.6,1.5,2.6,24.4,2.6,52.7C2.6,81,25.6,104,54,104s51.4-22.9,51.4-51.3C105.4,24.4,82.4,1.5,54,1.5L54,1.5z
				"/>
			<g id="Group-28" transform="translate(0.887097, 0.279503)">
				<g id="Clip-27">
				</g>
				<defs>
					<filter id="Adobe_OpacityMaskFilter" filterUnits="userSpaceOnUse" x="1.8" y="1.2" width="102.7" height="102.5">
						<feColorMatrix  type="matrix" values="1 0 0 0 0  0 1 0 0 0  0 0 1 0 0  0 0 0 1 0"/>
					</filter>
				</defs>
				<mask maskUnits="userSpaceOnUse" x="1.8" y="1.2" width="102.7" height="102.5" id="mask-2">
					<g class="st2">
						<path id="path-1" class="st1" d="M1.8,52.4c0,28.3,23,51.3,51.4,51.3l0,0c28.4,0,51.4-22.9,51.4-51.3l0,0
							c0-28.3-23-51.3-51.4-51.3l0,0C24.8,1.2,1.8,24.1,1.8,52.4 M14.5,66.2l23.8-13.6l-23.5-9.2L58.2,8.8l4.6,29.8l17.1-13.3
							l7.8,54.9l-25-10l-0.1,23.9"/>
					</g>
				</mask>
				<path id="Fill-26" class="st3" d="M53.1,1.2c28.4,0,51.4,22.9,51.4,51.3s-23,51.3-51.4,51.3S1.8,80.7,1.8,52.4
					S24.8,1.2,53.1,1.2"/>
			</g>
			<g id="Group-31" transform="translate(0.887097, 0.279503)">
				<g id="Clip-30">
				</g>
				<defs>
					<filter id="Adobe_OpacityMaskFilter_1_" filterUnits="userSpaceOnUse" x="1.8" y="1.2" width="102.7" height="102.5">
						<feColorMatrix  type="matrix" values="1 0 0 0 0  0 1 0 0 0  0 0 1 0 0  0 0 0 1 0"/>
					</filter>
				</defs>
				<mask maskUnits="userSpaceOnUse" x="1.8" y="1.2" width="102.7" height="102.5" id="mask-4">
					<g class="st4">
						<path id="path-3" class="st1" d="M1.8,52.4c0,28.3,23,51.3,51.4,51.3l0,0c28.4,0,51.4-22.9,51.4-51.3l0,0
							c0-28.3-23-51.3-51.4-51.3l0,0C24.8,1.2,1.8,24.1,1.8,52.4 M14.5,66.2l23.8-13.6l-23.5-9.2L58.2,8.8l4.6,29.8l17.1-13.3
							l7.8,54.9l-25-10l-0.1,23.9"/>
					</g>
				</mask>
				<path id="Fill-29" class="st5" d="M53.1,1.2c28.4,0,51.4,22.9,51.4,51.3s-23,51.3-51.4,51.3S1.8,80.7,1.8,52.4
					S24.8,1.2,53.1,1.2"/>
			</g>
			<g id="Group-34" transform="translate(0.887097, 0.279503)">
				<g id="Clip-33">
				</g>
				<defs>
					<filter id="Adobe_OpacityMaskFilter_2_" filterUnits="userSpaceOnUse" x="36.1" y="17.1" width="68.4" height="65.8">
						<feColorMatrix  type="matrix" values="1 0 0 0 0  0 1 0 0 0  0 0 1 0 0  0 0 0 1 0"/>
					</filter>
				</defs>
				<mask maskUnits="userSpaceOnUse" x="36.1" y="17.1" width="68.4" height="65.8" id="mask-6">
					<g class="st6">
						<path id="path-5" class="st1" d="M1.8,52.4c0,28.3,23,51.3,51.4,51.3l0,0c28.4,0,51.4-22.9,51.4-51.3l0,0
							c0-28.3-23-51.3-51.4-51.3l0,0C24.8,1.2,1.8,24.1,1.8,52.4L1.8,52.4z M14.5,66.2l23.8-13.6l-23.5-9.2L58.2,8.8l4.6,29.8
							l17.1-13.3l7.8,54.9l-25-10l-0.1,23.9L14.5,66.2z"/>
					</g>
				</mask>
				<path id="Fill-32" class="st7" d="M94.4,82.9c6.3-8.5,10-19,10-30.4c0-13.7-5.4-26.2-14.2-35.4L36.1,59.5L94.4,82.9z"/>
			</g>
			<g id="Group-37" transform="translate(0.887097, 0.279503)">
				<g id="Clip-36">
				</g>
				<defs>
					<filter id="Adobe_OpacityMaskFilter_3_" filterUnits="userSpaceOnUse" x="3.5" y="1.2" width="63" height="62.4">
						<feColorMatrix  type="matrix" values="1 0 0 0 0  0 1 0 0 0  0 0 1 0 0  0 0 0 1 0"/>
					</filter>
				</defs>
				<mask maskUnits="userSpaceOnUse" x="3.5" y="1.2" width="63" height="62.4" id="mask-8">
					<g class="st8">
						<path id="path-7" class="st1" d="M1.8,52.4c0,28.3,23,51.3,51.4,51.3l0,0c28.4,0,51.4-22.9,51.4-51.3l0,0
							c0-28.3-23-51.3-51.4-51.3l0,0C24.8,1.2,1.8,24.1,1.8,52.4 M14.5,66.2l23.8-13.6l-23.5-9.2L58.2,8.8l4.6,29.8l17.1-13.3
							l7.8,54.9l-25-10l-0.1,23.9"/>
					</g>
				</mask>
				<path id="Fill-35" class="st9" d="M3.5,39.1l63,24.6L57,1.4c-1.3-0.1-2.6-0.2-3.9-0.2C29.4,1.2,9.4,17.2,3.5,39.1"/>
			</g>
			<g id="Group-40" transform="translate(0.887097, 0.279503)">
				<g id="Clip-39">
				</g>
				<defs>
					<filter id="Adobe_OpacityMaskFilter_4_" filterUnits="userSpaceOnUse" x="5.4" y="38.6" width="57.3" height="65.1">
						<feColorMatrix  type="matrix" values="1 0 0 0 0  0 1 0 0 0  0 0 1 0 0  0 0 0 1 0"/>
					</filter>
				</defs>
				<mask maskUnits="userSpaceOnUse" x="5.4" y="38.6" width="57.3" height="65.1" id="mask-10">
					<g class="st10">
						<path id="path-9" class="st1" d="M1.8,52.4c0,28.3,23,51.3,51.4,51.3l0,0c28.4,0,51.4-22.9,51.4-51.3l0,0
							c0-28.3-23-51.3-51.4-51.3l0,0C24.8,1.2,1.8,24.1,1.8,52.4 M14.5,66.2l23.8-13.6l-23.5-9.2L58.2,8.8l4.6,29.8l17.1-13.3
							l7.8,54.9l-25-10l-0.1,23.9"/>
					</g>
				</mask>
				<path id="Fill-38" class="st11" d="M53.1,103.7c3.2,0,6.4-0.3,9.4-0.9l0.2-64.2L5.4,71.4C13,90.3,31.5,103.7,53.1,103.7"/>
			</g>
			<g id="Group-43" transform="translate(0.887097, 0.279503)">
				<g id="Clip-42">
				</g>
				<defs>
					<filter id="Adobe_OpacityMaskFilter_5_" filterUnits="userSpaceOnUse" x="57" y="1.4" width="33.3" height="37.3">
						<feColorMatrix  type="matrix" values="1 0 0 0 0  0 1 0 0 0  0 0 1 0 0  0 0 0 1 0"/>
					</filter>
				</defs>
				<mask maskUnits="userSpaceOnUse" x="57" y="1.4" width="33.3" height="37.3" id="mask-12">
					<g class="st12">
						<path id="path-11" class="st1" d="M1.8,52.4c0,28.3,23,51.3,51.4,51.3l0,0c28.4,0,51.4-22.9,51.4-51.3l0,0
							c0-28.3-23-51.3-51.4-51.3l0,0C24.8,1.2,1.8,24.1,1.8,52.4 M14.5,66.2l23.8-13.6l-23.5-9.2L58.2,8.8l4.6,29.8l17.1-13.3
							l7.8,54.9l-25-10l-0.1,23.9"/>
					</g>
				</mask>
				<path id="Fill-41" class="st13" d="M57,1.4l5.7,37.3l27.6-21.6C81.8,8.2,70.1,2.3,57,1.4"/>
			</g>
			<g id="Group-46" transform="translate(0.887097, 0.279503)">
				<g id="Clip-45">
				</g>
				<defs>
					<filter id="Adobe_OpacityMaskFilter_6_" filterUnits="userSpaceOnUse" x="77.2" y="7.2" width="27.3" height="82">
						<feColorMatrix  type="matrix" values="1 0 0 0 0  0 1 0 0 0  0 0 1 0 0  0 0 0 1 0"/>
					</filter>
				</defs>
				<mask maskUnits="userSpaceOnUse" x="77.2" y="7.2" width="27.3" height="82" id="mask-14">
					<g class="st14">
						<path id="path-13" class="st1" d="M1.8,52.4c0,28.3,23,51.3,51.4,51.3l0,0c28.4,0,51.4-22.9,51.4-51.3l0,0
							c0-28.3-23-51.3-51.4-51.3l0,0C24.8,1.2,1.8,24.1,1.8,52.4 M14.5,66.2l23.8-13.6l-23.5-9.2L58.2,8.8l4.6,29.8l17.1-13.3
							l7.8,54.9l-25-10l-0.1,23.9"/>
					</g>
				</mask>
				<path id="Fill-44" class="st15" d="M77.2,7.2l11.7,82c9.6-9.3,15.6-22.3,15.6-36.8C104.5,32.8,93.4,15.8,77.2,7.2"/>
			</g>
			<g id="Group-49" transform="translate(0.887097, 0.279503)">
				<g id="Clip-48">
				</g>
				<defs>
					<filter id="Adobe_OpacityMaskFilter_7_" filterUnits="userSpaceOnUse" x="1.8" y="1.2" width="63.9" height="52.6">
						<feColorMatrix  type="matrix" values="1 0 0 0 0  0 1 0 0 0  0 0 1 0 0  0 0 0 1 0"/>
					</filter>
				</defs>
				<mask maskUnits="userSpaceOnUse" x="1.8" y="1.2" width="63.9" height="52.6" id="mask-16">
					<g class="st16">
						<path id="path-15" class="st1" d="M1.8,52.4c0,28.3,23,51.3,51.4,51.3l0,0c28.4,0,51.4-22.9,51.4-51.3l0,0
							c0-28.3-23-51.3-51.4-51.3l0,0C24.8,1.2,1.8,24.1,1.8,52.4 M14.5,66.2l23.8-13.6l-23.5-9.2L58.2,8.8l4.6,29.8l17.1-13.3
							l7.8,54.9l-25-10l-0.1,23.9"/>
					</g>
				</mask>
				<path id="Fill-47" class="st17" d="M53.1,1.2C24.8,1.2,1.8,24.1,1.8,52.4c0,0.5,0,0.9,0,1.4L65.7,2.7
					C61.7,1.7,57.5,1.2,53.1,1.2"/>
			</g>
			<g id="Group-52" transform="translate(0.887097, 0.279503)">
				<g id="Clip-51">
				</g>
				<defs>
					<filter id="Adobe_OpacityMaskFilter_8_" filterUnits="userSpaceOnUse" x="2.2" y="59" width="70.4" height="44.7">
						<feColorMatrix  type="matrix" values="1 0 0 0 0  0 1 0 0 0  0 0 1 0 0  0 0 0 1 0"/>
					</filter>
				</defs>
				<mask maskUnits="userSpaceOnUse" x="2.2" y="59" width="70.4" height="44.7" id="mask-18">
					<g class="st18">
						<path id="path-17" class="st1" d="M1.8,52.4c0,28.3,23,51.3,51.4,51.3l0,0c28.4,0,51.4-22.9,51.4-51.3l0,0
							c0-28.3-23-51.3-51.4-51.3l0,0C24.8,1.2,1.8,24.1,1.8,52.4L1.8,52.4z M14.5,66.2l23.8-13.6l-23.5-9.2L58.2,8.8l4.6,29.8
							l17.1-13.3l7.8,54.9l-25-10l-0.1,23.9L14.5,66.2z"/>
					</g>
				</mask>
				<path id="Fill-50" class="st19" d="M2.2,59c3.2,25.2,24.8,44.7,50.9,44.7c6.9,0,13.5-1.4,19.5-3.8L2.2,59z"/>
			</g>
			<g id="Group-59" transform="translate(0.887097, 0.279503)">
				<g id="Group-55">
					<g id="Clip-54">
					</g>
					<defs>
						<filter id="Adobe_OpacityMaskFilter_9_" filterUnits="userSpaceOnUse" x="62.6" y="70.1" width="31.9" height="32.7">
							<feColorMatrix  type="matrix" values="1 0 0 0 0  0 1 0 0 0  0 0 1 0 0  0 0 0 1 0"/>
						</filter>
					</defs>
					<mask maskUnits="userSpaceOnUse" x="62.6" y="70.1" width="31.9" height="32.7" id="mask-20">
						<g class="st20">
							<path id="path-19" class="st1" d="M1.8,52.4c0,28.3,23,51.3,51.4,51.3l0,0c28.4,0,51.4-22.9,51.4-51.3l0,0
								c0-28.3-23-51.3-51.4-51.3l0,0C24.8,1.2,1.8,24.1,1.8,52.4L1.8,52.4z M14.5,66.2l23.8-13.6l-23.5-9.2L58.2,8.8l4.6,29.8
								l17.1-13.3l7.8,54.9l-25-10l-0.1,23.9L14.5,66.2z"/>
						</g>
					</mask>
					<path id="Fill-53" class="st21" d="M62.6,102.8c13-2.4,24.3-9.7,31.9-19.9L62.6,70.1L62.6,102.8z"/>
				</g>
				<g id="Group-58">
					<g id="Clip-57">
					</g>
					<defs>
						<filter id="Adobe_OpacityMaskFilter_10_" filterUnits="userSpaceOnUse" x="2.2" y="59" width="12.4" height="12.4">
							<feColorMatrix  type="matrix" values="1 0 0 0 0  0 1 0 0 0  0 0 1 0 0  0 0 0 1 0"/>
						</filter>
					</defs>
					<mask maskUnits="userSpaceOnUse" x="2.2" y="59" width="12.4" height="12.4" id="mask-22">
						<g class="st22">
							<path id="path-21" class="st1" d="M1.8,52.4c0,28.3,23,51.3,51.4,51.3l0,0c28.4,0,51.4-22.9,51.4-51.3l0,0
								c0-28.3-23-51.3-51.4-51.3l0,0C24.8,1.2,1.8,24.1,1.8,52.4 M14.5,66.2l23.8-13.6l-23.5-9.2L58.2,8.8l4.6,29.8l17.1-13.3
								l7.8,54.9l-25-10l-0.1,23.9"/>
						</g>
					</mask>
					<path id="Fill-56" class="st23" d="M5.4,71.4l9.2-5.2L2.2,59C2.8,63.4,3.8,67.5,5.4,71.4"/>
				</g>
			</g>
			<g id="Group-62" transform="translate(0.887097, 0.279503)">
				<g id="Clip-61">
				</g>
				<defs>
					<filter id="Adobe_OpacityMaskFilter_11_" filterUnits="userSpaceOnUse" x="1.8" y="39" width="13" height="14.8">
						<feColorMatrix  type="matrix" values="1 0 0 0 0  0 1 0 0 0  0 0 1 0 0  0 0 0 1 0"/>
					</filter>
				</defs>
				<mask maskUnits="userSpaceOnUse" x="1.8" y="39" width="13" height="14.8" id="mask-24">
					<g class="st24">
						<path id="path-23" class="st1" d="M1.8,52.4c0,28.3,23,51.3,51.4,51.3l0,0c28.4,0,51.4-22.9,51.4-51.3l0,0
							c0-28.3-23-51.3-51.4-51.3l0,0C24.8,1.2,1.8,24.1,1.8,52.4 M14.5,66.2l23.8-13.6l-23.5-9.2L58.2,8.8l4.6,29.8l17.1-13.3
							l7.8,54.9l-25-10l-0.1,23.9"/>
					</g>
				</mask>
				<path id="Fill-60" class="st25" d="M1.8,53.8l13-10.4L3.5,39c-1.2,4.3-1.8,8.8-1.8,13.4C1.8,52.9,1.8,53.4,1.8,53.8"/>
			</g>
			<g id="Group-65" transform="translate(0.887097, 0.279503)">
				<g id="Clip-64">
				</g>
				<defs>
					<filter id="Adobe_OpacityMaskFilter_12_" filterUnits="userSpaceOnUse" x="77.2" y="7.2" width="13.1" height="18.1">
						<feColorMatrix  type="matrix" values="1 0 0 0 0  0 1 0 0 0  0 0 1 0 0  0 0 0 1 0"/>
					</filter>
				</defs>
				<mask maskUnits="userSpaceOnUse" x="77.2" y="7.2" width="13.1" height="18.1" id="mask-26">
					<g class="st26">
						<path id="path-25" class="st1" d="M1.8,52.4c0,28.3,23,51.3,51.4,51.3l0,0c28.4,0,51.4-22.9,51.4-51.3l0,0
							c0-28.3-23-51.3-51.4-51.3l0,0C24.8,1.2,1.8,24.1,1.8,52.4L1.8,52.4z M14.5,66.2l23.8-13.6l-23.5-9.2L58.2,8.8l4.6,29.8
							l17.1-13.3l7.8,54.9l-25-10l-0.1,23.9L14.5,66.2z"/>
					</g>
				</mask>
				<path id="Fill-63" class="st27" d="M79.8,25.3l10.5-8.2c-3.8-4-8.2-7.3-13.1-9.9L79.8,25.3z"/>
			</g>
			<g id="Group-68" transform="translate(0.887097, 0.279503)">
				<g id="Clip-67">
				</g>
				<defs>
					<filter id="Adobe_OpacityMaskFilter_13_" filterUnits="userSpaceOnUse" x="57" y="1.3" width="8.7" height="7.5">
						<feColorMatrix  type="matrix" values="1 0 0 0 0  0 1 0 0 0  0 0 1 0 0  0 0 0 1 0"/>
					</filter>
				</defs>
				<mask maskUnits="userSpaceOnUse" x="57" y="1.3" width="8.7" height="7.5" id="mask-28">
					<g class="st28">
						<path id="path-27" class="st1" d="M1.8,52.4c0,28.3,23,51.3,51.4,51.3l0,0c28.4,0,51.4-22.9,51.4-51.3l0,0
							c0-28.3-23-51.3-51.4-51.3l0,0C24.8,1.2,1.8,24.1,1.8,52.4L1.8,52.4z M14.5,66.2l23.8-13.6l-23.5-9.2L58.2,8.8l4.6,29.8
							l17.1-13.3l7.8,54.9l-25-10l-0.1,23.9L14.5,66.2z"/>
					</g>
				</mask>
				<path id="Fill-66" class="st29" d="M65.7,2.7C62.9,2,60,1.6,57,1.3l1.1,7.5L65.7,2.7z"/>
			</g>
			<g id="Group-75" transform="translate(0.887097, 0.279503)">
				<g id="Group-71">
					<g id="Clip-70">
					</g>
					<defs>
						<filter id="Adobe_OpacityMaskFilter_14_" filterUnits="userSpaceOnUse" x="62.6" y="94" width="10.1" height="8.8">
							<feColorMatrix  type="matrix" values="1 0 0 0 0  0 1 0 0 0  0 0 1 0 0  0 0 0 1 0"/>
						</filter>
					</defs>
					<mask maskUnits="userSpaceOnUse" x="62.6" y="94" width="10.1" height="8.8" id="mask-30">
						<g class="st30">
							<path id="path-29" class="st1" d="M1.8,52.4c0,28.3,23,51.3,51.4,51.3l0,0c28.4,0,51.4-22.9,51.4-51.3l0,0
								c0-28.3-23-51.3-51.4-51.3l0,0C24.8,1.2,1.8,24.1,1.8,52.4L1.8,52.4z M14.5,66.2l23.8-13.6l-23.5-9.2L58.2,8.8l4.6,29.8
								l17.1-13.3l7.8,54.9l-25-10l-0.1,23.9L14.5,66.2z"/>
						</g>
					</mask>
					<path id="Fill-69" class="st31" d="M62.6,94l0,8.8c3.5-0.6,6.9-1.6,10.1-3L62.6,94z"/>
				</g>
				<g id="Group-74">
					<g id="Clip-73">
					</g>
					<defs>
						<filter id="Adobe_OpacityMaskFilter_15_" filterUnits="userSpaceOnUse" x="87.6" y="80.1" width="6.8" height="9">
							<feColorMatrix  type="matrix" values="1 0 0 0 0  0 1 0 0 0  0 0 1 0 0  0 0 0 1 0"/>
						</filter>
					</defs>
					<mask maskUnits="userSpaceOnUse" x="87.6" y="80.1" width="6.8" height="9" id="mask-32">
						<g class="st32">
							<path id="path-31" class="st1" d="M1.8,52.4c0,28.3,23,51.3,51.4,51.3l0,0c28.4,0,51.4-22.9,51.4-51.3l0,0
								c0-28.3-23-51.3-51.4-51.3l0,0C24.8,1.2,1.8,24.1,1.8,52.4L1.8,52.4z M14.5,66.2l23.8-13.6l-23.5-9.2L58.2,8.8l4.6,29.8
								l17.1-13.3l7.8,54.9l-25-10l-0.1,23.9L14.5,66.2z"/>
						</g>
					</mask>
					<path id="Fill-72" class="st33" d="M87.6,80.1l1.3,9l0,0c1-0.9,1.9-1.9,2.8-3c0.1-0.1,0.1-0.1,0.2-0.2c0.9-1,1.7-2.1,2.5-3.2
						L87.6,80.1z"/>
				</g>
			</g>
			<polygon id="Fill-76" class="st1" points="67.4,63.9 63.6,38.9 63.6,38.9 39.2,52.9 43.6,54.6 37,59.8 63.5,70.4 63.6,62.4 			
				"/>
		</g>
		<g class="st34">
			<path class="st1" d="M2086.5,70.8V81h-5.4V52.1h9.4c1.9,0,3.6,0.2,5,0.7c1.4,0.5,2.6,1.1,3.5,1.9s1.6,1.8,2,2.9
				c0.4,1.1,0.7,2.4,0.7,3.7c0,1.4-0.2,2.7-0.7,3.9c-0.5,1.2-1.2,2.2-2.1,3c-0.9,0.8-2.1,1.5-3.5,2s-3,0.7-4.9,0.7H2086.5z
				 M2086.5,66.6h4c1,0,1.8-0.1,2.6-0.4c0.7-0.2,1.3-0.6,1.8-1.1s0.8-1,1.1-1.7s0.4-1.4,0.4-2.2c0-0.8-0.1-1.5-0.4-2.1
				s-0.6-1.2-1.1-1.6c-0.5-0.4-1.1-0.8-1.8-1c-0.7-0.2-1.6-0.3-2.6-0.3h-4V66.6z"/>
			<path class="st1" d="M2107.6,81V60.5h2.9c0.5,0,0.9,0.1,1.1,0.3c0.2,0.2,0.3,0.5,0.4,1l0.3,2.5c0.7-1.3,1.6-2.3,2.6-3
				s2.1-1.1,3.3-1.1c1,0,1.9,0.2,2.5,0.7l-0.6,3.7c0,0.2-0.1,0.4-0.3,0.5c-0.1,0.1-0.3,0.2-0.5,0.2c-0.2,0-0.5,0-0.8-0.1
				c-0.3-0.1-0.8-0.1-1.4-0.1c-1,0-1.9,0.3-2.6,0.9c-0.7,0.6-1.4,1.4-1.9,2.5V81H2107.6z"/>
			<path class="st1" d="M2134.4,60.2c1.3,0,2.5,0.2,3.6,0.6c1.1,0.4,2,1,2.8,1.8c0.8,0.8,1.4,1.8,1.8,2.9s0.7,2.5,0.7,4
				c0,0.4,0,0.7,0,0.9c0,0.2-0.1,0.4-0.2,0.6c-0.1,0.1-0.2,0.2-0.4,0.3c-0.1,0.1-0.3,0.1-0.6,0.1h-12.7c0.1,2.1,0.7,3.7,1.7,4.6
				c1,1,2.3,1.5,3.9,1.5c0.8,0,1.5-0.1,2.1-0.3s1.1-0.4,1.5-0.6c0.4-0.2,0.8-0.4,1.1-0.6s0.6-0.3,1-0.3c0.2,0,0.4,0,0.5,0.1
				c0.1,0.1,0.3,0.2,0.4,0.3l1.4,1.8c-0.5,0.6-1.2,1.2-1.8,1.6c-0.7,0.4-1.4,0.8-2.1,1c-0.7,0.3-1.5,0.4-2.3,0.5s-1.5,0.2-2.2,0.2
				c-1.4,0-2.8-0.2-4-0.7c-1.2-0.5-2.3-1.2-3.2-2.1c-0.9-0.9-1.6-2.1-2.1-3.4c-0.5-1.4-0.8-3-0.8-4.8c0-1.4,0.2-2.7,0.7-4
				c0.5-1.2,1.1-2.3,2-3.2c0.8-0.9,1.9-1.6,3.1-2.2C2131.5,60.4,2132.8,60.2,2134.4,60.2z M2134.5,63.7c-1.4,0-2.6,0.4-3.4,1.2
				s-1.3,2-1.6,3.5h9.3c0-0.6-0.1-1.2-0.3-1.8s-0.4-1.1-0.8-1.5s-0.8-0.8-1.4-1C2135.9,63.8,2135.2,63.7,2134.5,63.7z"/>
			<path class="st1" d="M2156,81.3c-1.8,0-3.1-0.5-4.1-1.5c-1-1-1.4-2.4-1.4-4.2V64.2h-2.1c-0.3,0-0.5-0.1-0.7-0.3
				c-0.2-0.2-0.3-0.4-0.3-0.8v-2l3.3-0.5l1-5.6c0.1-0.3,0.2-0.5,0.4-0.6c0.2-0.1,0.4-0.2,0.7-0.2h2.6v6.5h5.4v3.5h-5.4v11.1
				c0,0.6,0.2,1.1,0.5,1.5c0.3,0.4,0.7,0.5,1.3,0.5c0.3,0,0.6,0,0.8-0.1c0.2-0.1,0.4-0.2,0.5-0.2c0.2-0.1,0.3-0.2,0.4-0.2
				c0.1-0.1,0.2-0.1,0.4-0.1c0.1,0,0.3,0,0.4,0.1c0.1,0.1,0.2,0.2,0.3,0.3l1.5,2.4c-0.7,0.6-1.5,1.1-2.5,1.4S2157,81.3,2156,81.3z"
				/>
			<path class="st1" d="M2173.4,81.3c-1.8,0-3.1-0.5-4.1-1.5c-1-1-1.4-2.4-1.4-4.2V64.2h-2.1c-0.3,0-0.5-0.1-0.7-0.3
				c-0.2-0.2-0.3-0.4-0.3-0.8v-2l3.3-0.5l1-5.6c0.1-0.3,0.2-0.5,0.4-0.6c0.2-0.1,0.4-0.2,0.7-0.2h2.6v6.5h5.4v3.5h-5.4v11.1
				c0,0.6,0.2,1.1,0.5,1.5c0.3,0.4,0.7,0.5,1.3,0.5c0.3,0,0.6,0,0.8-0.1c0.2-0.1,0.4-0.2,0.5-0.2c0.2-0.1,0.3-0.2,0.4-0.2
				c0.1-0.1,0.2-0.1,0.4-0.1c0.1,0,0.3,0,0.4,0.1c0.1,0.1,0.2,0.2,0.3,0.3l1.5,2.4c-0.7,0.6-1.5,1.1-2.5,1.4
				S2174.4,81.3,2173.4,81.3z"/>
			<path class="st1" d="M2191.4,86.6c-0.1,0.3-0.3,0.6-0.6,0.8c-0.2,0.2-0.6,0.3-1.1,0.3h-3.7l3.8-8.2l-8.3-19h4.3
				c0.4,0,0.7,0.1,0.9,0.3c0.2,0.2,0.4,0.4,0.5,0.6l4.4,10.6c0.1,0.3,0.3,0.7,0.4,1.1c0.1,0.4,0.2,0.7,0.3,1.1
				c0.1-0.4,0.2-0.8,0.4-1.1c0.1-0.4,0.3-0.7,0.4-1.1l4.1-10.6c0.1-0.3,0.3-0.5,0.5-0.7c0.2-0.2,0.5-0.3,0.8-0.3h4L2191.4,86.6z"/>
			<path class="st1" d="M2231.5,64.8c-0.1,0.2-0.3,0.3-0.4,0.4c-0.1,0.1-0.3,0.2-0.6,0.2c-0.3,0-0.5-0.1-0.7-0.2
				c-0.2-0.2-0.5-0.3-0.9-0.5c-0.3-0.2-0.7-0.4-1.2-0.5s-1-0.2-1.7-0.2c-0.9,0-1.6,0.2-2.3,0.5c-0.7,0.3-1.2,0.8-1.6,1.4
				s-0.8,1.3-1,2.1c-0.2,0.8-0.3,1.8-0.3,2.8c0,1.1,0.1,2.1,0.4,2.9s0.6,1.6,1,2.1c0.4,0.6,1,1,1.6,1.3c0.6,0.3,1.3,0.5,2.1,0.5
				s1.4-0.1,1.9-0.3c0.5-0.2,0.9-0.4,1.2-0.6c0.3-0.2,0.6-0.4,0.9-0.6c0.2-0.2,0.5-0.3,0.8-0.3c0.4,0,0.7,0.2,0.9,0.5l1.4,1.8
				c-0.5,0.6-1.1,1.2-1.8,1.6c-0.6,0.4-1.3,0.8-2,1c-0.7,0.3-1.4,0.4-2.1,0.5c-0.7,0.1-1.5,0.2-2.2,0.2c-1.3,0-2.5-0.2-3.6-0.7
				c-1.1-0.5-2.1-1.2-2.9-2.1c-0.8-0.9-1.5-2-2-3.3c-0.5-1.3-0.7-2.8-0.7-4.5c0-1.5,0.2-2.9,0.7-4.2c0.4-1.3,1.1-2.4,1.9-3.3
				c0.8-0.9,1.9-1.7,3.1-2.2c1.2-0.5,2.7-0.8,4.3-0.8c1.5,0,2.9,0.2,4,0.7s2.2,1.2,3.1,2.1L2231.5,64.8z"/>
			<path class="st1" d="M2246.9,60.2c1.5,0,2.9,0.2,4.2,0.7s2.3,1.2,3.2,2.1c0.9,0.9,1.6,2,2,3.3s0.7,2.8,0.7,4.4
				c0,1.6-0.2,3.1-0.7,4.4c-0.5,1.3-1.2,2.4-2,3.3c-0.9,0.9-1.9,1.6-3.2,2.1s-2.6,0.7-4.2,0.7s-2.9-0.2-4.2-0.7
				c-1.3-0.5-2.3-1.2-3.2-2.1c-0.9-0.9-1.6-2-2.1-3.3c-0.5-1.3-0.7-2.8-0.7-4.4c0-1.6,0.2-3.1,0.7-4.4c0.5-1.3,1.2-2.4,2.1-3.3
				c0.9-0.9,2-1.6,3.2-2.1C2244,60.4,2245.4,60.2,2246.9,60.2z M2246.9,77.5c1.7,0,3-0.6,3.8-1.7s1.2-2.8,1.2-5s-0.4-3.9-1.2-5.1
				s-2.1-1.7-3.8-1.7c-1.7,0-3,0.6-3.8,1.8c-0.8,1.2-1.2,2.8-1.2,5s0.4,3.9,1.2,5C2243.9,76.9,2245.2,77.5,2246.9,77.5z"/>
			<path class="st1" d="M2277.3,81c-0.6,0-1.1-0.3-1.3-0.9l-0.4-2c-0.4,0.5-0.9,0.9-1.3,1.3c-0.5,0.4-1,0.7-1.5,1s-1.1,0.5-1.7,0.7
				c-0.6,0.2-1.3,0.2-2,0.2c-1.1,0-2.1-0.2-3.1-0.7c-0.9-0.5-1.7-1.1-2.4-2c-0.7-0.9-1.2-2-1.6-3.3s-0.5-2.8-0.5-4.5
				c0-1.5,0.2-2.9,0.6-4.2c0.4-1.3,1-2.4,1.8-3.4c0.8-1,1.7-1.7,2.8-2.2s2.3-0.8,3.6-0.8c1.1,0,2.1,0.2,2.9,0.6
				c0.8,0.4,1.5,0.9,2.2,1.5V51.3h4.9V81H2277.3z M2270.7,77.4c1,0,1.9-0.2,2.6-0.6c0.7-0.4,1.4-1,2-1.8v-9.2
				c-0.6-0.7-1.2-1.2-1.8-1.4c-0.7-0.3-1.4-0.4-2.1-0.4c-0.7,0-1.4,0.1-2,0.4c-0.6,0.3-1.1,0.7-1.5,1.3c-0.4,0.6-0.7,1.3-1,2.2
				c-0.2,0.9-0.3,1.9-0.3,3.1c0,1.2,0.1,2.2,0.3,3c0.2,0.8,0.5,1.5,0.8,2c0.4,0.5,0.8,0.9,1.3,1.1
				C2269.5,77.3,2270.1,77.4,2270.7,77.4z"/>
			<path class="st1" d="M2296.1,60.2c1.3,0,2.5,0.2,3.6,0.6c1.1,0.4,2,1,2.8,1.8c0.8,0.8,1.4,1.8,1.8,2.9s0.7,2.5,0.7,4
				c0,0.4,0,0.7,0,0.9c0,0.2-0.1,0.4-0.2,0.6c-0.1,0.1-0.2,0.2-0.4,0.3c-0.1,0.1-0.3,0.1-0.6,0.1h-12.7c0.1,2.1,0.7,3.7,1.7,4.6
				c1,1,2.3,1.5,3.9,1.5c0.8,0,1.5-0.1,2.1-0.3s1.1-0.4,1.5-0.6c0.4-0.2,0.8-0.4,1.1-0.6s0.6-0.3,1-0.3c0.2,0,0.4,0,0.5,0.1
				c0.1,0.1,0.3,0.2,0.4,0.3l1.4,1.8c-0.5,0.6-1.2,1.2-1.8,1.6c-0.7,0.4-1.4,0.8-2.1,1c-0.7,0.3-1.5,0.4-2.3,0.5s-1.5,0.2-2.2,0.2
				c-1.4,0-2.8-0.2-4-0.7c-1.2-0.5-2.3-1.2-3.2-2.1c-0.9-0.9-1.6-2.1-2.1-3.4c-0.5-1.4-0.8-3-0.8-4.8c0-1.4,0.2-2.7,0.7-4
				c0.5-1.2,1.1-2.3,2-3.2c0.8-0.9,1.9-1.6,3.1-2.2C2293.2,60.4,2294.5,60.2,2296.1,60.2z M2296.2,63.7c-1.4,0-2.6,0.4-3.4,1.2
				s-1.3,2-1.6,3.5h9.3c0-0.6-0.1-1.2-0.3-1.8s-0.4-1.1-0.8-1.5s-0.8-0.8-1.4-1C2297.6,63.8,2296.9,63.7,2296.2,63.7z"/>
			<path class="st1" d="M2309.8,78.3c0-0.4,0.1-0.8,0.2-1.2c0.2-0.4,0.4-0.7,0.6-1c0.3-0.3,0.6-0.5,1-0.6c0.4-0.2,0.8-0.2,1.2-0.2
				c0.4,0,0.8,0.1,1.2,0.2c0.4,0.2,0.7,0.4,1,0.6c0.3,0.3,0.5,0.6,0.6,1c0.2,0.4,0.2,0.8,0.2,1.2c0,0.4-0.1,0.8-0.2,1.2
				c-0.2,0.4-0.4,0.7-0.6,1c-0.3,0.3-0.6,0.5-1,0.6c-0.4,0.2-0.8,0.2-1.2,0.2c-0.4,0-0.8-0.1-1.2-0.2c-0.4-0.2-0.7-0.4-1-0.6
				c-0.3-0.3-0.5-0.6-0.6-1C2309.8,79.1,2309.8,78.7,2309.8,78.3z"/>
		</g>
		<g class="st34">
			<path class="st1" d="M2096.4,105.3c-0.1,0.3-0.3,0.5-0.5,0.6c-0.2,0.1-0.4,0.2-0.7,0.2c-0.3,0-0.6-0.1-0.9-0.3s-0.7-0.4-1.2-0.7
				c-0.5-0.3-1-0.5-1.6-0.7c-0.6-0.2-1.3-0.3-2.1-0.3c-0.7,0-1.4,0.1-1.9,0.3c-0.6,0.2-1,0.4-1.4,0.8c-0.4,0.3-0.7,0.7-0.8,1.1
				c-0.2,0.4-0.3,0.9-0.3,1.5c0,0.7,0.2,1.2,0.6,1.7c0.4,0.5,0.9,0.8,1.5,1.2c0.6,0.3,1.3,0.6,2.1,0.9c0.8,0.3,1.6,0.5,2.4,0.8
				c0.8,0.3,1.7,0.6,2.5,1c0.8,0.4,1.5,0.9,2.1,1.4c0.6,0.6,1.1,1.3,1.5,2.1s0.6,1.9,0.6,3.1c0,1.3-0.2,2.5-0.7,3.7
				c-0.4,1.1-1.1,2.1-2,3c-0.9,0.8-1.9,1.5-3.1,2c-1.2,0.5-2.7,0.7-4.3,0.7c-0.9,0-1.8-0.1-2.7-0.3c-0.9-0.2-1.8-0.4-2.6-0.8
				c-0.8-0.3-1.6-0.7-2.3-1.2s-1.4-1-1.9-1.6l1.6-2.6c0.1-0.2,0.3-0.3,0.5-0.5c0.2-0.1,0.4-0.2,0.7-0.2c0.3,0,0.7,0.1,1.1,0.4
				s0.8,0.6,1.4,0.9c0.5,0.3,1.1,0.6,1.9,0.9c0.7,0.3,1.6,0.4,2.6,0.4c1.5,0,2.7-0.4,3.6-1.1s1.3-1.8,1.3-3.1c0-0.8-0.2-1.4-0.6-1.9
				c-0.4-0.5-0.9-0.9-1.5-1.2c-0.6-0.3-1.3-0.6-2.1-0.8c-0.8-0.2-1.6-0.5-2.4-0.7c-0.8-0.3-1.6-0.6-2.4-1c-0.8-0.4-1.5-0.9-2.1-1.5
				c-0.6-0.6-1.1-1.3-1.5-2.2c-0.4-0.9-0.6-2-0.6-3.3c0-1.1,0.2-2.1,0.6-3.1c0.4-1,1-1.9,1.8-2.7c0.8-0.8,1.8-1.4,3-1.9
				s2.5-0.7,4-0.7c1.7,0,3.3,0.3,4.7,0.8c1.4,0.5,2.7,1.3,3.7,2.2L2096.4,105.3z"/>
			<path class="st1" d="M2104.1,129v-20.5h3c0.6,0,1.1,0.3,1.3,0.9l0.3,1.5c0.4-0.4,0.7-0.8,1.1-1.1c0.4-0.3,0.8-0.6,1.3-0.9
				c0.4-0.2,0.9-0.4,1.4-0.6s1.1-0.2,1.7-0.2c1.3,0,2.4,0.3,3.2,1c0.8,0.7,1.5,1.6,1.9,2.8c0.3-0.7,0.7-1.3,1.2-1.8
				c0.5-0.5,1-0.9,1.6-1.2c0.6-0.3,1.2-0.5,1.8-0.7c0.6-0.1,1.3-0.2,1.9-0.2c1.1,0,2.1,0.2,3,0.5c0.9,0.3,1.6,0.9,2.2,1.5
				s1.1,1.5,1.4,2.4c0.3,1,0.5,2.1,0.5,3.3V129h-4.9v-13.1c0-1.3-0.3-2.3-0.9-2.9c-0.6-0.7-1.4-1-2.5-1c-0.5,0-1,0.1-1.4,0.3
				c-0.4,0.2-0.8,0.4-1.1,0.8c-0.3,0.3-0.6,0.7-0.8,1.2s-0.3,1.1-0.3,1.7V129h-5v-13.1c0-1.4-0.3-2.4-0.8-3
				c-0.6-0.6-1.4-0.9-2.5-0.9c-0.7,0-1.4,0.2-2,0.5s-1.2,0.8-1.7,1.5v15H2104.1z"/>
			<path class="st1" d="M2155.8,129h-2.2c-0.5,0-0.8-0.1-1.1-0.2s-0.5-0.4-0.6-0.8l-0.4-1.5c-0.5,0.5-1,0.9-1.5,1.2s-1,0.7-1.6,0.9
				c-0.5,0.2-1.1,0.4-1.7,0.5s-1.3,0.2-2,0.2c-0.9,0-1.7-0.1-2.4-0.4c-0.7-0.2-1.4-0.6-1.9-1.1c-0.5-0.5-0.9-1.1-1.2-1.7
				c-0.3-0.7-0.4-1.5-0.4-2.4c0-0.8,0.2-1.5,0.6-2.3c0.4-0.8,1.1-1.4,2-2c0.9-0.6,2.2-1.1,3.8-1.5s3.5-0.6,5.9-0.6v-1.2
				c0-1.4-0.3-2.4-0.9-3.1c-0.6-0.7-1.4-1-2.5-1c-0.8,0-1.5,0.1-2,0.3s-1,0.4-1.4,0.6s-0.8,0.4-1.1,0.6c-0.3,0.2-0.7,0.3-1.1,0.3
				c-0.3,0-0.6-0.1-0.9-0.3c-0.2-0.2-0.4-0.4-0.6-0.6l-0.9-1.6c2.4-2.2,5.2-3.2,8.5-3.2c1.2,0,2.3,0.2,3.2,0.6
				c0.9,0.4,1.7,0.9,2.4,1.6c0.7,0.7,1.1,1.5,1.5,2.5c0.3,1,0.5,2,0.5,3.2V129z M2146.2,125.9c0.5,0,1,0,1.4-0.1s0.8-0.2,1.2-0.4
				c0.4-0.2,0.7-0.4,1.1-0.7c0.4-0.3,0.7-0.6,1.1-1v-3.4c-1.4,0-2.6,0.1-3.6,0.3c-1,0.2-1.7,0.4-2.3,0.7c-0.6,0.3-1,0.6-1.2,1
				c-0.2,0.4-0.4,0.8-0.4,1.2c0,0.9,0.3,1.5,0.8,1.9C2144.7,125.7,2145.4,125.9,2146.2,125.9z"/>
			<path class="st1" d="M2162.6,129v-20.5h2.9c0.5,0,0.9,0.1,1.1,0.3c0.2,0.2,0.3,0.5,0.4,1l0.3,2.5c0.7-1.3,1.6-2.3,2.6-3
				s2.1-1.1,3.3-1.1c1,0,1.9,0.2,2.5,0.7l-0.6,3.7c0,0.2-0.1,0.4-0.3,0.5c-0.1,0.1-0.3,0.2-0.5,0.2c-0.2,0-0.5,0-0.8-0.1
				c-0.3-0.1-0.8-0.1-1.4-0.1c-1,0-1.9,0.3-2.6,0.9c-0.7,0.6-1.4,1.4-1.9,2.5V129H2162.6z"/>
			<path class="st1" d="M2187.6,129.3c-1.8,0-3.1-0.5-4.1-1.5c-1-1-1.4-2.4-1.4-4.2v-11.5h-2.1c-0.3,0-0.5-0.1-0.7-0.3
				c-0.2-0.2-0.3-0.4-0.3-0.8v-2l3.3-0.5l1-5.6c0.1-0.3,0.2-0.5,0.4-0.6c0.2-0.1,0.4-0.2,0.7-0.2h2.6v6.5h5.4v3.5h-5.4v11.1
				c0,0.6,0.2,1.1,0.5,1.5c0.3,0.4,0.7,0.5,1.3,0.5c0.3,0,0.6,0,0.8-0.1c0.2-0.1,0.4-0.2,0.5-0.2c0.2-0.1,0.3-0.2,0.4-0.2
				c0.1-0.1,0.2-0.1,0.4-0.1c0.1,0,0.3,0,0.4,0.1c0.1,0.1,0.2,0.2,0.3,0.3l1.5,2.4c-0.7,0.6-1.5,1.1-2.5,1.4
				S2188.6,129.3,2187.6,129.3z"/>
			<path class="st1" d="M2222.5,129c-0.6,0-1.1-0.3-1.3-0.9l-0.4-2c-0.4,0.5-0.9,0.9-1.3,1.3c-0.5,0.4-1,0.7-1.5,1s-1.1,0.5-1.7,0.7
				c-0.6,0.2-1.3,0.2-2,0.2c-1.1,0-2.1-0.2-3.1-0.7c-0.9-0.5-1.7-1.1-2.4-2c-0.7-0.9-1.2-2-1.6-3.3s-0.5-2.8-0.5-4.5
				c0-1.5,0.2-2.9,0.6-4.2c0.4-1.3,1-2.4,1.8-3.4c0.8-1,1.7-1.7,2.8-2.2s2.3-0.8,3.6-0.8c1.1,0,2.1,0.2,2.9,0.6
				c0.8,0.4,1.5,0.9,2.2,1.5V99.3h4.9V129H2222.5z M2215.9,125.4c1,0,1.9-0.2,2.6-0.6c0.7-0.4,1.4-1,2-1.8v-9.2
				c-0.6-0.7-1.2-1.2-1.8-1.4c-0.7-0.3-1.4-0.4-2.1-0.4c-0.7,0-1.4,0.1-2,0.4c-0.6,0.3-1.1,0.7-1.5,1.3c-0.4,0.6-0.7,1.3-1,2.2
				c-0.2,0.9-0.3,1.9-0.3,3.1c0,1.2,0.1,2.2,0.3,3c0.2,0.8,0.5,1.5,0.8,2c0.4,0.5,0.8,0.9,1.3,1.1
				C2214.7,125.3,2215.2,125.4,2215.9,125.4z"/>
			<path class="st1" d="M2241.3,108.2c1.3,0,2.5,0.2,3.6,0.6c1.1,0.4,2,1,2.8,1.8c0.8,0.8,1.4,1.8,1.8,2.9s0.7,2.5,0.7,3.9
				c0,0.4,0,0.7,0,0.9c0,0.2-0.1,0.4-0.2,0.6c-0.1,0.1-0.2,0.2-0.4,0.3c-0.1,0.1-0.3,0.1-0.6,0.1h-12.7c0.1,2.1,0.7,3.7,1.7,4.6
				c1,1,2.3,1.5,3.9,1.5c0.8,0,1.5-0.1,2.1-0.3s1.1-0.4,1.5-0.6c0.4-0.2,0.8-0.4,1.1-0.6s0.6-0.3,1-0.3c0.2,0,0.4,0,0.5,0.1
				c0.1,0.1,0.3,0.2,0.4,0.3l1.4,1.8c-0.5,0.6-1.2,1.2-1.8,1.6c-0.7,0.4-1.4,0.8-2.1,1c-0.7,0.3-1.5,0.4-2.3,0.5s-1.5,0.2-2.2,0.2
				c-1.4,0-2.8-0.2-4-0.7c-1.2-0.5-2.3-1.2-3.2-2.1c-0.9-0.9-1.6-2.1-2.1-3.4c-0.5-1.4-0.8-3-0.8-4.8c0-1.4,0.2-2.7,0.7-3.9
				c0.5-1.2,1.1-2.3,2-3.2c0.8-0.9,1.9-1.6,3.1-2.2C2238.3,108.4,2239.7,108.2,2241.3,108.2z M2241.4,111.7c-1.4,0-2.6,0.4-3.4,1.2
				s-1.3,2-1.6,3.5h9.3c0-0.6-0.1-1.2-0.3-1.8c-0.2-0.6-0.4-1.1-0.8-1.5s-0.8-0.8-1.4-1C2242.7,111.8,2242.1,111.7,2241.4,111.7z"/>
			<path class="st1" d="M2268.3,112.5c-0.1,0.2-0.3,0.4-0.4,0.4c-0.1,0.1-0.3,0.1-0.6,0.1c-0.2,0-0.5-0.1-0.8-0.2
				c-0.3-0.1-0.6-0.3-0.9-0.5c-0.4-0.2-0.8-0.3-1.2-0.5c-0.5-0.1-1-0.2-1.6-0.2c-1,0-1.7,0.2-2.3,0.6s-0.8,1-0.8,1.6
				c0,0.4,0.1,0.8,0.4,1.1c0.3,0.3,0.7,0.6,1.1,0.8s1,0.4,1.6,0.6c0.6,0.2,1.2,0.4,1.8,0.6c0.6,0.2,1.2,0.5,1.8,0.7s1.1,0.6,1.6,1
				s0.9,0.9,1.1,1.5s0.4,1.3,0.4,2.1c0,1-0.2,1.9-0.5,2.7c-0.4,0.8-0.9,1.6-1.6,2.2c-0.7,0.6-1.5,1.1-2.6,1.4
				c-1,0.3-2.2,0.5-3.5,0.5c-0.7,0-1.4-0.1-2.1-0.2c-0.7-0.1-1.3-0.3-1.9-0.5c-0.6-0.2-1.2-0.5-1.7-0.8c-0.5-0.3-1-0.6-1.4-1
				l1.1-1.9c0.1-0.2,0.3-0.4,0.5-0.5c0.2-0.1,0.5-0.2,0.8-0.2s0.6,0.1,0.9,0.3c0.3,0.2,0.6,0.4,1,0.6s0.8,0.4,1.3,0.6
				c0.5,0.2,1.1,0.3,1.9,0.3c0.6,0,1.1-0.1,1.5-0.2c0.4-0.1,0.8-0.3,1-0.6c0.3-0.2,0.5-0.5,0.6-0.8c0.1-0.3,0.2-0.6,0.2-0.9
				c0-0.5-0.1-0.9-0.4-1.2s-0.7-0.6-1.1-0.8c-0.5-0.2-1-0.4-1.6-0.6c-0.6-0.2-1.2-0.4-1.9-0.6c-0.6-0.2-1.3-0.5-1.9-0.8
				c-0.6-0.3-1.1-0.7-1.6-1.1c-0.5-0.4-0.9-1-1.1-1.6c-0.3-0.6-0.4-1.4-0.4-2.3c0-0.8,0.2-1.6,0.5-2.4c0.3-0.8,0.8-1.4,1.5-2
				c0.6-0.6,1.5-1,2.4-1.4c1-0.3,2.1-0.5,3.4-0.5c1.4,0,2.7,0.2,3.9,0.7s2.1,1.1,2.9,1.8L2268.3,112.5z"/>
			<path class="st1" d="M2281.6,102.5c0,0.4-0.1,0.8-0.3,1.2s-0.4,0.7-0.7,1c-0.3,0.3-0.6,0.5-1,0.7c-0.4,0.2-0.8,0.2-1.2,0.2
				c-0.4,0-0.8-0.1-1.2-0.2c-0.4-0.2-0.7-0.4-1-0.7c-0.3-0.3-0.5-0.6-0.7-1s-0.2-0.8-0.2-1.2c0-0.4,0.1-0.9,0.2-1.2s0.4-0.7,0.7-1
				c0.3-0.3,0.6-0.5,1-0.7c0.4-0.2,0.8-0.2,1.2-0.2c0.4,0,0.9,0.1,1.2,0.2c0.4,0.2,0.7,0.4,1,0.7c0.3,0.3,0.5,0.6,0.7,1
				S2281.6,102.1,2281.6,102.5z M2280.8,108.5V129h-4.9v-20.5H2280.8z"/>
			<path class="st1" d="M2295.5,108.1c0.9,0,1.7,0.1,2.5,0.3c0.8,0.2,1.5,0.4,2.1,0.8h5.9v1.8c0,0.3-0.1,0.5-0.2,0.7
				c-0.2,0.2-0.4,0.3-0.8,0.4l-1.8,0.3c0.1,0.3,0.2,0.7,0.3,1.1s0.1,0.8,0.1,1.2c0,1-0.2,1.9-0.6,2.7c-0.4,0.8-1,1.5-1.7,2.1
				c-0.7,0.6-1.6,1-2.5,1.3c-1,0.3-2,0.5-3.2,0.5c-0.8,0-1.5-0.1-2.3-0.2c-0.6,0.4-1,0.8-1,1.3c0,0.4,0.2,0.7,0.6,0.9
				c0.4,0.2,0.9,0.3,1.5,0.4c0.6,0.1,1.3,0.1,2.1,0.1c0.8,0,1.6,0,2.4,0.1c0.8,0.1,1.6,0.2,2.4,0.4c0.8,0.2,1.5,0.4,2.1,0.8
				c0.6,0.4,1.1,0.9,1.5,1.5s0.6,1.4,0.6,2.4c0,0.9-0.2,1.8-0.7,2.6s-1.1,1.6-1.9,2.3c-0.8,0.7-1.9,1.2-3.1,1.6
				c-1.2,0.4-2.6,0.6-4.2,0.6c-1.6,0-2.9-0.1-4.1-0.5c-1.1-0.3-2.1-0.7-2.9-1.2c-0.8-0.5-1.3-1.1-1.7-1.7c-0.4-0.7-0.6-1.3-0.6-2
				c0-1,0.3-1.8,0.9-2.4c0.6-0.7,1.4-1.2,2.4-1.6c-0.5-0.3-0.9-0.7-1.2-1.1c-0.3-0.5-0.5-1.1-0.5-1.8c0-0.3,0.1-0.6,0.2-1
				c0.1-0.3,0.3-0.6,0.5-1c0.2-0.3,0.5-0.6,0.8-0.9c0.3-0.3,0.7-0.5,1.2-0.8c-1-0.6-1.9-1.3-2.4-2.2c-0.6-0.9-0.9-2-0.9-3.3
				c0-1,0.2-1.9,0.6-2.8c0.4-0.8,1-1.5,1.7-2.1c0.7-0.6,1.6-1,2.6-1.3C2293.2,108.3,2294.3,108.1,2295.5,108.1z M2300.9,129.9
				c0-0.4-0.1-0.7-0.4-1c-0.2-0.3-0.6-0.5-1-0.6s-0.9-0.2-1.4-0.3c-0.6-0.1-1.1-0.1-1.8-0.1c-0.6,0-1.3,0-1.9,0s-1.3-0.1-1.9-0.2
				c-0.6,0.3-1,0.7-1.3,1.1c-0.3,0.4-0.5,0.9-0.5,1.5c0,0.4,0.1,0.7,0.3,1s0.5,0.6,0.9,0.8c0.4,0.2,0.9,0.4,1.5,0.5
				c0.6,0.1,1.4,0.2,2.3,0.2c0.9,0,1.7-0.1,2.4-0.2c0.7-0.1,1.2-0.3,1.7-0.6c0.4-0.3,0.8-0.6,0.9-0.9
				C2300.8,130.6,2300.9,130.3,2300.9,129.9z M2295.5,118.2c0.6,0,1.1-0.1,1.6-0.2s0.8-0.4,1.1-0.7c0.3-0.3,0.5-0.6,0.7-1.1
				s0.2-0.9,0.2-1.4c0-1-0.3-1.8-0.9-2.4c-0.6-0.6-1.5-0.9-2.7-0.9c-1.2,0-2.1,0.3-2.7,0.9c-0.6,0.6-0.9,1.4-0.9,2.4
				c0,0.5,0.1,0.9,0.2,1.3c0.2,0.4,0.4,0.8,0.7,1.1c0.3,0.3,0.7,0.5,1.1,0.7S2294.9,118.2,2295.5,118.2z"/>
			<path class="st1" d="M2311,129v-20.5h3c0.6,0,1.1,0.3,1.3,0.9l0.3,1.6c0.4-0.4,0.9-0.8,1.3-1.2s0.9-0.6,1.5-0.9
				c0.5-0.3,1.1-0.4,1.7-0.6c0.6-0.1,1.2-0.2,1.9-0.2c1.1,0,2.1,0.2,3,0.6c0.9,0.4,1.6,0.9,2.2,1.6s1,1.5,1.3,2.5
				c0.3,1,0.5,2,0.5,3.1V129h-4.9v-13.1c0-1.3-0.3-2.2-0.9-2.9s-1.5-1-2.6-1c-0.9,0-1.7,0.2-2.4,0.6c-0.7,0.4-1.5,0.9-2.1,1.6V129
				H2311z"/>
			<path class="st1" d="M2334.5,126.3c0-0.4,0.1-0.8,0.2-1.2c0.2-0.4,0.4-0.7,0.6-1c0.3-0.3,0.6-0.5,1-0.6c0.4-0.2,0.8-0.2,1.2-0.2
				c0.4,0,0.8,0.1,1.2,0.2c0.4,0.2,0.7,0.4,1,0.6c0.3,0.3,0.5,0.6,0.6,1c0.2,0.4,0.2,0.8,0.2,1.2c0,0.4-0.1,0.8-0.2,1.2
				c-0.2,0.4-0.4,0.7-0.6,1c-0.3,0.3-0.6,0.5-1,0.6c-0.4,0.2-0.8,0.2-1.2,0.2c-0.4,0-0.8-0.1-1.2-0.2c-0.4-0.2-0.7-0.4-1-0.6
				c-0.3-0.3-0.5-0.6-0.6-1C2334.6,127.1,2334.5,126.7,2334.5,126.3z"/>
		</g>
		<g class="st34">
			<path class="st1" d="M2085.3,184.5v-21.7h1.7c0.4,0,0.7,0.2,0.8,0.6l0.2,1.9c0.7-0.8,1.5-1.5,2.4-2c0.9-0.5,1.9-0.8,3.1-0.8
				c0.9,0,1.8,0.2,2.5,0.5s1.4,0.9,1.9,1.6c0.5,0.7,0.9,1.6,1.2,2.6c0.3,1,0.4,2.2,0.4,3.6c0,1.2-0.2,2.3-0.5,3.3s-0.8,1.9-1.4,2.7
				c-0.6,0.8-1.3,1.3-2.2,1.8c-0.9,0.4-1.8,0.6-2.9,0.6c-1,0-1.9-0.2-2.6-0.5c-0.7-0.3-1.3-0.8-1.9-1.4v7.2H2085.3z M2092.6,164.8
				c-0.9,0-1.7,0.2-2.4,0.6s-1.3,1-1.9,1.8v7.8c0.5,0.7,1.1,1.2,1.7,1.5s1.3,0.4,2.1,0.4c1.5,0,2.7-0.5,3.5-1.6
				c0.8-1.1,1.2-2.6,1.2-4.6c0-1.1-0.1-2-0.3-2.7c-0.2-0.8-0.5-1.4-0.8-1.9c-0.4-0.5-0.8-0.8-1.3-1.1
				C2093.8,164.9,2093.2,164.8,2092.6,164.8z"/>
			<path class="st1" d="M2110.1,157.7c0,0.3-0.1,0.5-0.2,0.8c-0.1,0.2-0.3,0.5-0.4,0.6s-0.4,0.3-0.6,0.4c-0.2,0.1-0.5,0.2-0.8,0.2
				c-0.3,0-0.5-0.1-0.8-0.2c-0.2-0.1-0.5-0.3-0.6-0.4c-0.2-0.2-0.3-0.4-0.4-0.6c-0.1-0.2-0.2-0.5-0.2-0.8s0.1-0.5,0.2-0.8
				c0.1-0.3,0.3-0.5,0.4-0.7c0.2-0.2,0.4-0.3,0.6-0.4c0.2-0.1,0.5-0.2,0.8-0.2c0.3,0,0.5,0.1,0.8,0.2s0.5,0.3,0.6,0.4
				s0.3,0.4,0.4,0.7C2110,157.2,2110.1,157.4,2110.1,157.7z M2109.5,162.8V179h-2.8v-16.2H2109.5z"/>
			<path class="st1" d="M2121.6,170.7l-5.5-7.9h2.7c0.2,0,0.4,0,0.5,0.1c0.1,0.1,0.2,0.2,0.3,0.3l4,6.1c0.1-0.3,0.2-0.6,0.4-0.9
				l3.5-5.1c0.1-0.1,0.2-0.3,0.3-0.4c0.1-0.1,0.2-0.1,0.4-0.1h2.6l-5.5,7.7l5.7,8.5h-2.7c-0.2,0-0.4-0.1-0.6-0.2
				c-0.1-0.1-0.2-0.3-0.3-0.4l-4.1-6.4c-0.1,0.3-0.2,0.6-0.3,0.8l-3.8,5.5c-0.1,0.1-0.2,0.3-0.3,0.4c-0.1,0.1-0.3,0.2-0.5,0.2h-2.5
				L2121.6,170.7z"/>
			<path class="st1" d="M2142.7,162.5c1,0,1.9,0.2,2.7,0.5s1.5,0.8,2.1,1.4c0.6,0.6,1.1,1.4,1.4,2.3c0.3,0.9,0.5,1.9,0.5,3.1
				c0,0.4,0,0.7-0.1,0.9c-0.1,0.1-0.3,0.2-0.5,0.2h-10.8c0,1,0.2,1.9,0.4,2.7s0.6,1.4,1.1,1.9c0.4,0.5,1,0.9,1.6,1.1
				c0.6,0.2,1.3,0.4,2.1,0.4c0.7,0,1.3-0.1,1.8-0.2c0.5-0.2,1-0.3,1.3-0.5c0.4-0.2,0.7-0.4,0.9-0.5s0.5-0.2,0.6-0.2
				c0.2,0,0.4,0.1,0.5,0.3l0.8,1c-0.4,0.4-0.8,0.8-1.3,1.1s-1,0.6-1.6,0.8c-0.6,0.2-1.1,0.4-1.7,0.5c-0.6,0.1-1.2,0.2-1.8,0.2
				c-1.1,0-2.2-0.2-3.1-0.6c-0.9-0.4-1.8-0.9-2.4-1.7s-1.2-1.6-1.6-2.7c-0.4-1.1-0.6-2.3-0.6-3.7c0-1.1,0.2-2.2,0.5-3.2
				c0.3-1,0.8-1.8,1.5-2.6c0.7-0.7,1.4-1.3,2.4-1.7C2140.4,162.7,2141.5,162.5,2142.7,162.5z M2142.7,164.6c-1.4,0-2.5,0.4-3.2,1.2
				s-1.3,1.9-1.5,3.3h8.8c0-0.7-0.1-1.3-0.3-1.8c-0.2-0.5-0.4-1-0.8-1.4c-0.4-0.4-0.8-0.7-1.3-0.9
				C2144,164.7,2143.4,164.6,2142.7,164.6z"/>
			<path class="st1" d="M2159.5,155.4V179h-2.8v-23.6H2159.5z"/>
			<path class="st1" d="M2177.1,165.5c-0.1,0.2-0.3,0.4-0.6,0.4c-0.2,0-0.3-0.1-0.5-0.2c-0.2-0.1-0.5-0.2-0.7-0.4
				c-0.3-0.1-0.6-0.3-1-0.4c-0.4-0.1-0.9-0.2-1.4-0.2c-0.5,0-0.9,0.1-1.3,0.2c-0.4,0.1-0.7,0.3-1,0.5c-0.3,0.2-0.5,0.5-0.6,0.7
				c-0.1,0.3-0.2,0.6-0.2,0.9c0,0.4,0.1,0.8,0.4,1c0.2,0.3,0.6,0.5,1,0.7c0.4,0.2,0.8,0.4,1.3,0.5c0.5,0.2,1,0.3,1.5,0.5
				c0.5,0.2,1,0.4,1.5,0.6c0.5,0.2,0.9,0.5,1.3,0.8c0.4,0.3,0.7,0.7,1,1.2c0.2,0.5,0.4,1,0.4,1.7c0,0.7-0.1,1.4-0.4,2.1
				s-0.7,1.2-1.2,1.6s-1.2,0.8-1.9,1.1c-0.8,0.3-1.6,0.4-2.6,0.4c-1.1,0-2.2-0.2-3.1-0.6c-0.9-0.4-1.7-0.8-2.3-1.4l0.7-1.1
				c0.1-0.1,0.2-0.2,0.3-0.3c0.1-0.1,0.3-0.1,0.5-0.1s0.4,0.1,0.6,0.2s0.5,0.3,0.8,0.5c0.3,0.2,0.7,0.3,1.1,0.5s1,0.2,1.6,0.2
				c0.6,0,1-0.1,1.5-0.2c0.4-0.1,0.8-0.3,1-0.6s0.5-0.5,0.6-0.8c0.1-0.3,0.2-0.7,0.2-1c0-0.4-0.1-0.8-0.4-1.1
				c-0.2-0.3-0.6-0.5-1-0.8s-0.8-0.4-1.4-0.5c-0.5-0.2-1-0.3-1.6-0.5c-0.5-0.2-1-0.4-1.6-0.6c-0.5-0.2-1-0.5-1.4-0.8
				c-0.4-0.3-0.7-0.7-1-1.2c-0.2-0.5-0.4-1.1-0.4-1.8c0-0.6,0.1-1.2,0.4-1.8c0.3-0.6,0.6-1.1,1.1-1.5c0.5-0.4,1.1-0.8,1.8-1
				c0.7-0.3,1.5-0.4,2.4-0.4c1.1,0,2,0.2,2.9,0.5c0.8,0.3,1.6,0.8,2.2,1.4L2177.1,165.5z"/>
			<path class="st1" d="M2184.1,177.2c0-0.3,0.1-0.5,0.2-0.8c0.1-0.2,0.2-0.5,0.4-0.6c0.2-0.2,0.4-0.3,0.6-0.4
				c0.2-0.1,0.5-0.2,0.8-0.2c0.3,0,0.5,0.1,0.8,0.2c0.2,0.1,0.5,0.3,0.6,0.4c0.2,0.2,0.3,0.4,0.4,0.6c0.1,0.2,0.2,0.5,0.2,0.8
				c0,0.3-0.1,0.6-0.2,0.8c-0.1,0.2-0.2,0.5-0.4,0.6c-0.2,0.2-0.4,0.3-0.6,0.4c-0.2,0.1-0.5,0.2-0.8,0.2c-0.3,0-0.5-0.1-0.8-0.2
				c-0.2-0.1-0.5-0.2-0.6-0.4c-0.2-0.2-0.3-0.4-0.4-0.6C2184.1,177.8,2184.1,177.5,2184.1,177.2z"/>
			<path class="st1" d="M2195.7,179v-13.8l-1.8-0.2c-0.2-0.1-0.4-0.1-0.6-0.2c-0.1-0.1-0.2-0.3-0.2-0.5v-1.2h2.6v-1.6
				c0-0.9,0.1-1.8,0.4-2.5c0.3-0.7,0.6-1.3,1.1-1.8s1.1-0.9,1.8-1.1c0.7-0.3,1.5-0.4,2.3-0.4c0.7,0,1.4,0.1,2,0.3l-0.1,1.4
				c0,0.2-0.1,0.3-0.3,0.4c-0.2,0-0.4,0.1-0.7,0.1h-0.5c-0.5,0-0.9,0.1-1.3,0.2s-0.7,0.3-1,0.6s-0.5,0.7-0.7,1.1
				c-0.2,0.5-0.2,1.1-0.2,1.7v1.5h4.7v2.1h-4.6V179H2195.7z"/>
		</g>
		<text transform="matrix(1 0 0 1 2206.8379 179)" class="st1 st35 st36 st37"> </text>
		<text transform="matrix(1 0 0 1 2206.8401 179)" class="st1 st35 st36 st37">i</text>
	</g>
</g>
</svg>
