<?xml version="1.0" encoding="utf-8"?>
<!-- Generator: Adobe Illustrator 19.2.1, SVG Export Plug-In . SVG Version: 6.00 Build 0)  -->
<svg version="1.1" id="Layer_1" xmlns="http://www.w3.org/2000/svg" xmlns:xlink="http://www.w3.org/1999/xlink" x="0px" y="0px"
	 viewBox="0 0 1201 228" style="enable-background:new 0 0 1201 228;" xml:space="preserve">
<style type="text/css">
	.st0{fill:#A6A6A6;}
	.st1{fill:#FFFFFF;}
	.st2{filter:url(#Adobe_OpacityMaskFilter);}
	.st3{mask:url(#mask-2_1_);}
	.st4{filter:url(#Adobe_OpacityMaskFilter_1_);}
	.st5{mask:url(#mask-4_1_);}
	.st6{enable-background:new    ;}
</style>
<title>ICTexpo-2</title>
<desc>Created with Sketch.</desc>
<g id="Page-1_2_">
	<g id="ICTexpo-2">
		<g id="Rectangle-1">
			<rect y="0" class="st0" width="1201" height="228"/>
		</g>
		<g id="Page-1" transform="translate(109.000000, 58.000000)">
			<g id="Fill-1">
				<path class="st1" d="M0,4.7c0-1.5,1.3-2.8,2.8-2.8h17.7c1.5,0,2.8,1.3,2.8,2.8v97.6c0,1.5-1.3,2.8-2.8,2.8H2.8
					c-1.5,0-2.8-1.3-2.8-2.8V4.7z"/>
			</g>
			<g id="Group-5">
				<g id="Clip-4">
				</g>
				<defs>
					<filter id="Adobe_OpacityMaskFilter" filterUnits="userSpaceOnUse" x="26.3" y="0.4" width="89.8" height="106.1">
						<feColorMatrix  type="matrix" values="1 0 0 0 0  0 1 0 0 0  0 0 1 0 0  0 0 0 1 0"/>
					</filter>
				</defs>
				<mask maskUnits="userSpaceOnUse" x="26.3" y="0.4" width="89.8" height="106.1" id="mask-2_1_">
					<g class="st2">
						<polyline id="path-1_1_" class="st1" points="0,0.4 483,0.4 483,130.3 0,130.3 						"/>
					</g>
				</mask>
				<g id="Fill-3" class="st3">
					<path class="st1" d="M79.5,0.4c14.7,0,25.6,4.6,35.6,13.7c1.3,1.2,1.3,2.9,0.1,4.1l-11.5,11.9c-1,1-2.6,1-3.7,0
						c-5.4-4.9-12.7-7.5-19.9-7.5c-16.6,0-28.9,13.9-28.9,30.4c0,16.4,12.4,29.9,29,29.9c6.9,0,14.4-2.5,19.7-7.1
						c1-0.9,2.9-0.9,3.8,0.1l11.5,12.2c1,1,0.9,2.9-0.1,4c-10,9.7-22.7,14.3-35.8,14.3c-29.4,0-53.1-23.4-53.1-52.9S50,0.4,79.5,0.4
						"/>
				</g>
			</g>
			<g id="Fill-6">
				<path class="st1" d="M142.5,23.6h-21c-1.6,0-2.8-1.3-2.8-2.8V4.7c0-1.5,1.2-2.8,2.8-2.8h65.4c1.6,0,2.8,1.3,2.8,2.8v16.1
					c0,1.5-1.2,2.8-2.8,2.8h-21v78.7c0,1.5-1.3,2.8-2.8,2.8h-17.7c-1.5,0-2.8-1.3-2.8-2.8V23.6z"/>
			</g>
			<g id="Fill-8">
				<path class="st1" d="M214.8,54.9c-0.3-4.2-4.4-7.6-8.5-7.6c-4.4,0-8.1,3.4-8.7,7.6H214.8z M206.9,30c16.4,0,30.6,12.6,30.6,30.4
					c0,1.1-0.2,3.2-0.3,4.4c-0.2,1.6-1.6,2.7-3.1,2.7h-38.7c0.5,4.4,4,10.7,12.4,10.7c4,0,8.7-1.9,11.3-3.9c1.5-1.1,3.1-1.1,4,0
					l8.1,9.7c1,1.3,1.3,3.2-0.2,4.7c-5.6,5.7-13.7,9.2-23.9,9.2c-19.2,0-33.7-15.3-33.7-33.9C173.5,45.7,187.9,30,206.9,30L206.9,30
					z"/>
			</g>
			<g id="Fill-10">
				<path class="st1" d="M237.4,91.4l21-28.1L238,36.5c-1.6-2.1-0.3-4.8,2.4-4.8h19.8c1.3,0,2.3,0.6,2.6,1.3l9,13.2h0.5l9.2-13.2
					c0.3-0.6,1-1.3,2.6-1.3H304c2.7,0,4,2.7,2.4,4.8l-20.3,26.6l20.5,28.3c1.4,2.1,0.2,4.8-2.4,4.8h-19.5c-1.1,0-1.9-0.8-2.4-1.5
					l-9.8-13.9h-0.5c-3.2,4.5-7.6,10.2-10.3,14c-0.5,0.6-1.5,1.3-2.6,1.3h-19.2C237,96.2,235.9,93.5,237.4,91.4"/>
			</g>
			<g id="Fill-12">
				<path class="st1" d="M347.3,77c7.4,0,13.1-5.7,13.1-12.9c0-7.4-5.6-13.2-13.1-13.2s-12.9,5.8-12.9,13.2
					C334.4,71.4,339.9,77,347.3,77L347.3,77z M337,127.2c0,1.6-1.5,3.1-3.1,3.1H316c-1.6,0-3.1-1.5-3.1-3.1V34.7
					c0-1.6,1.4-3.1,3.1-3.1h7.6c1.6,0,2.7,1.5,3.4,3.2l1.9,5.3c0,0,7.4-10.2,21.6-10.2c18.2,0,31.9,15.3,31.9,33.9
					c0,22.8-14.8,33.9-32.1,33.9c-5.5,0-11.4-1.9-13.4-3.1V127.2z"/>
			</g>
			<g id="Fill-14">
				<path class="st1" d="M421,77c7.1,0,12.7-6,12.7-13.2c0-7.1-5.6-12.9-12.7-12.9c-7.1,0-12.7,5.8-12.7,12.9
					C408.3,71.1,413.9,77,421,77 M421,30c18.4,0,33.5,15.5,33.5,33.7c0,18.6-15.2,34.1-33.5,34.1c-18.4,0-33.5-15.5-33.5-34.1
					C387.5,45.5,402.6,30,421,30"/>
			</g>
			<g id="Fill-16">
				<path class="st1" d="M461.2,31.1c2.6,2.2,8.1,6.4,11,8.6c1.3,1,2.5,1.7,3.7,1.7c1.5,0,3-1.1,3-3.5c0-1.6-1.1-2.9-1.9-3.7
					c-0.3-0.3-0.3-0.6,0-0.9l1.6-1.6c0.2-0.2,0.6-0.3,0.9,0c0,0,3.2,2.6,3.2,6.5c0,4.7-3,7.4-6.6,7.4c-2.1,0-3.5-0.9-5.4-2.2
					c-2-1.4-5.1-3.9-7.3-5.7v7.1c0,0.3-0.3,0.6-0.6,0.6h-2.3c-0.3,0-0.6-0.3-0.6-0.6v-13c0-0.4,0.3-0.6,0.6-0.6H461.2z"/>
			</g>
			<g id="Fill-18">
				<path class="st1" d="M471,61c4.9,0,7.7-1.5,7.7-4c0-2.5-2.8-4-7.7-4c-4.9,0-7.7,1.5-7.7,4C463.3,59.5,466.1,61,471,61 M471,48.6
					c7.2,0,11.6,3,11.6,8.3c0,5.3-4.3,8.3-11.6,8.3c-7.2,0-11.6-3-11.6-8.3C459.4,51.7,463.8,48.6,471,48.6"/>
			</g>
			<g id="Fill-20">
				<path class="st1" d="M476.2,71.4l-0.6-2.9c-0.1-0.3,0.1-0.6,0.4-0.7l1.6-0.2c0.3,0,0.5,0,0.6,0.2l4,4.8v2.3
					c0,0.3-0.3,0.6-0.6,0.6h-21.2c-0.3,0-0.6-0.3-0.6-0.6v-2.8c0-0.4,0.3-0.6,0.6-0.6H476.2z"/>
			</g>
			<g id="Group-24">
				<g id="Clip-23">
				</g>
				<defs>
					<filter id="Adobe_OpacityMaskFilter_1_" filterUnits="userSpaceOnUse" x="459.4" y="79.5" width="23.6" height="15.4">
						<feColorMatrix  type="matrix" values="1 0 0 0 0  0 1 0 0 0  0 0 1 0 0  0 0 0 1 0"/>
					</filter>
				</defs>
				<mask maskUnits="userSpaceOnUse" x="459.4" y="79.5" width="23.6" height="15.4" id="mask-4_1_">
					<g class="st4">
						<polyline id="path-3_1_" class="st1" points="0,0.4 483,0.4 483,130.3 0,130.3 						"/>
					</g>
				</mask>
				<g id="Fill-22" class="st5">
					<path class="st1" d="M467.1,91.1c2.1,0,3.9-1.7,3.9-3.8c0-2.2-1.7-3.5-2.9-3.8c-2.2,0-4.9,1.2-4.9,3.9
						C463.2,89.4,465,91.1,467.1,91.1 M483,90.5c0.1,0.5,0,0.8-0.5,0.9l-1.9,0.8c-0.4,0.2-0.8,0-1-0.6c-0.5-1.6-2.7-6.3-6.3-7.3
						c0.3,0.6,0.9,2.2,0.9,3.8c0,3.3-2.4,6.8-7.2,6.8c-4.2,0-7.6-3.4-7.6-7.5c0-5.2,4.2-7.9,9.1-7.9C478.2,79.5,482,87.6,483,90.5"
						/>
				</g>
			</g>
		</g>
		<g class="st6">
			<path class="st1" d="M693.3,52.1v4.4h-8.7V81h-5.4V56.5h-8.7v-4.4H693.3z"/>
			<path class="st1" d="M693.1,60.5h3.9c0.4,0,0.7,0.1,0.9,0.3c0.3,0.2,0.4,0.4,0.5,0.7l2.9,11c0.2,0.6,0.3,1.2,0.4,1.8
				c0.1,0.6,0.2,1.1,0.3,1.7c0.1-0.6,0.3-1.1,0.5-1.7c0.2-0.6,0.3-1.2,0.5-1.8l3.4-11c0.1-0.3,0.2-0.5,0.5-0.7
				c0.2-0.2,0.5-0.3,0.8-0.3h2.2c0.4,0,0.7,0.1,0.9,0.3c0.2,0.2,0.4,0.4,0.5,0.7l3.4,11.2c0.2,0.6,0.3,1.1,0.5,1.7
				c0.1,0.5,0.3,1.1,0.4,1.6c0.1-0.6,0.2-1.1,0.3-1.7c0.1-0.6,0.3-1.2,0.4-1.8l3-11c0.1-0.3,0.2-0.5,0.5-0.7
				c0.3-0.2,0.5-0.3,0.9-0.3h3.7L718,81h-4c-0.4,0-0.7-0.3-0.9-0.9l-3.7-11.9c-0.1-0.4-0.2-0.8-0.3-1.2c-0.1-0.4-0.2-0.8-0.2-1.2
				c-0.1,0.4-0.2,0.8-0.3,1.2c-0.1,0.4-0.2,0.8-0.3,1.2l-3.7,11.8c-0.2,0.6-0.5,0.9-1.1,0.9h-3.8L693.1,60.5z"/>
			<path class="st1" d="M735.2,54.5c0,0.4-0.1,0.8-0.3,1.2c-0.2,0.4-0.4,0.7-0.7,1c-0.3,0.3-0.6,0.5-1,0.7c-0.4,0.2-0.8,0.2-1.2,0.2
				c-0.4,0-0.8-0.1-1.2-0.2c-0.4-0.2-0.7-0.4-1-0.7c-0.3-0.3-0.5-0.6-0.7-1s-0.2-0.8-0.2-1.2c0-0.4,0.1-0.9,0.2-1.2s0.4-0.7,0.7-1
				c0.3-0.3,0.6-0.5,1-0.7c0.4-0.2,0.8-0.2,1.2-0.2c0.4,0,0.9,0.1,1.2,0.2c0.4,0.2,0.7,0.4,1,0.7c0.3,0.3,0.5,0.6,0.7,1
				C735.1,53.6,735.2,54.1,735.2,54.5z M734.5,60.5V81h-4.9V60.5H734.5z"/>
			<path class="st1" d="M748,54.5c0,0.4-0.1,0.8-0.3,1.2c-0.2,0.4-0.4,0.7-0.7,1c-0.3,0.3-0.6,0.5-1,0.7c-0.4,0.2-0.8,0.2-1.2,0.2
				c-0.4,0-0.8-0.1-1.2-0.2c-0.4-0.2-0.7-0.4-1-0.7c-0.3-0.3-0.5-0.6-0.7-1s-0.2-0.8-0.2-1.2c0-0.4,0.1-0.9,0.2-1.2s0.4-0.7,0.7-1
				c0.3-0.3,0.6-0.5,1-0.7c0.4-0.2,0.8-0.2,1.2-0.2c0.4,0,0.9,0.1,1.2,0.2c0.4,0.2,0.7,0.4,1,0.7c0.3,0.3,0.5,0.6,0.7,1
				C747.9,53.6,748,54.1,748,54.5z M747.3,60.5V81h-4.9V60.5H747.3z"/>
			<path class="st1" d="M761.5,81.3c-1.8,0-3.1-0.5-4.1-1.5c-1-1-1.4-2.4-1.4-4.2V64.2h-2.1c-0.3,0-0.5-0.1-0.7-0.3
				c-0.2-0.2-0.3-0.4-0.3-0.8v-2l3.3-0.5l1-5.6c0.1-0.3,0.2-0.5,0.4-0.6s0.4-0.2,0.7-0.2h2.6v6.5h5.4v3.5h-5.4v11.1
				c0,0.6,0.2,1.1,0.5,1.5c0.3,0.4,0.7,0.5,1.3,0.5c0.3,0,0.6,0,0.8-0.1s0.4-0.2,0.5-0.2s0.3-0.2,0.4-0.2c0.1-0.1,0.2-0.1,0.4-0.1
				c0.1,0,0.3,0,0.4,0.1c0.1,0.1,0.2,0.2,0.3,0.3l1.5,2.4c-0.7,0.6-1.5,1.1-2.5,1.4S762.5,81.3,761.5,81.3z"/>
			<path class="st1" d="M779,81.3c-1.8,0-3.1-0.5-4.1-1.5c-1-1-1.4-2.4-1.4-4.2V64.2h-2.1c-0.3,0-0.5-0.1-0.7-0.3
				c-0.2-0.2-0.3-0.4-0.3-0.8v-2l3.3-0.5l1-5.6c0.1-0.3,0.2-0.5,0.4-0.6c0.2-0.1,0.4-0.2,0.7-0.2h2.6v6.5h5.4v3.5h-5.4v11.1
				c0,0.6,0.2,1.1,0.5,1.5c0.3,0.4,0.7,0.5,1.3,0.5c0.3,0,0.6,0,0.8-0.1s0.4-0.2,0.5-0.2c0.2-0.1,0.3-0.2,0.4-0.2
				c0.1-0.1,0.2-0.1,0.4-0.1c0.1,0,0.3,0,0.4,0.1c0.1,0.1,0.2,0.2,0.3,0.3l1.5,2.4c-0.7,0.6-1.5,1.1-2.5,1.4
				C780.9,81.2,780,81.3,779,81.3z"/>
			<path class="st1" d="M805.8,81h-2.2c-0.5,0-0.8-0.1-1.1-0.2c-0.3-0.1-0.5-0.4-0.6-0.8l-0.4-1.5c-0.5,0.5-1,0.9-1.5,1.2
				s-1,0.7-1.5,0.9c-0.5,0.2-1.1,0.4-1.7,0.5s-1.3,0.2-2,0.2c-0.9,0-1.7-0.1-2.4-0.4c-0.7-0.2-1.4-0.6-1.9-1.1
				c-0.5-0.5-0.9-1.1-1.2-1.7c-0.3-0.7-0.4-1.5-0.4-2.4c0-0.8,0.2-1.5,0.6-2.3c0.4-0.8,1.1-1.4,2-2c0.9-0.6,2.2-1.1,3.8-1.5
				s3.5-0.6,5.9-0.6v-1.2c0-1.4-0.3-2.4-0.9-3.1s-1.4-1-2.5-1c-0.8,0-1.5,0.1-2,0.3s-1,0.4-1.4,0.6c-0.4,0.2-0.8,0.4-1.1,0.6
				c-0.3,0.2-0.7,0.3-1.1,0.3c-0.3,0-0.6-0.1-0.9-0.3c-0.2-0.2-0.4-0.4-0.6-0.6l-0.9-1.6c2.4-2.2,5.2-3.2,8.5-3.2
				c1.2,0,2.3,0.2,3.2,0.6c0.9,0.4,1.7,0.9,2.4,1.6s1.2,1.5,1.5,2.5c0.3,1,0.5,2,0.5,3.2V81z M796.2,77.9c0.5,0,1,0,1.4-0.1
				c0.4-0.1,0.8-0.2,1.2-0.4c0.4-0.2,0.7-0.4,1.1-0.7c0.4-0.3,0.7-0.6,1.1-1v-3.4c-1.4,0-2.6,0.1-3.6,0.3c-1,0.2-1.7,0.4-2.3,0.7
				c-0.6,0.3-1,0.6-1.2,1c-0.2,0.4-0.4,0.8-0.4,1.2c0,0.9,0.3,1.5,0.8,1.9C794.7,77.7,795.3,77.9,796.2,77.9z"/>
			<path class="st1" d="M828.7,81h-2.2c-0.5,0-0.8-0.1-1.1-0.2c-0.3-0.1-0.5-0.4-0.6-0.8l-0.4-1.5c-0.5,0.5-1,0.9-1.5,1.2
				s-1,0.7-1.5,0.9c-0.5,0.2-1.1,0.4-1.7,0.5s-1.3,0.2-2,0.2c-0.9,0-1.7-0.1-2.4-0.4c-0.7-0.2-1.4-0.6-1.9-1.1
				c-0.5-0.5-0.9-1.1-1.2-1.7c-0.3-0.7-0.4-1.5-0.4-2.4c0-0.8,0.2-1.5,0.6-2.3c0.4-0.8,1.1-1.4,2-2c0.9-0.6,2.2-1.1,3.8-1.5
				s3.5-0.6,5.9-0.6v-1.2c0-1.4-0.3-2.4-0.9-3.1s-1.4-1-2.5-1c-0.8,0-1.5,0.1-2,0.3s-1,0.4-1.4,0.6c-0.4,0.2-0.8,0.4-1.1,0.6
				c-0.3,0.2-0.7,0.3-1.1,0.3c-0.3,0-0.6-0.1-0.9-0.3c-0.2-0.2-0.4-0.4-0.6-0.6l-0.9-1.6c2.4-2.2,5.2-3.2,8.5-3.2
				c1.2,0,2.3,0.2,3.2,0.6c0.9,0.4,1.7,0.9,2.4,1.6s1.2,1.5,1.5,2.5c0.3,1,0.5,2,0.5,3.2V81z M819.1,77.9c0.5,0,1,0,1.4-0.1
				c0.4-0.1,0.8-0.2,1.2-0.4c0.4-0.2,0.7-0.4,1.1-0.7c0.4-0.3,0.7-0.6,1.1-1v-3.4c-1.4,0-2.6,0.1-3.6,0.3c-1,0.2-1.7,0.4-2.3,0.7
				c-0.6,0.3-1,0.6-1.2,1c-0.2,0.4-0.4,0.8-0.4,1.2c0,0.9,0.3,1.5,0.8,1.9C817.6,77.7,818.2,77.9,819.1,77.9z"/>
			<path class="st1" d="M835.1,64c0-0.4,0.1-0.8,0.2-1.2c0.2-0.4,0.4-0.7,0.6-1s0.6-0.5,1-0.6c0.4-0.2,0.8-0.2,1.2-0.2
				c0.4,0,0.8,0.1,1.2,0.2s0.7,0.4,1,0.6s0.5,0.6,0.6,1c0.2,0.4,0.2,0.8,0.2,1.2c0,0.4-0.1,0.8-0.2,1.2c-0.2,0.4-0.4,0.7-0.6,1
				s-0.6,0.5-1,0.6s-0.8,0.2-1.2,0.2c-0.4,0-0.8-0.1-1.2-0.2c-0.4-0.2-0.7-0.4-1-0.6s-0.5-0.6-0.6-1C835.2,64.8,835.1,64.4,835.1,64
				z M835.1,78.3c0-0.4,0.1-0.8,0.2-1.2c0.2-0.4,0.4-0.7,0.6-1c0.3-0.3,0.6-0.5,1-0.6c0.4-0.2,0.8-0.2,1.2-0.2
				c0.4,0,0.8,0.1,1.2,0.2s0.7,0.4,1,0.6c0.3,0.3,0.5,0.6,0.6,1c0.2,0.4,0.2,0.8,0.2,1.2c0,0.4-0.1,0.8-0.2,1.2
				c-0.2,0.4-0.4,0.7-0.6,1s-0.6,0.5-1,0.6s-0.8,0.2-1.2,0.2c-0.4,0-0.8-0.1-1.2-0.2c-0.4-0.2-0.7-0.4-1-0.6s-0.5-0.6-0.6-1
				C835.2,79.1,835.1,78.7,835.1,78.3z"/>
		</g>
		<g id="Page-1_1_" transform="translate(670.000000, 121.000000)">
			<g>
				<g class="st6">
					<path class="st1" d="M43.6,42.1L41.8,51h-1.7c-0.3,0-0.6-0.1-0.8-0.4c-0.2-0.2-0.3-0.5-0.3-0.9c0-0.1,0-0.1,0-0.2
						c0,0,0-0.1,0-0.2l1.5-7.3h-5.2l-1.5,7.5c-0.1,0.5-0.3,0.9-0.6,1.1S32.5,51,32.1,51h-1.7l1.8-8.9h-3.1c-0.3,0-0.6-0.1-0.8-0.2
						c-0.2-0.2-0.3-0.4-0.3-0.8c0-0.1,0-0.1,0-0.2c0-0.1,0-0.2,0-0.3l0.2-1.2h4.3l1.4-6.8h-4.9l0.3-1.6c0.1-0.4,0.2-0.7,0.5-0.9
						c0.3-0.2,0.7-0.3,1.2-0.3h3.3l1.5-7.5c0.1-0.4,0.3-0.7,0.6-1c0.3-0.2,0.7-0.4,1.1-0.4h1.7l-1.8,8.9h5.2l1.8-8.9h1.7
						c0.4,0,0.6,0.1,0.9,0.3c0.2,0.2,0.3,0.5,0.3,0.8c0,0.1,0,0.2,0,0.3l-1.5,7.5h4.5l-0.3,1.6c-0.1,0.4-0.2,0.7-0.5,0.9
						c-0.3,0.2-0.7,0.3-1.2,0.3h-2.9L44,39.4h3.8c0.3,0,0.6,0.1,0.8,0.2c0.2,0.2,0.3,0.4,0.3,0.9c0,0.1,0,0.1,0,0.2
						c0,0.1,0,0.2,0,0.2l-0.2,1.2H43.6z M35.7,39.4h5.2l1.4-6.8h-5.2L35.7,39.4z"/>
				</g>
				<g class="st6">
					<path class="st1" d="M68.5,51h-4.1V20.9h4.1V51z"/>
					<path class="st1" d="M98.6,44.8c0.2,0,0.4,0.1,0.6,0.3l1.6,1.7c-1.2,1.4-2.7,2.5-4.5,3.3c-1.8,0.8-3.9,1.2-6.4,1.2
						c-2.2,0-4.1-0.4-5.9-1.1s-3.3-1.8-4.5-3.2c-1.2-1.4-2.2-3-2.9-4.9c-0.7-1.9-1-4-1-6.2c0-2.3,0.4-4.3,1.1-6.2
						c0.7-1.9,1.8-3.5,3.1-4.9c1.3-1.4,2.9-2.4,4.8-3.2s3.9-1.1,6.1-1.1c2.2,0,4.1,0.3,5.7,1c1.6,0.7,3,1.6,4.3,2.8l-1.3,1.9
						c-0.1,0.1-0.2,0.3-0.3,0.3c-0.1,0.1-0.3,0.1-0.5,0.1c-0.2,0-0.4-0.1-0.6-0.2c-0.2-0.1-0.4-0.3-0.7-0.5c-0.3-0.2-0.6-0.4-1-0.6
						c-0.4-0.2-0.8-0.4-1.3-0.6s-1.1-0.4-1.8-0.5c-0.7-0.1-1.5-0.2-2.4-0.2c-1.6,0-3.1,0.3-4.4,0.8s-2.5,1.3-3.5,2.4
						c-1,1-1.7,2.3-2.3,3.7c-0.5,1.5-0.8,3.1-0.8,4.9c0,1.9,0.3,3.5,0.8,5c0.5,1.5,1.3,2.7,2.2,3.7c0.9,1,2,1.8,3.3,2.3
						c1.3,0.5,2.6,0.8,4.1,0.8c0.9,0,1.7-0.1,2.4-0.2c0.7-0.1,1.4-0.3,2-0.5c0.6-0.2,1.2-0.5,1.7-0.9c0.5-0.3,1.1-0.8,1.6-1.2
						C98.1,44.9,98.3,44.8,98.6,44.8z"/>
					<path class="st1" d="M127.4,20.9v3.4h-9.7V51h-4.1V24.3h-9.8v-3.4H127.4z"/>
					<path class="st1" d="M151,20.9v3.3h-14.4v10h11.7v3.2h-11.7v10.3H151V51h-18.5V20.9H151z"/>
					<path class="st1" d="M164.7,35.5l-9.9-14.6h4.1c0.3,0,0.5,0,0.7,0.1c0.1,0.1,0.3,0.2,0.4,0.4l7.9,12.1c0.1-0.3,0.2-0.6,0.4-1
						l7.4-11c0.1-0.2,0.3-0.4,0.4-0.5c0.1-0.1,0.3-0.2,0.5-0.2h3.9l-10,14.4L180.7,51h-4c-0.3,0-0.6-0.1-0.7-0.2
						c-0.2-0.2-0.3-0.3-0.4-0.5l-8.1-12.6c-0.1,0.3-0.2,0.6-0.4,0.8l-7.9,11.8c-0.1,0.2-0.3,0.4-0.4,0.5c-0.2,0.2-0.4,0.2-0.7,0.2
						h-3.8L164.7,35.5z"/>
					<path class="st1" d="M190,39.7V51h-4.1V20.9h8.9c1.9,0,3.6,0.2,5,0.7c1.4,0.4,2.6,1.1,3.5,1.9c0.9,0.8,1.6,1.8,2.1,2.9
						c0.5,1.1,0.7,2.4,0.7,3.8c0,1.4-0.2,2.7-0.7,3.8c-0.5,1.2-1.2,2.2-2.2,3c-0.9,0.8-2.1,1.5-3.5,2c-1.4,0.5-3,0.7-4.8,0.7H190z
						 M190,36.5h4.8c1.2,0,2.2-0.2,3.1-0.5c0.9-0.3,1.6-0.7,2.2-1.3c0.6-0.6,1.1-1.2,1.4-2c0.3-0.8,0.5-1.6,0.5-2.5
						c0-1.9-0.6-3.4-1.8-4.5s-3-1.6-5.4-1.6H190V36.5z"/>
					<path class="st1" d="M239.9,36c0,2.3-0.4,4.3-1.1,6.2c-0.7,1.9-1.7,3.5-3,4.9c-1.3,1.4-2.9,2.4-4.7,3.2
						c-1.8,0.7-3.8,1.1-6.1,1.1c-2.2,0-4.2-0.4-6-1.1s-3.4-1.8-4.7-3.2c-1.3-1.4-2.3-3-3-4.9c-0.7-1.9-1.1-4-1.1-6.2
						s0.4-4.3,1.1-6.2c0.7-1.9,1.7-3.5,3-4.9s2.9-2.4,4.7-3.2s3.8-1.1,6-1.1c2.2,0,4.2,0.4,6.1,1.1c1.8,0.8,3.4,1.8,4.7,3.2
						c1.3,1.4,2.3,3,3,4.9C239.5,31.6,239.9,33.7,239.9,36z M235.7,36c0-1.8-0.3-3.5-0.8-5c-0.5-1.5-1.2-2.7-2.1-3.7
						c-0.9-1-2-1.8-3.4-2.3c-1.3-0.5-2.8-0.8-4.4-0.8c-1.6,0-3.1,0.3-4.4,0.8c-1.3,0.5-2.4,1.3-3.4,2.3c-0.9,1-1.6,2.3-2.2,3.7
						c-0.5,1.5-0.8,3.1-0.8,5s0.3,3.5,0.8,5s1.2,2.7,2.2,3.7c0.9,1,2.1,1.8,3.4,2.3c1.3,0.5,2.8,0.8,4.4,0.8c1.6,0,3.1-0.3,4.4-0.8
						c1.3-0.5,2.4-1.3,3.4-2.3c0.9-1,1.6-2.3,2.1-3.7S235.7,37.8,235.7,36z"/>
					<path class="st1" d="M255.2,20.6c1.3,0,2.5,0.2,3.6,0.6s2.1,0.9,2.9,1.6c0.8,0.7,1.4,1.6,1.9,2.6c0.5,1,0.7,2.2,0.7,3.5
						c0,1.1-0.2,2.2-0.5,3.1c-0.3,1-0.8,1.9-1.4,2.7c-0.6,0.9-1.2,1.7-2,2.5c-0.7,0.8-1.5,1.7-2.4,2.5l-7.9,8.1
						c0.6-0.2,1.1-0.3,1.7-0.4c0.6-0.1,1.1-0.1,1.7-0.1h10.1c0.4,0,0.7,0.1,1,0.4c0.2,0.2,0.4,0.5,0.4,0.9V51h-20.1v-1.3
						c0-0.3,0.1-0.5,0.2-0.8s0.3-0.5,0.5-0.8l9.6-9.7c0.8-0.8,1.5-1.6,2.2-2.3s1.2-1.5,1.7-2.3c0.5-0.8,0.8-1.5,1.1-2.3
						c0.3-0.8,0.4-1.6,0.4-2.5s-0.1-1.7-0.4-2.3c-0.3-0.7-0.7-1.2-1.2-1.6c-0.5-0.4-1.1-0.8-1.7-1c-0.7-0.2-1.4-0.3-2.1-0.3
						c-0.8,0-1.5,0.1-2.1,0.3s-1.2,0.5-1.7,0.9c-0.5,0.4-0.9,0.9-1.3,1.4s-0.6,1.1-0.7,1.8c-0.1,0.4-0.3,0.7-0.5,0.9
						s-0.5,0.3-0.9,0.3c-0.1,0-0.1,0-0.2,0s-0.2,0-0.3,0l-2-0.3c0.2-1.4,0.6-2.6,1.1-3.6c0.6-1.1,1.3-1.9,2.1-2.7s1.8-1.3,3-1.6
						C252.7,20.8,253.9,20.6,255.2,20.6z"/>
					<path class="st1" d="M290.9,36c0,2.6-0.3,4.9-0.8,6.8c-0.6,1.9-1.3,3.5-2.3,4.8c-1,1.3-2.1,2.2-3.5,2.8
						c-1.3,0.6-2.8,0.9-4.3,0.9c-1.5,0-3-0.3-4.3-0.9c-1.3-0.6-2.5-1.6-3.5-2.8c-1-1.3-1.8-2.9-2.3-4.8c-0.6-1.9-0.8-4.2-0.8-6.8
						c0-2.6,0.3-4.9,0.8-6.8c0.6-1.9,1.3-3.5,2.3-4.8c1-1.3,2.1-2.2,3.5-2.8s2.8-0.9,4.3-0.9c1.5,0,3,0.3,4.3,0.9s2.5,1.6,3.5,2.8
						c1,1.3,1.8,2.9,2.3,4.8C290.6,31,290.9,33.3,290.9,36z M287,36c0-2.3-0.2-4.2-0.6-5.8c-0.4-1.6-0.9-2.8-1.6-3.8
						c-0.7-1-1.4-1.6-2.3-2c-0.9-0.4-1.7-0.6-2.7-0.6c-0.9,0-1.8,0.2-2.7,0.6c-0.9,0.4-1.6,1.1-2.2,2s-1.2,2.2-1.5,3.8
						c-0.4,1.6-0.6,3.5-0.6,5.8s0.2,4.2,0.6,5.8c0.4,1.6,0.9,2.8,1.5,3.8s1.4,1.6,2.2,2c0.9,0.4,1.7,0.6,2.7,0.6
						c0.9,0,1.8-0.2,2.7-0.6c0.9-0.4,1.6-1.1,2.3-2c0.7-1,1.2-2.2,1.6-3.8C286.8,40.2,287,38.3,287,36z"/>
					<path class="st1" d="M299,48.1h6.5V27.6c0-0.6,0-1.2,0.1-1.9l-5.4,4.6c-0.1,0.1-0.3,0.2-0.4,0.2c-0.1,0-0.3,0.1-0.4,0.1
						c-0.2,0-0.4,0-0.6-0.1c-0.2-0.1-0.3-0.2-0.4-0.3l-1.2-1.6l8.9-7.7h3v27.3h5.9V51H299V48.1z"/>
					<path class="st1" d="M331.7,32.6c1.2,0,2.3,0.2,3.4,0.6c1.1,0.4,2,1,2.8,1.7c0.8,0.8,1.5,1.7,1.9,2.8c0.5,1.1,0.7,2.4,0.7,3.8
						c0,1.4-0.3,2.7-0.8,3.9c-0.5,1.2-1.2,2.2-2.1,3.1c-0.9,0.9-2,1.6-3.3,2.1c-1.3,0.5-2.7,0.8-4.2,0.8c-1.5,0-2.9-0.2-4.1-0.7
						c-1.2-0.5-2.3-1.2-3.1-2.1s-1.5-2-2-3.2c-0.5-1.3-0.7-2.7-0.7-4.3c0-1.3,0.3-2.7,0.9-4.2s1.5-3.1,2.8-4.8l7.6-10.3
						c0.2-0.3,0.5-0.5,0.8-0.6c0.4-0.2,0.8-0.3,1.2-0.3h3.3l-10.4,13.2c0.7-0.5,1.5-0.9,2.4-1.1C329.8,32.7,330.7,32.6,331.7,32.6z
						 M324,41.7c0,1,0.1,1.8,0.4,2.6c0.3,0.8,0.7,1.5,1.2,2.1s1.2,1,2,1.3c0.8,0.3,1.7,0.5,2.7,0.5c1,0,1.9-0.2,2.7-0.5
						c0.8-0.3,1.5-0.8,2.1-1.3c0.6-0.6,1-1.3,1.3-2c0.3-0.8,0.5-1.6,0.5-2.6c0-1-0.2-1.9-0.5-2.7c-0.3-0.8-0.7-1.5-1.3-2
						c-0.6-0.6-1.2-1-2-1.3c-0.8-0.3-1.6-0.4-2.6-0.4c-1,0-1.9,0.2-2.7,0.5c-0.8,0.3-1.5,0.8-2.1,1.4s-1,1.3-1.3,2
						C324.1,40.1,324,40.9,324,41.7z"/>
				</g>
				<g id="Stroke-1">
					<path class="st1" d="M363,72.2H-1v-73h364V72.2z M1,70.2h360v-69H1V70.2z"/>
				</g>
			</g>
		</g>
	</g>
</g>
</svg>
