<?xml version="1.0" encoding="utf-8"?>
<!-- Generator: Adobe Illustrator 19.2.1, SVG Export Plug-In . SVG Version: 6.00 Build 0)  -->
<svg version="1.1" id="Layer_1" xmlns="http://www.w3.org/2000/svg" xmlns:xlink="http://www.w3.org/1999/xlink" x="0px" y="0px"
	 viewBox="0 0 1201 228" style="enable-background:new 0 0 1201 228;" xml:space="preserve">
<style type="text/css">
	.st0{fill:#FFFFFF;}
	.st1{filter:url(#Adobe_OpacityMaskFilter);}
	.st2{mask:url(#mask-2_1_);}
	.st3{filter:url(#Adobe_OpacityMaskFilter_1_);}
	.st4{mask:url(#mask-4_1_);}
	.st5{fill:#4D4D4D;}
	.st6{enable-background:new    ;}
</style>
<title>Rectangle 1</title>
<desc>Created with Sketch.</desc>
<g id="Page-1_2_">
	<g id="ICTexpo-2">
		<g id="Page-1" transform="translate(109.000000, 58.000000)">
			<g id="Fill-1">
				<path class="st0" d="M0,4.7c0-1.5,1.3-2.8,2.8-2.8h17.7c1.5,0,2.8,1.3,2.8,2.8v97.6c0,1.5-1.3,2.8-2.8,2.8H2.8
					c-1.5,0-2.8-1.3-2.8-2.8V4.7z"/>
			</g>
			<g id="Group-5">
				<g id="Clip-4">
				</g>
				<defs>
					<filter id="Adobe_OpacityMaskFilter" filterUnits="userSpaceOnUse" x="26.3" y="0.4" width="89.8" height="106.1">
						<feColorMatrix  type="matrix" values="1 0 0 0 0  0 1 0 0 0  0 0 1 0 0  0 0 0 1 0"/>
					</filter>
				</defs>
				<mask maskUnits="userSpaceOnUse" x="26.3" y="0.4" width="89.8" height="106.1" id="mask-2_1_">
					<g class="st1">
						<polyline id="path-1_1_" class="st0" points="0,0.4 483,0.4 483,130.3 0,130.3 						"/>
					</g>
				</mask>
				<g id="Fill-3" class="st2">
					<path class="st0" d="M79.5,0.4c14.7,0,25.6,4.6,35.6,13.7c1.3,1.2,1.3,2.9,0.1,4.1l-11.5,11.9c-1,1-2.6,1-3.7,0
						c-5.4-4.9-12.7-7.5-19.9-7.5c-16.6,0-28.9,13.9-28.9,30.4c0,16.4,12.4,29.9,29,29.9c6.9,0,14.4-2.5,19.7-7.1
						c1-0.9,2.9-0.9,3.8,0.1l11.5,12.2c1,1,0.9,2.9-0.1,4c-10,9.7-22.7,14.3-35.8,14.3c-29.4,0-53.1-23.4-53.1-52.9S50,0.4,79.5,0.4
						"/>
				</g>
			</g>
			<g id="Fill-6">
				<path class="st0" d="M142.5,23.6h-21c-1.6,0-2.8-1.3-2.8-2.8V4.7c0-1.5,1.2-2.8,2.8-2.8h65.4c1.6,0,2.8,1.3,2.8,2.8v16.1
					c0,1.5-1.2,2.8-2.8,2.8h-21v78.7c0,1.5-1.3,2.8-2.8,2.8h-17.7c-1.5,0-2.8-1.3-2.8-2.8V23.6z"/>
			</g>
			<g id="Fill-8">
				<path class="st0" d="M214.8,54.9c-0.3-4.2-4.4-7.6-8.5-7.6c-4.4,0-8.1,3.4-8.7,7.6H214.8z M206.9,30c16.4,0,30.6,12.6,30.6,30.4
					c0,1.1-0.2,3.2-0.3,4.4c-0.2,1.6-1.6,2.7-3.1,2.7h-38.7c0.5,4.4,4,10.7,12.4,10.7c4,0,8.7-1.9,11.3-3.9c1.5-1.1,3.1-1.1,4,0
					l8.1,9.7c1,1.3,1.3,3.2-0.2,4.7c-5.6,5.7-13.7,9.2-23.9,9.2c-19.2,0-33.7-15.3-33.7-33.9C173.5,45.7,187.9,30,206.9,30L206.9,30
					z"/>
			</g>
			<g id="Fill-10">
				<path class="st0" d="M237.4,91.4l21-28.1L238,36.5c-1.6-2.1-0.3-4.8,2.4-4.8h19.8c1.3,0,2.3,0.6,2.6,1.3l9,13.2h0.5l9.2-13.2
					c0.3-0.6,1-1.3,2.6-1.3H304c2.7,0,4,2.7,2.4,4.8l-20.3,26.6l20.5,28.3c1.4,2.1,0.2,4.8-2.4,4.8h-19.5c-1.1,0-1.9-0.8-2.4-1.5
					l-9.8-13.9h-0.5c-3.2,4.5-7.6,10.2-10.3,14c-0.5,0.6-1.5,1.3-2.6,1.3h-19.2C237,96.2,235.9,93.5,237.4,91.4"/>
			</g>
			<g id="Fill-12">
				<path class="st0" d="M347.3,77c7.4,0,13.1-5.7,13.1-12.9c0-7.4-5.6-13.2-13.1-13.2s-12.9,5.8-12.9,13.2
					C334.4,71.4,339.9,77,347.3,77L347.3,77z M337,127.2c0,1.6-1.5,3.1-3.1,3.1H316c-1.6,0-3.1-1.5-3.1-3.1V34.7
					c0-1.6,1.4-3.1,3.1-3.1h7.6c1.6,0,2.7,1.5,3.4,3.2l1.9,5.3c0,0,7.4-10.2,21.6-10.2c18.2,0,31.9,15.3,31.9,33.9
					c0,22.8-14.8,33.9-32.1,33.9c-5.5,0-11.4-1.9-13.4-3.1V127.2z"/>
			</g>
			<g id="Fill-14">
				<path class="st0" d="M421,77c7.1,0,12.7-6,12.7-13.2c0-7.1-5.6-12.9-12.7-12.9c-7.1,0-12.7,5.8-12.7,12.9
					C408.3,71.1,413.9,77,421,77 M421,30c18.4,0,33.5,15.5,33.5,33.7c0,18.6-15.2,34.1-33.5,34.1c-18.4,0-33.5-15.5-33.5-34.1
					C387.5,45.5,402.6,30,421,30"/>
			</g>
			<g id="Fill-16">
				<path class="st0" d="M461.2,31.1c2.6,2.2,8.1,6.4,11,8.6c1.3,1,2.5,1.7,3.7,1.7c1.5,0,3-1.1,3-3.5c0-1.6-1.1-2.9-1.9-3.7
					c-0.3-0.3-0.3-0.6,0-0.9l1.6-1.6c0.2-0.2,0.6-0.3,0.9,0c0,0,3.2,2.6,3.2,6.5c0,4.7-3,7.4-6.6,7.4c-2.1,0-3.5-0.9-5.4-2.2
					c-2-1.4-5.1-3.9-7.3-5.7v7.1c0,0.3-0.3,0.6-0.6,0.6h-2.3c-0.3,0-0.6-0.3-0.6-0.6v-13c0-0.4,0.3-0.6,0.6-0.6H461.2z"/>
			</g>
			<g id="Fill-18">
				<path class="st0" d="M471,61c4.9,0,7.7-1.5,7.7-4c0-2.5-2.8-4-7.7-4c-4.9,0-7.7,1.5-7.7,4C463.3,59.5,466.1,61,471,61 M471,48.6
					c7.2,0,11.6,3,11.6,8.3c0,5.3-4.3,8.3-11.6,8.3c-7.2,0-11.6-3-11.6-8.3C459.4,51.7,463.8,48.6,471,48.6"/>
			</g>
			<g id="Fill-20">
				<path class="st0" d="M476.2,71.4l-0.6-2.9c-0.1-0.3,0.1-0.6,0.4-0.7l1.6-0.2c0.3,0,0.5,0,0.6,0.2l4,4.8v2.3
					c0,0.3-0.3,0.6-0.6,0.6h-21.2c-0.3,0-0.6-0.3-0.6-0.6v-2.8c0-0.4,0.3-0.6,0.6-0.6H476.2z"/>
			</g>
			<g id="Group-24">
				<g id="Clip-23">
				</g>
				<defs>
					<filter id="Adobe_OpacityMaskFilter_1_" filterUnits="userSpaceOnUse" x="459.4" y="79.5" width="23.6" height="15.4">
						<feColorMatrix  type="matrix" values="1 0 0 0 0  0 1 0 0 0  0 0 1 0 0  0 0 0 1 0"/>
					</filter>
				</defs>
				<mask maskUnits="userSpaceOnUse" x="459.4" y="79.5" width="23.6" height="15.4" id="mask-4_1_">
					<g class="st3">
						<polyline id="path-3_1_" class="st0" points="0,0.4 483,0.4 483,130.3 0,130.3 						"/>
					</g>
				</mask>
				<g id="Fill-22" class="st4">
					<path class="st0" d="M467.1,91.1c2.1,0,3.9-1.7,3.9-3.8c0-2.2-1.7-3.5-2.9-3.8c-2.2,0-4.9,1.2-4.9,3.9
						C463.2,89.4,465,91.1,467.1,91.1 M483,90.5c0.1,0.5,0,0.8-0.5,0.9l-1.9,0.8c-0.4,0.2-0.8,0-1-0.6c-0.5-1.6-2.7-6.3-6.3-7.3
						c0.3,0.6,0.9,2.2,0.9,3.8c0,3.3-2.4,6.8-7.2,6.8c-4.2,0-7.6-3.4-7.6-7.5c0-5.2,4.2-7.9,9.1-7.9C478.2,79.5,482,87.6,483,90.5"
						/>
				</g>
			</g>
		</g>
		<line id="Fill-1_2_" class="st5" x1="2026.7" y1="227.6" x2="2026.7" y2="0"/>
		<g class="st6">
			<path class="st0" d="M693.3,53.1v4.4h-8.7V82h-5.4V57.5h-8.7v-4.4H693.3z"/>
			<path class="st0" d="M693.1,61.5h3.9c0.4,0,0.7,0.1,0.9,0.3c0.3,0.2,0.4,0.4,0.5,0.7l2.9,11c0.2,0.6,0.3,1.2,0.4,1.8
				c0.1,0.6,0.2,1.1,0.3,1.7c0.1-0.6,0.3-1.1,0.5-1.7c0.2-0.6,0.3-1.2,0.5-1.8l3.4-11c0.1-0.3,0.2-0.5,0.5-0.7
				c0.2-0.2,0.5-0.3,0.8-0.3h2.2c0.4,0,0.7,0.1,0.9,0.3c0.2,0.2,0.4,0.4,0.5,0.7l3.4,11.2c0.2,0.6,0.3,1.1,0.5,1.7
				c0.1,0.5,0.3,1.1,0.4,1.6c0.1-0.6,0.2-1.1,0.3-1.7c0.1-0.6,0.3-1.2,0.4-1.8l3-11c0.1-0.3,0.2-0.5,0.5-0.7
				c0.3-0.2,0.5-0.3,0.9-0.3h3.7L718,82h-4c-0.4,0-0.7-0.3-0.9-0.9l-3.7-11.9c-0.1-0.4-0.2-0.8-0.3-1.2c-0.1-0.4-0.2-0.8-0.2-1.2
				c-0.1,0.4-0.2,0.8-0.3,1.2c-0.1,0.4-0.2,0.8-0.3,1.2l-3.7,11.8c-0.2,0.6-0.5,0.9-1.1,0.9h-3.8L693.1,61.5z"/>
			<path class="st0" d="M735.2,55.5c0,0.4-0.1,0.8-0.3,1.2c-0.2,0.4-0.4,0.7-0.7,1c-0.3,0.3-0.6,0.5-1,0.7c-0.4,0.2-0.8,0.2-1.2,0.2
				c-0.4,0-0.8-0.1-1.2-0.2c-0.4-0.2-0.7-0.4-1-0.7c-0.3-0.3-0.5-0.6-0.7-1s-0.2-0.8-0.2-1.2c0-0.4,0.1-0.9,0.2-1.2s0.4-0.7,0.7-1
				c0.3-0.3,0.6-0.5,1-0.7c0.4-0.2,0.8-0.2,1.2-0.2c0.4,0,0.9,0.1,1.2,0.2c0.4,0.2,0.7,0.4,1,0.7c0.3,0.3,0.5,0.6,0.7,1
				C735.1,54.6,735.2,55.1,735.2,55.5z M734.5,61.5V82h-4.9V61.5H734.5z"/>
			<path class="st0" d="M748,55.5c0,0.4-0.1,0.8-0.3,1.2c-0.2,0.4-0.4,0.7-0.7,1c-0.3,0.3-0.6,0.5-1,0.7c-0.4,0.2-0.8,0.2-1.2,0.2
				c-0.4,0-0.8-0.1-1.2-0.2c-0.4-0.2-0.7-0.4-1-0.7c-0.3-0.3-0.5-0.6-0.7-1s-0.2-0.8-0.2-1.2c0-0.4,0.1-0.9,0.2-1.2s0.4-0.7,0.7-1
				c0.3-0.3,0.6-0.5,1-0.7c0.4-0.2,0.8-0.2,1.2-0.2c0.4,0,0.9,0.1,1.2,0.2c0.4,0.2,0.7,0.4,1,0.7c0.3,0.3,0.5,0.6,0.7,1
				C747.9,54.6,748,55.1,748,55.5z M747.3,61.5V82h-4.9V61.5H747.3z"/>
			<path class="st0" d="M761.5,82.3c-1.8,0-3.1-0.5-4.1-1.5c-1-1-1.4-2.4-1.4-4.2V65.2h-2.1c-0.3,0-0.5-0.1-0.7-0.3
				c-0.2-0.2-0.3-0.4-0.3-0.8v-2l3.3-0.5l1-5.6c0.1-0.3,0.2-0.5,0.4-0.6s0.4-0.2,0.7-0.2h2.6v6.5h5.4v3.5h-5.4v11.1
				c0,0.6,0.2,1.1,0.5,1.5c0.3,0.4,0.7,0.5,1.3,0.5c0.3,0,0.6,0,0.8-0.1s0.4-0.2,0.5-0.2s0.3-0.2,0.4-0.2c0.1-0.1,0.2-0.1,0.4-0.1
				c0.1,0,0.3,0,0.4,0.1c0.1,0.1,0.2,0.2,0.3,0.3l1.5,2.4c-0.7,0.6-1.5,1.1-2.5,1.4S762.5,82.3,761.5,82.3z"/>
			<path class="st0" d="M779,82.3c-1.8,0-3.1-0.5-4.1-1.5c-1-1-1.4-2.4-1.4-4.2V65.2h-2.1c-0.3,0-0.5-0.1-0.7-0.3
				c-0.2-0.2-0.3-0.4-0.3-0.8v-2l3.3-0.5l1-5.6c0.1-0.3,0.2-0.5,0.4-0.6c0.2-0.1,0.4-0.2,0.7-0.2h2.6v6.5h5.4v3.5h-5.4v11.1
				c0,0.6,0.2,1.1,0.5,1.5c0.3,0.4,0.7,0.5,1.3,0.5c0.3,0,0.6,0,0.8-0.1s0.4-0.2,0.5-0.2c0.2-0.1,0.3-0.2,0.4-0.2
				c0.1-0.1,0.2-0.1,0.4-0.1c0.1,0,0.3,0,0.4,0.1c0.1,0.1,0.2,0.2,0.3,0.3l1.5,2.4c-0.7,0.6-1.5,1.1-2.5,1.4
				C780.9,82.2,780,82.3,779,82.3z"/>
			<path class="st0" d="M805.8,82h-2.2c-0.5,0-0.8-0.1-1.1-0.2c-0.3-0.1-0.5-0.4-0.6-0.8l-0.4-1.5c-0.5,0.5-1,0.9-1.5,1.2
				s-1,0.7-1.5,0.9c-0.5,0.2-1.1,0.4-1.7,0.5s-1.3,0.2-2,0.2c-0.9,0-1.7-0.1-2.4-0.4c-0.7-0.2-1.4-0.6-1.9-1.1
				c-0.5-0.5-0.9-1.1-1.2-1.7c-0.3-0.7-0.4-1.5-0.4-2.4c0-0.8,0.2-1.5,0.6-2.3c0.4-0.8,1.1-1.4,2-2c0.9-0.6,2.2-1.1,3.8-1.5
				s3.5-0.6,5.9-0.6v-1.2c0-1.4-0.3-2.4-0.9-3.1s-1.4-1-2.5-1c-0.8,0-1.5,0.1-2,0.3s-1,0.4-1.4,0.6c-0.4,0.2-0.8,0.4-1.1,0.6
				c-0.3,0.2-0.7,0.3-1.1,0.3c-0.3,0-0.6-0.1-0.9-0.3c-0.2-0.2-0.4-0.4-0.6-0.6l-0.9-1.6c2.4-2.2,5.2-3.2,8.5-3.2
				c1.2,0,2.3,0.2,3.2,0.6c0.9,0.4,1.7,0.9,2.4,1.6s1.2,1.5,1.5,2.5c0.3,1,0.5,2,0.5,3.2V82z M796.2,78.9c0.5,0,1,0,1.4-0.1
				c0.4-0.1,0.8-0.2,1.2-0.4c0.4-0.2,0.7-0.4,1.1-0.7c0.4-0.3,0.7-0.6,1.1-1v-3.4c-1.4,0-2.6,0.1-3.6,0.3c-1,0.2-1.7,0.4-2.3,0.7
				c-0.6,0.3-1,0.6-1.2,1c-0.2,0.4-0.4,0.8-0.4,1.2c0,0.9,0.3,1.5,0.8,1.9C794.7,78.7,795.3,78.9,796.2,78.9z"/>
			<path class="st0" d="M828.7,82h-2.2c-0.5,0-0.8-0.1-1.1-0.2c-0.3-0.1-0.5-0.4-0.6-0.8l-0.4-1.5c-0.5,0.5-1,0.9-1.5,1.2
				s-1,0.7-1.5,0.9c-0.5,0.2-1.1,0.4-1.7,0.5s-1.3,0.2-2,0.2c-0.9,0-1.7-0.1-2.4-0.4c-0.7-0.2-1.4-0.6-1.9-1.1
				c-0.5-0.5-0.9-1.1-1.2-1.7c-0.3-0.7-0.4-1.5-0.4-2.4c0-0.8,0.2-1.5,0.6-2.3c0.4-0.8,1.1-1.4,2-2c0.9-0.6,2.2-1.1,3.8-1.5
				s3.5-0.6,5.9-0.6v-1.2c0-1.4-0.3-2.4-0.9-3.1s-1.4-1-2.5-1c-0.8,0-1.5,0.1-2,0.3s-1,0.4-1.4,0.6c-0.4,0.2-0.8,0.4-1.1,0.6
				c-0.3,0.2-0.7,0.3-1.1,0.3c-0.3,0-0.6-0.1-0.9-0.3c-0.2-0.2-0.4-0.4-0.6-0.6l-0.9-1.6c2.4-2.2,5.2-3.2,8.5-3.2
				c1.2,0,2.3,0.2,3.2,0.6c0.9,0.4,1.7,0.9,2.4,1.6s1.2,1.5,1.5,2.5c0.3,1,0.5,2,0.5,3.2V82z M819.1,78.9c0.5,0,1,0,1.4-0.1
				c0.4-0.1,0.8-0.2,1.2-0.4c0.4-0.2,0.7-0.4,1.1-0.7c0.4-0.3,0.7-0.6,1.1-1v-3.4c-1.4,0-2.6,0.1-3.6,0.3c-1,0.2-1.7,0.4-2.3,0.7
				c-0.6,0.3-1,0.6-1.2,1c-0.2,0.4-0.4,0.8-0.4,1.2c0,0.9,0.3,1.5,0.8,1.9C817.6,78.7,818.2,78.9,819.1,78.9z"/>
			<path class="st0" d="M835.1,65c0-0.4,0.1-0.8,0.2-1.2c0.2-0.4,0.4-0.7,0.6-1s0.6-0.5,1-0.6c0.4-0.2,0.8-0.2,1.2-0.2
				c0.4,0,0.8,0.1,1.2,0.2s0.7,0.4,1,0.6s0.5,0.6,0.6,1c0.2,0.4,0.2,0.8,0.2,1.2c0,0.4-0.1,0.8-0.2,1.2c-0.2,0.4-0.4,0.7-0.6,1
				s-0.6,0.5-1,0.6s-0.8,0.2-1.2,0.2c-0.4,0-0.8-0.1-1.2-0.2c-0.4-0.2-0.7-0.4-1-0.6s-0.5-0.6-0.6-1C835.2,65.8,835.1,65.4,835.1,65
				z M835.1,79.3c0-0.4,0.1-0.8,0.2-1.2c0.2-0.4,0.4-0.7,0.6-1c0.3-0.3,0.6-0.5,1-0.6c0.4-0.2,0.8-0.2,1.2-0.2
				c0.4,0,0.8,0.1,1.2,0.2s0.7,0.4,1,0.6c0.3,0.3,0.5,0.6,0.6,1c0.2,0.4,0.2,0.8,0.2,1.2c0,0.4-0.1,0.8-0.2,1.2
				c-0.2,0.4-0.4,0.7-0.6,1s-0.6,0.5-1,0.6s-0.8,0.2-1.2,0.2c-0.4,0-0.8-0.1-1.2-0.2c-0.4-0.2-0.7-0.4-1-0.6s-0.5-0.6-0.6-1
				C835.2,80.1,835.1,79.7,835.1,79.3z"/>
		</g>
		<g id="Page-1_1_" transform="translate(670.000000, 123.104615)">
			<g class="st6">
				<path class="st0" d="M36.8,29.9l-1.5,7.5h-1.4c-0.3,0-0.5-0.1-0.7-0.3c-0.2-0.2-0.3-0.5-0.3-0.8c0,0,0-0.1,0-0.1s0-0.1,0-0.2
					l1.3-6.1h-4.4l-1.3,6.3c-0.1,0.4-0.3,0.7-0.5,0.9c-0.3,0.2-0.6,0.3-0.9,0.3h-1.4l1.5-7.5h-2.6c-0.3,0-0.5-0.1-0.6-0.2
					c-0.2-0.1-0.2-0.4-0.2-0.7c0-0.1,0-0.1,0-0.2s0-0.1,0-0.2l0.1-1h3.6l1.2-5.8h-4.1l0.2-1.3c0.1-0.3,0.2-0.6,0.4-0.8
					c0.2-0.2,0.6-0.2,1-0.2h2.8l1.3-6.4c0.1-0.4,0.2-0.6,0.5-0.8c0.3-0.2,0.6-0.3,0.9-0.3h1.4l-1.5,7.5h4.4l1.5-7.5H39
					c0.3,0,0.5,0.1,0.7,0.3c0.2,0.2,0.3,0.4,0.3,0.7c0,0.1,0,0.2,0,0.2l-1.3,6.3h3.8l-0.2,1.3c-0.1,0.3-0.2,0.6-0.4,0.8
					c-0.2,0.2-0.6,0.2-1,0.2h-2.4l-1.2,5.8h3.2c0.3,0,0.5,0.1,0.7,0.2c0.2,0.1,0.2,0.4,0.2,0.7c0,0.1,0,0.1,0,0.2s0,0.1,0,0.2
					l-0.2,1H36.8z M30.2,27.6h4.4l1.2-5.8h-4.4L30.2,27.6z"/>
			</g>
			<g class="st6">
				<path class="st0" d="M57.9,37.4h-3.4V12h3.4V37.4z"/>
				<path class="st0" d="M83.4,32.2c0.2,0,0.4,0.1,0.5,0.2l1.3,1.5c-1,1.2-2.3,2.1-3.8,2.8c-1.5,0.7-3.3,1-5.4,1c-1.8,0-3.5-0.3-5-1
					c-1.5-0.6-2.8-1.5-3.8-2.7c-1.1-1.1-1.9-2.5-2.5-4.1c-0.6-1.6-0.9-3.4-0.9-5.3s0.3-3.7,0.9-5.3s1.5-3,2.6-4.1
					c1.1-1.1,2.5-2,4-2.7c1.6-0.6,3.3-0.9,5.2-0.9c1.9,0,3.5,0.3,4.8,0.9s2.6,1.4,3.6,2.4l-1.1,1.6c-0.1,0.1-0.2,0.2-0.3,0.3
					s-0.3,0.1-0.5,0.1c-0.2,0-0.3-0.1-0.5-0.2c-0.2-0.1-0.4-0.3-0.6-0.4c-0.2-0.2-0.5-0.3-0.8-0.5c-0.3-0.2-0.7-0.4-1.1-0.5
					c-0.4-0.2-0.9-0.3-1.5-0.4c-0.6-0.1-1.2-0.2-2-0.2c-1.4,0-2.6,0.2-3.7,0.7s-2.1,1.1-2.9,2c-0.8,0.9-1.5,1.9-1.9,3.2
					c-0.5,1.2-0.7,2.6-0.7,4.2c0,1.6,0.2,3,0.7,4.2c0.5,1.2,1.1,2.3,1.9,3.2s1.7,1.5,2.8,2c1.1,0.5,2.2,0.7,3.5,0.7
					c0.8,0,1.4,0,2-0.1s1.2-0.2,1.7-0.4c0.5-0.2,1-0.4,1.4-0.7s0.9-0.6,1.3-1C83,32.2,83.2,32.2,83.4,32.2z"/>
				<path class="st0" d="M107.9,12v2.9h-8.2v22.5h-3.4V14.9H88V12H107.9z"/>
				<path class="st0" d="M115.2,19.1c1.1,0,2.1,0.2,3,0.5c0.9,0.4,1.7,0.9,2.4,1.6c0.7,0.7,1.2,1.5,1.6,2.5c0.4,1,0.6,2.1,0.6,3.4
					c0,0.5-0.1,0.8-0.2,1c-0.1,0.2-0.3,0.2-0.6,0.2h-12c0,1.1,0.2,2.1,0.5,3c0.3,0.8,0.7,1.5,1.2,2.1s1.1,1,1.8,1.3
					c0.7,0.3,1.5,0.4,2.3,0.4c0.8,0,1.5-0.1,2.1-0.3c0.6-0.2,1.1-0.4,1.5-0.6c0.4-0.2,0.8-0.4,1-0.6c0.3-0.2,0.5-0.3,0.7-0.3
					c0.3,0,0.5,0.1,0.6,0.3l0.9,1.2c-0.4,0.5-0.9,0.9-1.4,1.2c-0.5,0.3-1.1,0.6-1.7,0.9c-0.6,0.2-1.3,0.4-1.9,0.5s-1.3,0.2-2,0.2
					c-1.2,0-2.4-0.2-3.4-0.6s-2-1-2.7-1.8c-0.8-0.8-1.4-1.8-1.8-3s-0.6-2.6-0.6-4.1c0-1.3,0.2-2.4,0.6-3.5c0.4-1.1,0.9-2,1.7-2.8
					c0.7-0.8,1.6-1.4,2.6-1.9C112.7,19.4,113.9,19.1,115.2,19.1z M115.3,21.5c-1.5,0-2.7,0.4-3.6,1.3c-0.9,0.9-1.4,2.1-1.6,3.7h9.8
					c0-0.7-0.1-1.4-0.3-2c-0.2-0.6-0.5-1.1-0.9-1.6c-0.4-0.4-0.9-0.8-1.4-1C116.6,21.6,116,21.5,115.3,21.5z"/>
				<path class="st0" d="M130.6,28.2l-6.1-8.8h3c0.3,0,0.4,0,0.6,0.1c0.1,0.1,0.2,0.2,0.3,0.4l4.4,6.7c0.1-0.3,0.3-0.7,0.5-1
					l3.9-5.7c0.1-0.2,0.2-0.3,0.4-0.4s0.3-0.2,0.4-0.2h2.9l-6.1,8.6l6.3,9.4h-3c-0.3,0-0.5-0.1-0.6-0.2c-0.1-0.1-0.3-0.3-0.4-0.5
					l-4.5-7c-0.1,0.3-0.2,0.7-0.4,0.9l-4.2,6.1c-0.1,0.2-0.2,0.3-0.4,0.5c-0.1,0.1-0.3,0.2-0.6,0.2h-2.8L130.6,28.2z"/>
				<path class="st0" d="M145.1,43.5V19.4h1.9c0.5,0,0.7,0.2,0.9,0.7l0.3,2.1c0.8-0.9,1.6-1.7,2.6-2.3c1-0.6,2.1-0.9,3.4-0.9
					c1,0,2,0.2,2.8,0.6s1.6,1,2.1,1.8c0.6,0.8,1,1.7,1.4,2.9c0.3,1.1,0.5,2.5,0.5,4c0,1.3-0.2,2.6-0.5,3.7c-0.4,1.1-0.9,2.1-1.5,3
					c-0.7,0.8-1.5,1.5-2.4,2c-1,0.5-2,0.7-3.3,0.7c-1.1,0-2.1-0.2-2.8-0.5c-0.8-0.4-1.5-0.9-2.1-1.6v8H145.1z M153.1,21.7
					c-1,0-1.9,0.2-2.7,0.7s-1.5,1.1-2.1,2v8.7c0.6,0.8,1.2,1.3,1.9,1.7c0.7,0.3,1.5,0.5,2.3,0.5c1.7,0,3-0.6,3.9-1.8
					s1.3-2.9,1.3-5.1c0-1.2-0.1-2.2-0.3-3s-0.5-1.5-0.9-2.1c-0.4-0.5-0.9-0.9-1.4-1.2C154.5,21.8,153.8,21.7,153.1,21.7z"/>
				<path class="st0" d="M172.7,19.1c1.3,0,2.5,0.2,3.6,0.7s2,1.1,2.7,1.9s1.3,1.8,1.7,2.9c0.4,1.1,0.6,2.4,0.6,3.8
					c0,1.4-0.2,2.7-0.6,3.8c-0.4,1.1-1,2.1-1.7,2.9c-0.7,0.8-1.6,1.4-2.7,1.9s-2.2,0.6-3.6,0.6c-1.3,0-2.5-0.2-3.6-0.6s-2-1-2.7-1.9
					c-0.7-0.8-1.3-1.8-1.7-2.9c-0.4-1.1-0.6-2.4-0.6-3.8c0-1.4,0.2-2.7,0.6-3.8c0.4-1.1,1-2.1,1.7-2.9s1.6-1.4,2.7-1.9
					S171.4,19.1,172.7,19.1z M172.7,35.2c1.8,0,3.1-0.6,4-1.8c0.9-1.2,1.3-2.8,1.3-5c0-2.1-0.4-3.8-1.3-5c-0.9-1.2-2.2-1.8-4-1.8
					c-0.9,0-1.7,0.2-2.3,0.5c-0.7,0.3-1.2,0.8-1.7,1.3c-0.4,0.6-0.8,1.3-1,2.1c-0.2,0.8-0.3,1.8-0.3,2.9c0,1.1,0.1,2,0.3,2.9
					c0.2,0.8,0.6,1.5,1,2.1c0.4,0.6,1,1,1.7,1.3C171.1,35,171.8,35.2,172.7,35.2z"/>
				<path class="st0" d="M207.1,37.4h-3.5V25.8h-13.7v11.6h-3.5V12h3.5v11.3h13.7V12h3.5V37.4z"/>
				<path class="st0" d="M217.9,23.1h1.3c0.4,0,0.8-0.1,1.1-0.2c0.3-0.1,0.5-0.3,0.8-0.6l8.5-9.6c0.3-0.3,0.5-0.5,0.8-0.6
					c0.2-0.1,0.6-0.2,0.9-0.2h2.9l-9.7,11c-0.2,0.3-0.5,0.5-0.7,0.7s-0.5,0.3-0.7,0.5c0.3,0.1,0.6,0.3,0.9,0.5
					c0.2,0.2,0.5,0.5,0.8,0.8l10.1,12.1h-3c-0.2,0-0.4,0-0.6-0.1c-0.2,0-0.3-0.1-0.4-0.1c-0.1-0.1-0.2-0.1-0.3-0.2s-0.2-0.2-0.3-0.3
					l-8.8-10.1c-0.1-0.1-0.3-0.3-0.4-0.4c-0.1-0.1-0.2-0.2-0.4-0.3c-0.1-0.1-0.3-0.1-0.5-0.2s-0.4,0-0.7,0h-1.6v11.6h-3.4V12h3.4
					V23.1z"/>
				<path class="st0" d="M243.1,37.4h-3.4V12h3.4V37.4z"/>
			</g>
			<g id="Stroke-1">
				<path class="st0" d="M269,61H-1V-7.9h270V61z M1,59h266V-5.9H1V59z"/>
			</g>
		</g>
	</g>
</g>
</svg>
