<?xml version="1.0" encoding="utf-8"?>
<!-- Generator: Adobe Illustrator 19.2.1, SVG Export Plug-In . SVG Version: 6.00 Build 0)  -->
<svg version="1.1" id="Layer_1" xmlns="http://www.w3.org/2000/svg" xmlns:xlink="http://www.w3.org/1999/xlink" x="0px" y="0px"
	 viewBox="0 0 1201 228" style="enable-background:new 0 0 1201 228;" xml:space="preserve">
<style type="text/css">
	.st0{fill:#FFFFFF;}
	.st1{fill:none;}
	.st2{enable-background:new    ;}
</style>
<title>Rectangle 1</title>
<desc>Created with Sketch.</desc>
<g id="Page-1_2_">
	<g id="ICTexpo-2">
		<g id="Page-1" transform="translate(109.000000, 58.000000)">
			<g id="Fill-1">
				<path class="st0" d="M0,4.7c0-1.5,1.3-2.8,2.8-2.8h17.7c1.5,0,2.8,1.3,2.8,2.8v97.6c0,1.5-1.3,2.8-2.8,2.8H2.8
					c-1.5,0-2.8-1.3-2.8-2.8V4.7z"/>
			</g>
			<g id="Group-5">
				<g id="Clip-4">
				</g>
				<g id="Fill-3">
					<path class="st0" d="M79.5,0.4c14.7,0,25.6,4.6,35.6,13.7c1.3,1.2,1.3,2.9,0.1,4.1l-11.5,11.9c-1,1-2.6,1-3.7,0
						c-5.4-4.9-12.7-7.5-19.9-7.5c-16.6,0-28.9,13.9-28.9,30.4c0,16.4,12.4,29.9,29,29.9c6.9,0,14.4-2.5,19.7-7.1
						c1-0.9,2.9-0.9,3.8,0.1l11.5,12.2c1,1,0.9,2.9-0.1,4c-10,9.7-22.7,14.3-35.8,14.3c-29.4,0-53.1-23.4-53.1-52.9S50,0.4,79.5,0.4
						"/>
				</g>
			</g>
			<g id="Fill-6">
				<path class="st0" d="M142.5,23.6h-21c-1.6,0-2.8-1.3-2.8-2.8V4.7c0-1.5,1.2-2.8,2.8-2.8h65.4c1.6,0,2.8,1.3,2.8,2.8v16.1
					c0,1.5-1.2,2.8-2.8,2.8h-21v78.7c0,1.5-1.3,2.8-2.8,2.8h-17.7c-1.5,0-2.8-1.3-2.8-2.8L142.5,23.6L142.5,23.6z"/>
			</g>
			<g id="Fill-8">
				<path class="st0" d="M214.8,54.9c-0.3-4.2-4.4-7.6-8.5-7.6c-4.4,0-8.1,3.4-8.7,7.6H214.8z M206.9,30c16.4,0,30.6,12.6,30.6,30.4
					c0,1.1-0.2,3.2-0.3,4.4c-0.2,1.6-1.6,2.7-3.1,2.7h-38.7c0.5,4.4,4,10.7,12.4,10.7c4,0,8.7-1.9,11.3-3.9c1.5-1.1,3.1-1.1,4,0
					l8.1,9.7c1,1.3,1.3,3.2-0.2,4.7c-5.6,5.7-13.7,9.2-23.9,9.2c-19.2,0-33.7-15.3-33.7-33.9C173.5,45.7,187.9,30,206.9,30L206.9,30
					z"/>
			</g>
			<g id="Fill-10">
				<path class="st0" d="M237.4,91.4l21-28.1L238,36.5c-1.6-2.1-0.3-4.8,2.4-4.8h19.8c1.3,0,2.3,0.6,2.6,1.3l9,13.2h0.5l9.2-13.2
					c0.3-0.6,1-1.3,2.6-1.3H304c2.7,0,4,2.7,2.4,4.8l-20.3,26.6l20.5,28.3c1.4,2.1,0.2,4.8-2.4,4.8h-19.5c-1.1,0-1.9-0.8-2.4-1.5
					l-9.8-13.9H272c-3.2,4.5-7.6,10.2-10.3,14c-0.5,0.6-1.5,1.3-2.6,1.3h-19.2C237,96.2,235.9,93.5,237.4,91.4"/>
			</g>
			<g id="Fill-12">
				<path class="st0" d="M347.3,77c7.4,0,13.1-5.7,13.1-12.9c0-7.4-5.6-13.2-13.1-13.2s-12.9,5.8-12.9,13.2
					C334.4,71.4,339.9,77,347.3,77L347.3,77z M337,127.2c0,1.6-1.5,3.1-3.1,3.1H316c-1.6,0-3.1-1.5-3.1-3.1V34.7
					c0-1.6,1.4-3.1,3.1-3.1h7.6c1.6,0,2.7,1.5,3.4,3.2l1.9,5.3c0,0,7.4-10.2,21.6-10.2c18.2,0,31.9,15.3,31.9,33.9
					c0,22.8-14.8,33.9-32.1,33.9c-5.5,0-11.4-1.9-13.4-3.1v32.6H337z"/>
			</g>
			<g id="Fill-14">
				<path class="st0" d="M421,77c7.1,0,12.7-6,12.7-13.2c0-7.1-5.6-12.9-12.7-12.9s-12.7,5.8-12.7,12.9C408.3,71.1,413.9,77,421,77
					 M421,30c18.4,0,33.5,15.5,33.5,33.7c0,18.6-15.2,34.1-33.5,34.1c-18.4,0-33.5-15.5-33.5-34.1C387.5,45.5,402.6,30,421,30"/>
			</g>
			<g id="Fill-16">
				<path class="st0" d="M461.2,31.1c2.6,2.2,8.1,6.4,11,8.6c1.3,1,2.5,1.7,3.7,1.7c1.5,0,3-1.1,3-3.5c0-1.6-1.1-2.9-1.9-3.7
					c-0.3-0.3-0.3-0.6,0-0.9l1.6-1.6c0.2-0.2,0.6-0.3,0.9,0c0,0,3.2,2.6,3.2,6.5c0,4.7-3,7.4-6.6,7.4c-2.1,0-3.5-0.9-5.4-2.2
					c-2-1.4-5.1-3.9-7.3-5.7v7.1c0,0.3-0.3,0.6-0.6,0.6h-2.3c-0.3,0-0.6-0.3-0.6-0.6v-13c0-0.4,0.3-0.6,0.6-0.6L461.2,31.1
					L461.2,31.1z"/>
			</g>
			<g id="Fill-18">
				<path class="st0" d="M471,61c4.9,0,7.7-1.5,7.7-4s-2.8-4-7.7-4c-4.9,0-7.7,1.5-7.7,4S466.1,61,471,61 M471,48.6
					c7.2,0,11.6,3,11.6,8.3s-4.3,8.3-11.6,8.3c-7.2,0-11.6-3-11.6-8.3C459.4,51.7,463.8,48.6,471,48.6"/>
			</g>
			<g id="Fill-20">
				<path class="st0" d="M476.2,71.4l-0.6-2.9c-0.1-0.3,0.1-0.6,0.4-0.7l1.6-0.2c0.3,0,0.5,0,0.6,0.2l4,4.8v2.3
					c0,0.3-0.3,0.6-0.6,0.6h-21.2c-0.3,0-0.6-0.3-0.6-0.6v-2.8c0-0.4,0.3-0.6,0.6-0.6h15.8V71.4z"/>
			</g>
			<g id="Group-24">
				<g id="Clip-23">
				</g>
				<g id="Fill-22">
					<path class="st0" d="M467.1,91.1c2.1,0,3.9-1.7,3.9-3.8c0-2.2-1.7-3.5-2.9-3.8c-2.2,0-4.9,1.2-4.9,3.9
						C463.2,89.4,465,91.1,467.1,91.1 M483,90.5c0.1,0.5,0,0.8-0.5,0.9l-1.9,0.8c-0.4,0.2-0.8,0-1-0.6c-0.5-1.6-2.7-6.3-6.3-7.3
						c0.3,0.6,0.9,2.2,0.9,3.8c0,3.3-2.4,6.8-7.2,6.8c-4.2,0-7.6-3.4-7.6-7.5c0-5.2,4.2-7.9,9.1-7.9C478.2,79.5,482,87.6,483,90.5"
						/>
				</g>
			</g>
		</g>
		<line id="Fill-1_2_" class="st1" x1="2026.7" y1="227.6" x2="2026.7" y2="0"/>
		<g class="st2">
			<path class="st0" d="M706.4,13.2V20H693v37.8h-8.3V20h-13.4v-6.8H706.4z"/>
			<path class="st0" d="M706.1,26.2h6c0.6,0,1.1,0.2,1.4,0.5c0.5,0.3,0.6,0.6,0.8,1.1l4.5,17c0.3,0.9,0.5,1.8,0.6,2.8
				c0.2,0.9,0.3,1.7,0.5,2.6c0.2-0.9,0.5-1.7,0.8-2.6c0.3-0.9,0.5-1.8,0.8-2.8l5.2-17c0.2-0.5,0.3-0.8,0.8-1.1
				c0.3-0.3,0.8-0.5,1.2-0.5h3.4c0.6,0,1.1,0.2,1.4,0.5c0.3,0.3,0.6,0.6,0.8,1.1l5.2,17.3c0.3,0.9,0.5,1.7,0.8,2.6
				c0.2,0.8,0.5,1.7,0.6,2.5c0.2-0.9,0.3-1.7,0.5-2.6c0.2-0.9,0.5-1.8,0.6-2.8l4.6-17c0.2-0.5,0.3-0.8,0.8-1.1
				c0.5-0.3,0.8-0.5,1.4-0.5h5.7l-9.9,31.6h-6.2c-0.6,0-1.1-0.5-1.4-1.4L731.3,38c-0.2-0.6-0.3-1.2-0.5-1.8
				c-0.2-0.6-0.3-1.2-0.3-1.8c-0.2,0.6-0.3,1.2-0.5,1.8c-0.2,0.6-0.3,1.2-0.5,1.8l-5.7,18.2c-0.3,0.9-0.8,1.4-1.7,1.4h-5.9
				L706.1,26.2z"/>
			<path class="st0" d="M771,16.9c0,0.6-0.2,1.2-0.5,1.8s-0.6,1.1-1.1,1.5c-0.5,0.5-0.9,0.8-1.5,1.1c-0.6,0.3-1.2,0.3-1.8,0.3
				c-0.6,0-1.2-0.2-1.8-0.3c-0.6-0.3-1.1-0.6-1.5-1.1c-0.5-0.5-0.8-0.9-1.1-1.5s-0.3-1.2-0.3-1.8c0-0.6,0.2-1.4,0.3-1.8
				s0.6-1.1,1.1-1.5s0.9-0.8,1.5-1.1c0.6-0.3,1.2-0.3,1.8-0.3c0.6,0,1.4,0.2,1.8,0.3c0.6,0.3,1.1,0.6,1.5,1.1s0.8,0.9,1.1,1.5
				C770.9,15.5,771,16.3,771,16.9z M769.9,26.2v31.6h-7.6V26.2H769.9z"/>
			<path class="st0" d="M790.7,16.9c0,0.6-0.2,1.2-0.5,1.8s-0.6,1.1-1.1,1.5c-0.5,0.5-0.9,0.8-1.5,1.1c-0.6,0.3-1.2,0.3-1.8,0.3
				s-1.2-0.2-1.8-0.3c-0.6-0.3-1.1-0.6-1.5-1.1c-0.5-0.5-0.8-0.9-1.1-1.5s-0.3-1.2-0.3-1.8c0-0.6,0.2-1.4,0.3-1.8s0.6-1.1,1.1-1.5
				s0.9-0.8,1.5-1.1c0.6-0.3,1.2-0.3,1.8-0.3s1.4,0.2,1.8,0.3c0.6,0.3,1.1,0.6,1.5,1.1c0.5,0.5,0.8,0.9,1.1,1.5
				C790.6,15.5,790.7,16.3,790.7,16.9z M789.7,26.2v31.6h-7.6V26.2H789.7z"/>
			<path class="st0" d="M811.5,58.2c-2.8,0-4.8-0.8-6.3-2.3c-1.5-1.5-2.2-3.7-2.2-6.5V31.9h-3.2c-0.5,0-0.8-0.2-1.1-0.5
				c-0.3-0.3-0.5-0.6-0.5-1.2v-3.1l5.1-0.8l1.5-8.6c0.2-0.5,0.3-0.8,0.6-0.9c0.3-0.2,0.6-0.3,1.1-0.3h4v10h8.3v5.4h-8.3V49
				c0,0.9,0.3,1.7,0.8,2.3c0.5,0.6,1.1,0.8,2,0.8c0.5,0,0.9,0,1.2-0.2c0.3-0.2,0.6-0.3,0.8-0.3s0.5-0.3,0.6-0.3
				c0.2-0.2,0.3-0.2,0.6-0.2c0.2,0,0.5,0,0.6,0.2c0.2,0.2,0.3,0.3,0.5,0.5l2.3,3.7c-1.1,0.9-2.3,1.7-3.9,2.2S813.1,58.2,811.5,58.2z
				"/>
			<path class="st0" d="M838.5,58.2c-2.8,0-4.8-0.8-6.3-2.3s-2.2-3.7-2.2-6.5V31.9h-3.2c-0.5,0-0.8-0.2-1.1-0.5
				c-0.3-0.3-0.5-0.6-0.5-1.2v-3.1l5.1-0.8l1.5-8.6c0.2-0.5,0.3-0.8,0.6-0.9c0.3-0.2,0.6-0.3,1.1-0.3h4v10h8.3v5.4h-8.3V49
				c0,0.9,0.3,1.7,0.8,2.3c0.5,0.6,1.1,0.8,2,0.8c0.5,0,0.9,0,1.2-0.2c0.3-0.2,0.6-0.3,0.8-0.3c0.3-0.2,0.5-0.3,0.6-0.3
				c0.2-0.2,0.3-0.2,0.6-0.2c0.2,0,0.5,0,0.6,0.2s0.3,0.3,0.5,0.5l2.3,3.7c-1.1,0.9-2.3,1.7-3.9,2.2
				C841.4,58.1,840.1,58.2,838.5,58.2z"/>
			<path class="st0" d="M879.8,57.8h-3.4c-0.8,0-1.2-0.2-1.7-0.3c-0.5-0.2-0.8-0.6-0.9-1.2l-0.6-2.3c-0.8,0.8-1.5,1.4-2.3,1.8
				s-1.5,1.1-2.3,1.4c-0.8,0.3-1.7,0.6-2.6,0.8s-2,0.3-3.1,0.3c-1.4,0-2.6-0.2-3.7-0.6c-1.1-0.3-2.2-0.9-2.9-1.7
				c-0.8-0.8-1.4-1.7-1.8-2.6c-0.5-1.1-0.6-2.3-0.6-3.7c0-1.2,0.3-2.3,0.9-3.5c0.6-1.2,1.7-2.2,3.1-3.1c1.4-0.9,3.4-1.7,5.9-2.3
				c2.5-0.6,5.4-0.9,9.1-0.9v-1.8c0-2.2-0.5-3.7-1.4-4.8c-0.9-1.1-2.2-1.5-3.9-1.5c-1.2,0-2.3,0.2-3.1,0.5c-0.8,0.3-1.5,0.6-2.2,0.9
				c-0.6,0.3-1.2,0.6-1.7,0.9c-0.5,0.3-1.1,0.5-1.7,0.5c-0.5,0-0.9-0.2-1.4-0.5c-0.3-0.3-0.6-0.6-0.9-0.9l-1.4-2.5
				c3.7-3.4,8-4.9,13.1-4.9c1.8,0,3.5,0.3,4.9,0.9c1.4,0.6,2.6,1.4,3.7,2.5s1.8,2.3,2.3,3.9s0.8,3.1,0.8,4.9v20H879.8z M865,53
				c0.8,0,1.5,0,2.2-0.2c0.6-0.2,1.2-0.3,1.8-0.6c0.6-0.3,1.1-0.6,1.7-1.1c0.6-0.5,1.1-0.9,1.7-1.5v-5.2c-2.2,0-4,0.2-5.5,0.5
				c-1.5,0.3-2.6,0.6-3.5,1.1c-0.9,0.5-1.5,0.9-1.8,1.5s-0.6,1.2-0.6,1.8c0,1.4,0.5,2.3,1.2,2.9C862.7,52.7,863.6,53,865,53z"/>
			<path class="st0" d="M915.1,57.8h-3.4c-0.8,0-1.2-0.2-1.7-0.3s-0.8-0.6-0.9-1.2l-0.6-2.3c-0.8,0.8-1.5,1.4-2.3,1.8
				s-1.5,1.1-2.3,1.4c-0.8,0.3-1.7,0.6-2.6,0.8c-0.9,0.2-2,0.3-3.1,0.3c-1.4,0-2.6-0.2-3.7-0.6c-1.1-0.3-2.2-0.9-2.9-1.7
				c-0.8-0.8-1.4-1.7-1.8-2.6c-0.5-1.1-0.6-2.3-0.6-3.7c0-1.2,0.3-2.3,0.9-3.5s1.7-2.2,3.1-3.1c1.4-0.9,3.4-1.7,5.9-2.3
				c2.5-0.6,5.4-0.9,9.1-0.9v-1.8c0-2.2-0.5-3.7-1.4-4.8s-2.2-1.5-3.9-1.5c-1.2,0-2.3,0.2-3.1,0.5c-0.8,0.3-1.5,0.6-2.2,0.9
				c-0.6,0.3-1.2,0.6-1.7,0.9c-0.5,0.3-1.1,0.5-1.7,0.5c-0.5,0-0.9-0.2-1.4-0.5c-0.3-0.3-0.6-0.6-0.9-0.9l-1.4-2.5
				c3.7-3.4,8-4.9,13.1-4.9c1.8,0,3.5,0.3,4.9,0.9c1.4,0.6,2.6,1.4,3.7,2.5c1.1,1.1,1.8,2.3,2.3,3.9s0.8,3.1,0.8,4.9v20H915.1z
				 M900.3,53c0.8,0,1.5,0,2.2-0.2c0.6-0.2,1.2-0.3,1.8-0.6c0.6-0.3,1.1-0.6,1.7-1.1c0.6-0.5,1.1-0.9,1.7-1.5v-5.2
				c-2.2,0-4,0.2-5.5,0.5c-1.5,0.3-2.6,0.6-3.5,1.1c-0.9,0.5-1.5,0.9-1.8,1.5s-0.6,1.2-0.6,1.8c0,1.4,0.5,2.3,1.2,2.9
				C898,52.7,898.9,53,900.3,53z"/>
			<path class="st0" d="M925,31.6c0-0.6,0.2-1.2,0.3-1.8c0.3-0.6,0.6-1.1,0.9-1.5c0.3-0.5,0.9-0.8,1.5-0.9c0.6-0.3,1.2-0.3,1.8-0.3
				s1.2,0.2,1.8,0.3c0.6,0.2,1.1,0.6,1.5,0.9c0.5,0.3,0.8,0.9,0.9,1.5c0.3,0.6,0.3,1.2,0.3,1.8s-0.2,1.2-0.3,1.8
				c-0.3,0.6-0.6,1.1-0.9,1.5s-0.9,0.8-1.5,0.9c-0.6,0.2-1.2,0.3-1.8,0.3s-1.2-0.2-1.8-0.3c-0.6-0.3-1.1-0.6-1.5-0.9
				c-0.5-0.3-0.8-0.9-0.9-1.5C925.1,32.8,925,32.2,925,31.6z M925,53.6c0-0.6,0.2-1.2,0.3-1.8c0.3-0.6,0.6-1.1,0.9-1.5
				c0.5-0.5,0.9-0.8,1.5-0.9c0.6-0.3,1.2-0.3,1.8-0.3s1.2,0.2,1.8,0.3s1.1,0.6,1.5,0.9c0.5,0.5,0.8,0.9,0.9,1.5
				c0.3,0.6,0.3,1.2,0.3,1.8c0,0.6-0.2,1.2-0.3,1.8c-0.3,0.6-0.6,1.1-0.9,1.5c-0.3,0.5-0.9,0.8-1.5,0.9s-1.2,0.3-1.8,0.3
				s-1.2-0.2-1.8-0.3c-0.6-0.3-1.1-0.6-1.5-0.9c-0.5-0.3-0.8-0.9-0.9-1.5C925.1,54.8,925,54.2,925,53.6z"/>
		</g>
		<g id="Page-1_1_" transform="translate(670.000000, 123.104615)">
			<g class="st2">
				<path class="st0" d="M57.3,44.1l-2.3,11.6h-2.2c-0.5,0-0.8-0.2-1.1-0.5c-0.3-0.3-0.5-0.8-0.5-1.2v-0.2c0,0,0-0.2,0-0.3l2-9.4
					h-6.8l-2,9.7c-0.2,0.6-0.5,1.1-0.8,1.4c-0.5,0.3-0.9,0.5-1.4,0.5h-2.2l2.3-11.6h-4c-0.5,0-0.8-0.2-0.9-0.3
					c-0.3-0.2-0.3-0.6-0.3-1.1c0-0.2,0-0.2,0-0.3c0-0.2,0-0.2,0-0.3l0.2-1.5h5.5l1.8-8.9h-6.3l0.3-2c0.2-0.5,0.3-0.9,0.6-1.2
					c0.3-0.3,0.9-0.3,1.5-0.3h4.3l2-9.9c0.2-0.6,0.3-0.9,0.8-1.2c0.5-0.3,0.9-0.5,1.4-0.5h2.2L49.2,28H56l2.3-11.6h2.3
					c0.5,0,0.8,0.2,1.1,0.5c0.3,0.3,0.5,0.6,0.5,1.1c0,0.2,0,0.3,0,0.3l-2,9.7H66l-0.3,2c-0.2,0.5-0.3,0.9-0.6,1.2
					c-0.3,0.3-0.9,0.3-1.5,0.3h-3.7L58,40.5H63c0.5,0,0.8,0.2,1.1,0.3c0.3,0.2,0.3,0.6,0.3,1.1c0,0.2,0,0.2,0,0.3s0,0.2,0,0.3
					L64,44.1C64,44.1,57.3,44.1,57.3,44.1z M47.1,40.5h6.8l1.8-8.9h-6.8L47.1,40.5z"/>
			</g>
			<g class="st2">
				<path class="st0" d="M89.8,55.6h-5.2V16.5h5.2V55.6z"/>
				<path class="st0" d="M129.1,47.6c0.3,0,0.6,0.2,0.8,0.3l2,2.3c-1.5,1.8-3.5,3.2-5.9,4.3s-5.1,1.5-8.3,1.5
					c-2.8,0-5.4-0.5-7.7-1.5c-2.3-0.9-4.3-2.3-5.9-4.2c-1.7-1.7-2.9-3.9-3.9-6.3c-0.9-2.5-1.4-5.2-1.4-8.2c0-2.9,0.5-5.7,1.4-8.2
					s2.3-4.6,4-6.3c1.7-1.7,3.9-3.1,6.2-4.2c2.5-0.9,5.1-1.4,8-1.4s5.4,0.5,7.4,1.4c2,0.9,4,2.2,5.5,3.7l-1.7,2.5
					c-0.2,0.2-0.3,0.3-0.5,0.5c-0.2,0.2-0.5,0.2-0.8,0.2c-0.3,0-0.5-0.2-0.8-0.3s-0.6-0.5-0.9-0.6c-0.3-0.3-0.8-0.5-1.2-0.8
					s-1.1-0.6-1.7-0.8c-0.6-0.3-1.4-0.5-2.3-0.6c-0.9-0.2-1.8-0.3-3.1-0.3c-2.2,0-4,0.3-5.7,1.1c-1.7,0.8-3.2,1.7-4.5,3.1
					c-1.2,1.4-2.3,2.9-2.9,4.9c-0.8,1.8-1.1,4-1.1,6.5c0,2.5,0.3,4.6,1.1,6.5c0.8,1.8,1.7,3.5,2.9,4.9c1.2,1.4,2.6,2.3,4.3,3.1
					c1.7,0.8,3.4,1.1,5.4,1.1c1.2,0,2.2,0,3.1-0.2c0.9-0.2,1.8-0.3,2.6-0.6c0.8-0.3,1.5-0.6,2.2-1.1c0.6-0.5,1.4-0.9,2-1.5
					C128.4,47.6,128.8,47.6,129.1,47.6z"/>
				<path class="st0" d="M166.8,16.5v4.5h-12.6v34.7h-5.2V20.9h-12.8v-4.5H166.8z"/>
				<path class="st0" d="M178.1,27.4c1.7,0,3.2,0.3,4.6,0.8c1.4,0.6,2.6,1.4,3.7,2.5c1.1,1.1,1.8,2.3,2.5,3.9
					c0.6,1.5,0.9,3.2,0.9,5.2c0,0.8-0.2,1.2-0.3,1.5c-0.2,0.3-0.5,0.3-0.9,0.3h-18.5c0,1.7,0.3,3.2,0.8,4.6c0.5,1.2,1.1,2.3,1.8,3.2
					c0.8,0.9,1.7,1.5,2.8,2c1.1,0.5,2.3,0.6,3.5,0.6s2.3-0.2,3.2-0.5c0.9-0.3,1.7-0.6,2.3-0.9c0.6-0.3,1.2-0.6,1.5-0.9
					c0.5-0.3,0.8-0.5,1.1-0.5c0.5,0,0.8,0.2,0.9,0.5l1.4,1.8c-0.6,0.8-1.4,1.4-2.2,1.8c-0.8,0.5-1.7,0.9-2.6,1.4
					c-0.9,0.3-2,0.6-2.9,0.8c-0.9,0.2-2,0.3-3.1,0.3c-1.8,0-3.7-0.3-5.2-0.9s-3.1-1.5-4.2-2.8c-1.2-1.2-2.2-2.8-2.8-4.6
					c-0.6-1.8-0.9-4-0.9-6.3c0-2,0.3-3.7,0.9-5.4c0.6-1.7,1.4-3.1,2.6-4.3c1.1-1.2,2.5-2.2,4-2.9C174.2,27.9,176.1,27.4,178.1,27.4z
					 M178.2,31.1c-2.3,0-4.2,0.6-5.5,2c-1.4,1.4-2.2,3.2-2.5,5.7h15.1c0-1.1-0.2-2.2-0.5-3.1c-0.3-0.9-0.8-1.7-1.4-2.5
					c-0.6-0.6-1.4-1.2-2.2-1.5C180.2,31.3,179.3,31.1,178.2,31.1z"/>
				<path class="st0" d="M201.8,41.4l-9.4-13.6h4.6c0.5,0,0.6,0,0.9,0.2c0.2,0.2,0.3,0.3,0.5,0.6l6.8,10.3c0.2-0.5,0.5-1.1,0.8-1.5
					l6-8.8c0.2-0.3,0.3-0.5,0.6-0.6s0.5-0.3,0.6-0.3h4.5L208.3,41l9.7,14.5h-4.6c-0.5,0-0.8-0.2-0.9-0.3c-0.2-0.2-0.5-0.5-0.6-0.8
					l-6.9-10.8c-0.2,0.5-0.3,1.1-0.6,1.4l-6.5,9.4c-0.2,0.3-0.3,0.5-0.6,0.8c-0.2,0.2-0.5,0.3-0.9,0.3h-4.3L201.8,41.4z"/>
				<path class="st0" d="M224.1,65V27.9h2.9c0.8,0,1.1,0.3,1.4,1.1l0.5,3.2c1.2-1.4,2.5-2.6,4-3.5c1.5-0.9,3.2-1.4,5.2-1.4
					c1.5,0,3.1,0.3,4.3,0.9c1.2,0.6,2.5,1.5,3.2,2.8c0.9,1.2,1.5,2.6,2.2,4.5c0.5,1.7,0.8,3.9,0.8,6.2c0,2-0.3,4-0.8,5.7
					c-0.6,1.7-1.4,3.2-2.3,4.6c-1.1,1.2-2.3,2.3-3.7,3.1c-1.5,0.8-3.1,1.1-5.1,1.1c-1.7,0-3.2-0.3-4.3-0.8c-1.2-0.6-2.3-1.4-3.2-2.5
					v12.3h-5.1V65z M236.5,31.4c-1.5,0-2.9,0.3-4.2,1.1c-1.2,0.8-2.3,1.7-3.2,3.1V49c0.9,1.2,1.8,2,2.9,2.6c1.1,0.5,2.3,0.8,3.5,0.8
					c2.6,0,4.6-0.9,6-2.8s2-4.5,2-7.9c0-1.8-0.2-3.4-0.5-4.6s-0.8-2.3-1.4-3.2c-0.6-0.8-1.4-1.4-2.2-1.8
					C238.6,31.6,237.5,31.4,236.5,31.4z"/>
				<path class="st0" d="M266.7,27.4c2,0,3.9,0.3,5.5,1.1c1.7,0.8,3.1,1.7,4.2,2.9c1.1,1.2,2,2.8,2.6,4.5c0.6,1.7,0.9,3.7,0.9,5.9
					c0,2.2-0.3,4.2-0.9,5.9c-0.6,1.7-1.5,3.2-2.6,4.5s-2.5,2.2-4.2,2.9s-3.4,0.9-5.5,0.9c-2,0-3.9-0.3-5.5-0.9s-3.1-1.5-4.2-2.9
					c-1.1-1.2-2-2.8-2.6-4.5s-0.9-3.7-0.9-5.9s0.3-4.2,0.9-5.9c0.6-1.7,1.5-3.2,2.6-4.5c1.1-1.2,2.5-2.2,4.2-2.9
					S264.7,27.4,266.7,27.4z M266.7,52.2c2.8,0,4.8-0.9,6.2-2.8c1.4-1.8,2-4.3,2-7.7c0-3.2-0.6-5.9-2-7.7c-1.4-1.8-3.4-2.8-6.2-2.8
					c-1.4,0-2.6,0.3-3.5,0.8c-1.1,0.5-1.8,1.2-2.6,2c-0.6,0.9-1.2,2-1.5,3.2c-0.3,1.2-0.5,2.8-0.5,4.5s0.2,3.1,0.5,4.5
					c0.3,1.2,0.9,2.3,1.5,3.2c0.6,0.9,1.5,1.5,2.6,2C264.2,51.9,265.3,52.2,266.7,52.2z"/>
				<path class="st0" d="M319.7,55.6h-5.4V37.7h-21.1v17.9h-5.4V16.5h5.4v17.4h21.1V16.5h5.4V55.6z"/>
				<path class="st0" d="M336.3,33.6h2c0.6,0,1.2-0.2,1.7-0.3c0.5-0.2,0.8-0.5,1.2-0.9l13.1-14.8c0.5-0.5,0.8-0.8,1.2-0.9
					c0.3-0.2,0.9-0.3,1.4-0.3h4.5l-14.9,17c-0.3,0.5-0.8,0.8-1.1,1.1c-0.3,0.3-0.8,0.5-1.1,0.8c0.5,0.2,0.9,0.5,1.4,0.8
					c0.3,0.3,0.8,0.8,1.2,1.2l15.6,18.6h-4.6c-0.3,0-0.6,0-0.9-0.2c-0.3,0-0.5-0.2-0.6-0.2c-0.2-0.2-0.3-0.2-0.5-0.3
					s-0.3-0.3-0.5-0.5l-13.6-15.6c-0.2-0.2-0.5-0.5-0.6-0.6c-0.2-0.2-0.3-0.3-0.6-0.5c-0.2-0.2-0.5-0.2-0.8-0.3s-0.6,0-1.1,0h-2.5
					v17.9h-5.2V16.5h5.2L336.3,33.6L336.3,33.6z"/>
				<path class="st0" d="M375.2,55.6h-5.2V16.5h5.2V55.6z"/>
			</g>
			<g id="Stroke-1">
				<path class="st0" d="M415.1,92H-1V-14.2h416.1V92z M2.1,88.9H412v-100H2.1V88.9z"/>
			</g>
		</g>
	</g>
</g>
</svg>
