<svg xmlns="http://www.w3.org/2000/svg" viewBox="0 0 31 31">
  <title>instagram</title>
  <path d="M0,0V31H31V0H0ZM21.09,5.29a1.37,1.37,0,0,1,1.37-1.37H26a1.37,1.37,0,0,1,1.37,1.37V8.64A1.37,1.37,0,0,1,26,10H22.46a1.37,1.37,0,0,1-1.37-1.37V5.29h0ZM15.4,9.86A6.23,6.23,0,0,1,21.7,16a6.19,6.19,0,0,1-6.3,6.1A6.23,6.23,0,0,1,9.1,16a6.23,6.23,0,0,1,6.3-6.1h0Zm12.1,17a1.24,1.24,0,0,1-1.22,1.22H4.52A1.24,1.24,0,0,1,3.3,26.83V13.62H6.2a9.33,9.33,0,0,0-.41,2.69,9.51,9.51,0,0,0,9.71,9.4,9.55,9.55,0,0,0,9.71-9.4,9.6,9.6,0,0,0-.41-2.69h2.74V26.83H27.49Z" transform="translate(0 0)" fill="#EF5835"/>
</svg>
