<?xml version="1.0" encoding="utf-8"?>
<!-- Generator: Adobe Illustrator 19.2.1, SVG Export Plug-In . SVG Version: 6.00 Build 0)  -->
<svg version="1.1" id="Layer_1" xmlns="http://www.w3.org/2000/svg" xmlns:xlink="http://www.w3.org/1999/xlink" x="0px" y="0px"
	 viewBox="0 0 826 228" style="enable-background:new 0 0 826 228;" xml:space="preserve">
<style type="text/css">
	.st0{fill:#4D4D4D;}
	.st1{fill:#FFFFFF;}
	.st2{enable-background:new    ;}
	.st3{font-family:'Lato-Regular';}
	.st4{font-size:32px;}
	.st5{letter-spacing:3;}
</style>
<title>pixels</title>
<desc>Created with Sketch.</desc>
<g id="Page-1">
	<g id="ICTexpo-2" transform="translate(-1201.000000, 0.000000)">
		
		<g id="Group-60" transform="translate(1606.000000, 61.000000)">
			<path id="Fill-2" class="st1" d="M302.6,0.4v43.9c0.4-0.4,15.5-16.1,15.5-16.1l20.8,0l-21.3,20.9l22.5,24.4H319l-16.4-18.3v18.3
				c-4.9,0-15.3,0-15.3,0V0.4H302.6z"/>
			<polygon id="Fill-4" class="st1" points="217.1,48.7 207.1,73.5 196.3,73.5 174.6,28.2 191.6,28.2 201.8,51.9 212.4,28.2 
				222,28.2 232.7,52.6 243.3,28.2 260.2,28.2 238.1,73.5 227.4,73.5 			"/>
			<path id="Fill-6" class="st1" d="M136.9,49.6c5-3.1,9.9-6.1,14.9-9.1c-0.6-0.6-1.2-1.2-1.8-1.6c-1.5-1.2-3.1-1.9-5-1.8
				c-1.1,0-2.1,0.4-3.1,0.8c-1.6,0.7-3,1.8-4,3.2c-0.8,1.1-1.3,2.4-1.6,3.9C136.1,46.5,136.5,48,136.9,49.6 M168.4,41
				c-9.2,5.6-18.3,11.2-27.5,16.8c0.5,0.7,0.9,1.5,1.4,2.1c1,1.3,2.1,2.4,3.7,3c1.5,0.6,3.1,0.6,4.6,0.2c1.8-0.5,3.4-1.4,4.7-2.6
				c1.3-1.2,2.1-2.7,2.5-4.5c0.1-0.6,0.2-1.2,0.2-1.9c4.2-2.5,8.4-5.1,12.6-7.7c0.1,0.5,0.2,1,0.3,1.5c0.4,2,0.4,4.1,0.3,6.2
				c-0.1,1.9-0.6,3.7-1.4,5.5c-1.2,3-3,5.5-5.3,7.7c-1.7,1.6-3.6,3-5.6,4.2c-2.1,1.2-4.2,2.3-6.4,3.1c-1.5,0.5-3.1,0.9-4.6,1.1
				c-1.6,0.2-3.3,0.2-4.9,0.1c-2.2-0.2-4.3-0.8-6.3-1.8c-2.6-1.2-4.8-2.9-6.7-5c-1.3-1.4-2.4-3-3.3-4.7c-1.2-2.2-2.2-4.4-2.9-6.9
				c-0.4-1.4-0.7-2.9-0.8-4.4c0-1-0.2-2-0.1-3c0.1-2.7,0.6-5.3,1.6-7.8c0.8-2.1,2-3.9,3.3-5.6c1.8-2.2,3.9-4,6.3-5.6
				c2-1.4,4.2-2.6,6.5-3.4c2.8-1.1,5.6-1.6,8.6-1.4c2.3,0.1,4.4,0.7,6.5,1.6c3.4,1.5,6.1,3.8,8.5,6.7c1.3,1.5,2.4,3.2,3.3,5
				C167.8,39.9,168.1,40.4,168.4,41"/>
			<path id="Fill-8" class="st1" d="M113.2,73.4H98V41.4h-5V28.1h5V14.6h15.2c0,0,0,0,0,0c0,0,0,0,0,0c0,4.4,0,13.5,0,13.5s0,0,0,0
				c0,0,0,0,0,0c2.8,0,8.5,0,8.5,0s0,0,0,0c0,0,0,0,0,0c0,4.2,0,13.2,0,13.2h-8.5V73.4z"/>
			<path id="Fill-10" class="st1" d="M87.1,73.4H72c0,0,0,0,0,0c0,0,0,0,0,0c0-0.2,0,0.2,0,0c0-14.8,0-45.3,0-45.3s0,0,0,0
				c0,0,15.2,0,15.2,0V73.4z"/>
			<path id="Fill-12" class="st1" d="M360.4,73.5h-15.1c0,0,0-45.1,0-45.1c0,0,15.1,0,15.1,0V73.5z"/>
			<polygon id="Fill-14" class="st1" points="291.9,94.9 296.7,79.2 301.6,79.2 306,94.6 310.4,79.2 316.8,79.2 309.4,103.8 
				303,103.8 299,89.8 294.8,103.8 288.5,103.8 281.5,79.3 287.9,79.2 			"/>
			<path id="Fill-16" class="st1" d="M194.5,90.1c0,0,1.9,0.1,2.9-0.3c1-0.4,1.8-1.3,1.8-2.4c0.1-1.4-0.5-2.4-1.5-3
				c-0.7-0.4-3.1-0.2-3.1-0.2V90.1z M194.4,103.8c0,0-6.1,0-6.1,0c0-7.9,0-24.7,0-24.7s6.8,0,9.9,0c1.7,0,3.4,0.5,4.8,1.7
				c0.9,0.8,1.5,1.7,1.9,2.8c0.8,2.2,0.8,4.4-0.1,6.6c-0.7,1.5-1.8,2.5-3.3,3.1c-0.3,0.1-0.7,0.2-1,0.4c2.4,3.3,7.2,10.1,7.2,10.1
				h-7.9l-5.5-9.3V103.8z"/>
			<path id="Fill-18" class="st1" d="M351,79.1c0,0-6.2,7.8-9.2,11.7c3.3,4.3,10,13,10,13h-8.1c0,0-7.1-10-7.6-10.6v10.6h-6V79.1h6
				v10c1-1.4,7.1-10,7.1-10H351z"/>
			<path id="Fill-20" class="st1" d="M132.5,90.6l-7.4-11.5h7.8c0,0,3,6.1,3.1,6.3c1.2-2.1,3.6-6.3,3.6-6.3h7.5l-7.5,11.5l8.7,13.2
				h-7.6l-4.7-7.9l-4.9,7.9h-7.6L132.5,90.6z"/>
			<path id="Fill-22" class="st1" d="M156.7,84.5l0,5.8c0,0,2.7,0.1,3.2,0c0.7-0.1,1.3-0.6,1.6-1.3c0.3-0.7,0.4-1.4,0.3-2.1
				c-0.2-1.4-1-2.2-2.3-2.4C158.7,84.4,156.7,84.5,156.7,84.5L156.7,84.5z M150.6,79.1c0,0,7.5,0,10,0c1.2,0,2.4,0.2,3.5,0.8
				c1.9,0.9,3.2,2.4,3.8,4.6c0.6,2.4,0.5,4.8-0.4,7.1c-1,2.3-2.8,3.5-5.1,3.9c-1.3,0.2-5.7,0.2-5.7,0.2v8.2h-6.1V79.1z"/>
			<path id="Fill-24" class="st1" d="M252.7,80.6c-0.8,1.7-1.6,3.4-2.4,5c-0.4-0.3-0.8-0.5-1.2-0.8c-0.9-0.6-1.9-0.9-3-0.8
				c-0.6,0-1.2,0.2-1.6,0.6c-1,0.7-1.1,2-0.1,2.8c0.4,0.3,0.8,0.5,1.2,0.6c0.9,0.3,1.9,0.6,2.8,1c1,0.3,1.9,0.8,2.7,1.4
				c1.5,1.1,2.3,2.7,2.4,4.7c0.1,1.4,0,2.8-0.5,4.1c-0.8,2.3-2.3,3.7-4.5,4.5c-1.4,0.6-2.9,0.8-4.5,0.8c-2.7-0.1-5.3-1-7.5-2.7
				c-0.1,0-0.1-0.1-0.2-0.2c0.8-1.7,1.7-3.4,2.6-5.1c0.5,0.4,0.9,0.8,1.4,1.1c0.9,0.6,1.8,1.1,2.8,1.3c0.8,0.2,1.7,0.2,2.5-0.1
				c0.7-0.3,1.2-0.7,1.4-1.4c0.3-0.9,0.1-1.8-0.7-2.3c-0.5-0.4-1.2-0.7-1.8-0.9c-1.1-0.4-2.2-0.7-3.3-1.1c-0.8-0.3-1.6-0.7-2.3-1.3
				c-1-0.9-1.6-2.2-1.7-3.6c-0.1-1.5-0.1-2.9,0.4-4.4c1-2.7,2.8-4.4,5.4-5c2.5-0.6,4.9-0.1,7.3,0.8
				C251.2,79.8,251.9,80.2,252.7,80.6"/>
			<polygon id="Fill-26" class="st1" points="257.3,103.8 257.3,79.2 270.5,79.2 270.5,84.5 263.5,84.6 263.5,88.6 270.1,88.7 
				270.1,94 263.5,94 263.5,98.3 270.5,98.3 270.5,103.8 			"/>
			<path id="Fill-28" class="st1" d="M88.1,10.8c0.2,5.1-4,9.1-8.5,9.1c-4.7,0-8.7-4.3-8.5-9c-0.2-4.8,3.8-9.1,8.5-9
				C84.3,1.8,88.3,6.1,88.1,10.8"/>
			<path id="Fill-30" class="st1" d="M352.9,20c-4.6,0.2-8.6-4.2-8.5-9.2c0.1-4.5,3.7-8.8,8.5-8.8c4.8,0,8.6,4.4,8.5,9.2
				C361.3,15.9,357.6,20.2,352.9,20"/>
			<path id="Fill-32" class="st1" d="M279.9,11c0.2,4.8-3.8,9-8.5,9c-4.5,0-8.5-4-8.5-9.1c0-5,3.8-9,8.5-9
				C276.2,2,280.1,6.2,279.9,11"/>
			<path id="Fill-34" class="st1" d="M279,73.5h-15.1c0,0,0-45.1,0-45.1c0,0,15.1,0,15.1,0V73.5z"/>
			<polygon id="Fill-36" class="st1" points="223.9,79.1 223.9,84.6 219,84.6 219,103.7 212.9,103.7 212.9,84.6 208,84.6 208,79.2 
							"/>
			<polygon id="Fill-38" class="st1" points="85.7,84.6 80.8,84.6 80.8,79.2 96.6,79.2 96.6,84.6 91.8,84.6 91.8,103.6 85.7,103.7 
							"/>
			<polygon id="Fill-40" class="st1" points="319.2,79.2 325.2,79.2 325.2,103.7 319.2,103.7 			"/>
			<polygon id="Fill-42" class="st1" points="72,103.7 72.1,79.2 78.1,79.2 78.1,103.7 			"/>
			<polygon id="Fill-44" class="st1" points="33.7,25.3 49.3,8.8 63.4,23.6 63.2,56.7 			"/>
			<polygon id="Fill-46" class="st1" points="30.1,54.9 14.4,71.4 0.4,56.6 0.5,23.6 			"/>
			<polygon id="Fill-48" class="st1" points="45.7,42 61.3,58.6 47.4,73.5 16.2,73.3 			"/>
			<polygon id="Fill-50" class="st1" points="354.4,79.2 360.4,79.2 360.4,103.7 354.4,103.7 			"/>
			<polygon id="Fill-52" class="st1" points="171.4,103.8 171.4,79.2 184.6,79.2 184.6,84.5 177.6,84.6 177.6,88.6 184.1,88.7 
				184.1,94 177.6,94 177.6,98.3 184.6,98.3 184.6,103.8 			"/>
			<polygon id="Fill-54" class="st1" points="108.9,103.8 108.9,79.2 122.1,79.2 122.1,84.5 115.1,84.6 115.1,88.6 121.6,88.7 
				121.6,94 115.1,94 115.1,98.3 122.1,98.3 122.1,103.8 			"/>
			<polygon id="Fill-56" class="st1" points="226.6,79.2 232.6,79.2 232.6,103.7 226.6,103.7 			"/>
			<polygon id="Fill-58" class="st1" points="18,38.2 2.4,21.6 16.4,6.7 47.6,6.9 			"/>
		</g>
		<g class="st2">
			<path class="st1" d="M1287.6,66.5c0,2.1-0.4,4.1-1.1,5.8c-0.7,1.8-1.7,3.3-3,4.6c-1.3,1.3-2.8,2.3-4.6,3c-1.8,0.7-3.8,1.1-6,1.1
				h-11V52.1h11c2.2,0,4.2,0.4,6,1.1c1.8,0.7,3.3,1.7,4.6,3c1.3,1.3,2.3,2.8,3,4.6C1287.2,62.5,1287.6,64.4,1287.6,66.5z
				 M1282.1,66.5c0-1.6-0.2-3-0.6-4.3c-0.4-1.3-1-2.3-1.8-3.2c-0.8-0.9-1.7-1.5-2.9-2c-1.1-0.5-2.4-0.7-3.8-0.7h-5.6v20.4h5.6
				c1.4,0,2.7-0.2,3.8-0.7c1.1-0.5,2.1-1.1,2.9-2c0.8-0.9,1.4-1.9,1.8-3.2C1281.9,69.5,1282.1,68.1,1282.1,66.5z"/>
			<path class="st1" d="M1299.5,54.5c0,0.4-0.1,0.8-0.3,1.2s-0.4,0.7-0.7,1c-0.3,0.3-0.6,0.5-1,0.7c-0.4,0.2-0.8,0.2-1.2,0.2
				c-0.4,0-0.8-0.1-1.2-0.2c-0.4-0.2-0.7-0.4-1-0.7c-0.3-0.3-0.5-0.6-0.7-1s-0.2-0.8-0.2-1.2c0-0.4,0.1-0.9,0.2-1.2s0.4-0.7,0.7-1
				c0.3-0.3,0.6-0.5,1-0.7c0.4-0.2,0.8-0.2,1.2-0.2c0.4,0,0.9,0.1,1.2,0.2c0.4,0.2,0.7,0.4,1,0.7c0.3,0.3,0.5,0.6,0.7,1
				S1299.5,54.1,1299.5,54.5z M1298.8,60.5V81h-4.9V60.5H1298.8z"/>
			<path class="st1" d="M1313.4,60.1c0.9,0,1.7,0.1,2.5,0.3c0.8,0.2,1.5,0.4,2.1,0.8h5.9V63c0,0.3-0.1,0.5-0.2,0.7
				c-0.2,0.2-0.4,0.3-0.8,0.4l-1.8,0.3c0.1,0.3,0.2,0.7,0.3,1.1s0.1,0.8,0.1,1.2c0,1-0.2,1.9-0.6,2.8c-0.4,0.8-1,1.5-1.7,2.1
				c-0.7,0.6-1.6,1-2.5,1.3c-1,0.3-2,0.5-3.2,0.5c-0.8,0-1.5-0.1-2.3-0.2c-0.6,0.4-1,0.8-1,1.3c0,0.4,0.2,0.7,0.6,0.9
				c0.4,0.2,0.9,0.3,1.5,0.4c0.6,0.1,1.3,0.1,2.1,0.1c0.8,0,1.6,0,2.4,0.1c0.8,0.1,1.6,0.2,2.4,0.4c0.8,0.2,1.5,0.4,2.1,0.8
				c0.6,0.4,1.1,0.9,1.5,1.5s0.6,1.4,0.6,2.4c0,0.9-0.2,1.8-0.7,2.6s-1.1,1.6-1.9,2.3c-0.8,0.7-1.9,1.2-3.1,1.6
				c-1.2,0.4-2.6,0.6-4.2,0.6c-1.6,0-2.9-0.1-4.1-0.5c-1.1-0.3-2.1-0.7-2.9-1.2c-0.8-0.5-1.3-1.1-1.7-1.7c-0.4-0.7-0.6-1.3-0.6-2
				c0-1,0.3-1.8,0.9-2.4c0.6-0.7,1.4-1.2,2.4-1.6c-0.5-0.3-0.9-0.7-1.2-1.1c-0.3-0.5-0.5-1.1-0.5-1.8c0-0.3,0.1-0.6,0.2-1
				c0.1-0.3,0.3-0.6,0.5-1c0.2-0.3,0.5-0.6,0.8-0.9c0.3-0.3,0.7-0.5,1.2-0.8c-1-0.6-1.9-1.3-2.4-2.2c-0.6-0.9-0.9-2-0.9-3.3
				c0-1,0.2-1.9,0.6-2.8c0.4-0.8,1-1.5,1.7-2.1c0.7-0.6,1.6-1,2.6-1.3C1311.1,60.3,1312.2,60.1,1313.4,60.1z M1318.8,81.9
				c0-0.4-0.1-0.7-0.4-1c-0.2-0.3-0.6-0.5-1-0.6s-0.9-0.2-1.4-0.3c-0.6-0.1-1.1-0.1-1.8-0.1c-0.6,0-1.3,0-1.9,0s-1.3-0.1-1.9-0.2
				c-0.6,0.3-1,0.7-1.3,1.1c-0.3,0.4-0.5,0.9-0.5,1.5c0,0.4,0.1,0.7,0.3,1s0.5,0.6,0.9,0.8c0.4,0.2,0.9,0.4,1.5,0.5
				c0.6,0.1,1.4,0.2,2.3,0.2c0.9,0,1.7-0.1,2.4-0.2c0.7-0.1,1.2-0.3,1.7-0.6c0.4-0.3,0.8-0.6,0.9-0.9
				C1318.7,82.6,1318.8,82.3,1318.8,81.9z M1313.4,70.2c0.6,0,1.1-0.1,1.6-0.2s0.8-0.4,1.1-0.7c0.3-0.3,0.5-0.6,0.7-1.1
				s0.2-0.9,0.2-1.4c0-1-0.3-1.8-0.9-2.4c-0.6-0.6-1.5-0.9-2.7-0.9c-1.2,0-2.1,0.3-2.7,0.9c-0.6,0.6-0.9,1.4-0.9,2.4
				c0,0.5,0.1,0.9,0.2,1.3c0.2,0.4,0.4,0.8,0.7,1.1c0.3,0.3,0.7,0.5,1.1,0.7S1312.8,70.2,1313.4,70.2z"/>
			<path class="st1" d="M1335,54.5c0,0.4-0.1,0.8-0.3,1.2s-0.4,0.7-0.7,1c-0.3,0.3-0.6,0.5-1,0.7c-0.4,0.2-0.8,0.2-1.2,0.2
				c-0.4,0-0.8-0.1-1.2-0.2c-0.4-0.2-0.7-0.4-1-0.7c-0.3-0.3-0.5-0.6-0.7-1s-0.2-0.8-0.2-1.2c0-0.4,0.1-0.9,0.2-1.2s0.4-0.7,0.7-1
				c0.3-0.3,0.6-0.5,1-0.7c0.4-0.2,0.8-0.2,1.2-0.2c0.4,0,0.9,0.1,1.2,0.2c0.4,0.2,0.7,0.4,1,0.7c0.3,0.3,0.5,0.6,0.7,1
				S1335,54.1,1335,54.5z M1334.2,60.5V81h-4.9V60.5H1334.2z"/>
			<path class="st1" d="M1348.5,81.3c-1.8,0-3.1-0.5-4.1-1.5c-1-1-1.4-2.4-1.4-4.2V64.2h-2.1c-0.3,0-0.5-0.1-0.7-0.3
				c-0.2-0.2-0.3-0.4-0.3-0.8v-2l3.3-0.5l1-5.6c0.1-0.3,0.2-0.5,0.4-0.6c0.2-0.1,0.4-0.2,0.7-0.2h2.6v6.5h5.4v3.5h-5.4v11.1
				c0,0.6,0.2,1.1,0.5,1.5c0.3,0.4,0.7,0.5,1.3,0.5c0.3,0,0.6,0,0.8-0.1c0.2-0.1,0.4-0.2,0.5-0.2c0.2-0.1,0.3-0.2,0.4-0.2
				c0.1-0.1,0.2-0.1,0.4-0.1c0.1,0,0.3,0,0.4,0.1c0.1,0.1,0.2,0.2,0.3,0.3l1.5,2.4c-0.7,0.6-1.5,1.1-2.5,1.4
				S1349.5,81.3,1348.5,81.3z"/>
			<path class="st1" d="M1375.3,81h-2.2c-0.5,0-0.8-0.1-1.1-0.2s-0.5-0.4-0.6-0.8l-0.4-1.5c-0.5,0.5-1,0.9-1.5,1.2s-1,0.7-1.6,0.9
				c-0.5,0.2-1.1,0.4-1.7,0.5s-1.3,0.2-2,0.2c-0.9,0-1.7-0.1-2.4-0.4c-0.7-0.2-1.4-0.6-1.9-1.1c-0.5-0.5-0.9-1.1-1.2-1.7
				c-0.3-0.7-0.4-1.5-0.4-2.4c0-0.8,0.2-1.5,0.6-2.3c0.4-0.8,1.1-1.4,2-2c0.9-0.6,2.2-1.1,3.8-1.5s3.5-0.6,5.9-0.6v-1.2
				c0-1.4-0.3-2.4-0.9-3.1c-0.6-0.7-1.4-1-2.5-1c-0.8,0-1.5,0.1-2,0.3s-1,0.4-1.4,0.6s-0.8,0.4-1.1,0.6c-0.3,0.2-0.7,0.3-1.1,0.3
				c-0.3,0-0.6-0.1-0.9-0.3c-0.2-0.2-0.4-0.4-0.6-0.6l-0.9-1.6c2.4-2.2,5.2-3.2,8.5-3.2c1.2,0,2.3,0.2,3.2,0.6
				c0.9,0.4,1.7,0.9,2.4,1.6c0.7,0.7,1.1,1.5,1.5,2.5c0.3,1,0.5,2,0.5,3.2V81z M1365.7,77.9c0.5,0,1,0,1.4-0.1s0.8-0.2,1.2-0.4
				c0.4-0.2,0.7-0.4,1.1-0.7c0.4-0.3,0.7-0.6,1.1-1v-3.4c-1.4,0-2.6,0.1-3.6,0.3c-1,0.2-1.7,0.4-2.3,0.7c-0.6,0.3-1,0.6-1.2,1
				c-0.2,0.4-0.4,0.8-0.4,1.2c0,0.9,0.3,1.5,0.8,1.9C1364.2,77.7,1364.9,77.9,1365.7,77.9z"/>
			<path class="st1" d="M1387.4,51.3V81h-4.9V51.3H1387.4z"/>
			<path class="st1" d="M1400.9,54.5c0,0.4-0.1,0.8-0.3,1.2s-0.4,0.7-0.7,1c-0.3,0.3-0.6,0.5-1,0.7c-0.4,0.2-0.8,0.2-1.2,0.2
				c-0.4,0-0.8-0.1-1.2-0.2c-0.4-0.2-0.7-0.4-1-0.7c-0.3-0.3-0.5-0.6-0.7-1s-0.2-0.8-0.2-1.2c0-0.4,0.1-0.9,0.2-1.2s0.4-0.7,0.7-1
				c0.3-0.3,0.6-0.5,1-0.7c0.4-0.2,0.8-0.2,1.2-0.2c0.4,0,0.9,0.1,1.2,0.2c0.4,0.2,0.7,0.4,1,0.7c0.3,0.3,0.5,0.6,0.7,1
				S1400.9,54.1,1400.9,54.5z M1400.2,60.5V81h-4.9V60.5H1400.2z"/>
			<path class="st1" d="M1419.9,64.5c-0.1,0.2-0.3,0.4-0.4,0.4c-0.1,0.1-0.3,0.1-0.6,0.1c-0.2,0-0.5-0.1-0.8-0.2
				c-0.3-0.1-0.6-0.3-0.9-0.5c-0.4-0.2-0.8-0.3-1.2-0.5c-0.5-0.1-1-0.2-1.6-0.2c-1,0-1.7,0.2-2.3,0.6s-0.8,1-0.8,1.6
				c0,0.4,0.1,0.8,0.4,1.1c0.3,0.3,0.7,0.6,1.1,0.8s1,0.4,1.6,0.6c0.6,0.2,1.2,0.4,1.8,0.6c0.6,0.2,1.2,0.5,1.8,0.7s1.1,0.6,1.6,1
				s0.9,0.9,1.1,1.5s0.4,1.3,0.4,2.1c0,1-0.2,1.9-0.5,2.7c-0.4,0.8-0.9,1.6-1.6,2.2c-0.7,0.6-1.5,1.1-2.6,1.4
				c-1,0.3-2.2,0.5-3.5,0.5c-0.7,0-1.4-0.1-2.1-0.2c-0.7-0.1-1.3-0.3-1.9-0.5c-0.6-0.2-1.2-0.5-1.7-0.8c-0.5-0.3-1-0.6-1.4-1
				l1.1-1.9c0.1-0.2,0.3-0.4,0.5-0.5c0.2-0.1,0.5-0.2,0.8-0.2s0.6,0.1,0.9,0.3c0.3,0.2,0.6,0.4,1,0.6s0.8,0.4,1.3,0.6
				c0.5,0.2,1.1,0.3,1.9,0.3c0.6,0,1.1-0.1,1.5-0.2c0.4-0.1,0.8-0.3,1-0.6c0.3-0.2,0.5-0.5,0.6-0.8c0.1-0.3,0.2-0.6,0.2-0.9
				c0-0.5-0.1-0.9-0.4-1.2s-0.7-0.6-1.1-0.8c-0.5-0.2-1-0.4-1.6-0.6c-0.6-0.2-1.2-0.4-1.9-0.6c-0.6-0.2-1.3-0.5-1.9-0.8
				c-0.6-0.3-1.1-0.7-1.6-1.1c-0.5-0.4-0.9-1-1.1-1.6c-0.3-0.6-0.4-1.4-0.4-2.3c0-0.8,0.2-1.6,0.5-2.4c0.3-0.8,0.8-1.4,1.5-2
				c0.6-0.6,1.5-1,2.4-1.4c1-0.3,2.1-0.5,3.4-0.5c1.4,0,2.7,0.2,3.9,0.7s2.1,1.1,2.9,1.8L1419.9,64.5z"/>
			<path class="st1" d="M1435.9,60.2c1.5,0,2.9,0.2,4.2,0.7s2.3,1.2,3.2,2.1c0.9,0.9,1.6,2,2,3.3s0.7,2.8,0.7,4.4
				c0,1.6-0.2,3.1-0.7,4.4c-0.5,1.3-1.2,2.4-2,3.3c-0.9,0.9-1.9,1.6-3.2,2.1s-2.6,0.7-4.2,0.7s-2.9-0.2-4.2-0.7
				c-1.3-0.5-2.3-1.2-3.2-2.1c-0.9-0.9-1.6-2-2.1-3.3c-0.5-1.3-0.7-2.8-0.7-4.4c0-1.6,0.2-3.1,0.7-4.4c0.5-1.3,1.2-2.4,2.1-3.3
				c0.9-0.9,2-1.6,3.2-2.1C1433,60.4,1434.4,60.2,1435.9,60.2z M1435.9,77.5c1.7,0,3-0.6,3.8-1.7s1.2-2.8,1.2-5s-0.4-3.9-1.2-5.1
				s-2.1-1.7-3.8-1.7c-1.7,0-3,0.6-3.8,1.8c-0.8,1.2-1.2,2.8-1.2,5s0.4,3.9,1.2,5C1432.9,76.9,1434.2,77.5,1435.9,77.5z"/>
			<path class="st1" d="M1457.8,54.5c0,0.4-0.1,0.8-0.3,1.2s-0.4,0.7-0.7,1c-0.3,0.3-0.6,0.5-1,0.7c-0.4,0.2-0.8,0.2-1.2,0.2
				c-0.4,0-0.8-0.1-1.2-0.2c-0.4-0.2-0.7-0.4-1-0.7c-0.3-0.3-0.5-0.6-0.7-1s-0.2-0.8-0.2-1.2c0-0.4,0.1-0.9,0.2-1.2s0.4-0.7,0.7-1
				c0.3-0.3,0.6-0.5,1-0.7c0.4-0.2,0.8-0.2,1.2-0.2c0.4,0,0.9,0.1,1.2,0.2c0.4,0.2,0.7,0.4,1,0.7c0.3,0.3,0.5,0.6,0.7,1
				S1457.8,54.1,1457.8,54.5z M1457.1,60.5V81h-4.9V60.5H1457.1z"/>
		</g>
		<g class="st2">
			<path class="st1" d="M1266.9,99.3V129h-4.9V99.3H1266.9z"/>
			<path class="st1" d="M1280.4,102.5c0,0.4-0.1,0.8-0.3,1.2s-0.4,0.7-0.7,1c-0.3,0.3-0.6,0.5-1,0.7c-0.4,0.2-0.8,0.2-1.2,0.2
				c-0.4,0-0.8-0.1-1.2-0.2c-0.4-0.2-0.7-0.4-1-0.7c-0.3-0.3-0.5-0.6-0.7-1s-0.2-0.8-0.2-1.2c0-0.4,0.1-0.9,0.2-1.2s0.4-0.7,0.7-1
				c0.3-0.3,0.6-0.5,1-0.7c0.4-0.2,0.8-0.2,1.2-0.2c0.4,0,0.9,0.1,1.2,0.2c0.4,0.2,0.7,0.4,1,0.7c0.3,0.3,0.5,0.6,0.7,1
				S1280.4,102.1,1280.4,102.5z M1279.7,108.5V129h-4.9v-20.5H1279.7z"/>
			<path class="st1" d="M1293.2,102.5c0,0.4-0.1,0.8-0.3,1.2s-0.4,0.7-0.7,1c-0.3,0.3-0.6,0.5-1,0.7c-0.4,0.2-0.8,0.2-1.2,0.2
				c-0.4,0-0.8-0.1-1.2-0.2c-0.4-0.2-0.7-0.4-1-0.7c-0.3-0.3-0.5-0.6-0.7-1s-0.2-0.8-0.2-1.2c0-0.4,0.1-0.9,0.2-1.2s0.4-0.7,0.7-1
				c0.3-0.3,0.6-0.5,1-0.7c0.4-0.2,0.8-0.2,1.2-0.2c0.4,0,0.9,0.1,1.2,0.2c0.4,0.2,0.7,0.4,1,0.7c0.3,0.3,0.5,0.6,0.7,1
				S1293.2,102.1,1293.2,102.5z M1292.5,108.5V129h-4.9v-20.5H1292.5z"/>
			<path class="st1" d="M1305,99.3v17h0.9c0.3,0,0.6,0,0.8-0.1s0.4-0.3,0.6-0.5l5.1-6.3c0.2-0.3,0.5-0.5,0.7-0.6s0.6-0.2,1-0.2h4.5
				l-6.4,7.6c-0.2,0.3-0.5,0.5-0.7,0.8c-0.2,0.2-0.5,0.4-0.8,0.6c0.3,0.2,0.5,0.4,0.7,0.7c0.2,0.3,0.4,0.6,0.6,0.9l6.8,10h-4.5
				c-0.4,0-0.7-0.1-1-0.2c-0.3-0.1-0.5-0.4-0.7-0.7l-5.2-7.8c-0.2-0.3-0.4-0.5-0.6-0.6c-0.2-0.1-0.5-0.1-0.9-0.1h-1.1v9.4h-4.9V99.3
				H1305z"/>
			<path class="st1" d="M1331.3,108.2c1.3,0,2.5,0.2,3.6,0.6c1.1,0.4,2,1,2.8,1.8c0.8,0.8,1.4,1.8,1.8,2.9s0.7,2.5,0.7,3.9
				c0,0.4,0,0.7,0,0.9c0,0.2-0.1,0.4-0.2,0.6c-0.1,0.1-0.2,0.2-0.4,0.3c-0.1,0.1-0.3,0.1-0.6,0.1h-12.7c0.1,2.1,0.7,3.7,1.7,4.6
				c1,1,2.3,1.5,3.9,1.5c0.8,0,1.5-0.1,2.1-0.3s1.1-0.4,1.5-0.6c0.4-0.2,0.8-0.4,1.1-0.6s0.6-0.3,1-0.3c0.2,0,0.4,0,0.5,0.1
				c0.1,0.1,0.3,0.2,0.4,0.3l1.4,1.8c-0.5,0.6-1.2,1.2-1.8,1.6c-0.7,0.4-1.4,0.8-2.1,1c-0.7,0.3-1.5,0.4-2.3,0.5s-1.5,0.2-2.2,0.2
				c-1.4,0-2.8-0.2-4-0.7c-1.2-0.5-2.3-1.2-3.2-2.1c-0.9-0.9-1.6-2.1-2.1-3.4c-0.5-1.4-0.8-3-0.8-4.8c0-1.4,0.2-2.7,0.7-3.9
				c0.5-1.2,1.1-2.3,2-3.2c0.8-0.9,1.9-1.6,3.1-2.2C1328.4,108.4,1329.8,108.2,1331.3,108.2z M1331.4,111.7c-1.4,0-2.6,0.4-3.4,1.2
				s-1.3,2-1.6,3.5h9.3c0-0.6-0.1-1.2-0.3-1.8c-0.2-0.6-0.4-1.1-0.8-1.5s-0.8-0.8-1.4-1C1332.8,111.8,1332.2,111.7,1331.4,111.7z"/>
			<path class="st1" d="M1352.9,129.3c-1.8,0-3.1-0.5-4.1-1.5c-1-1-1.4-2.4-1.4-4.2v-11.5h-2.1c-0.3,0-0.5-0.1-0.7-0.3
				c-0.2-0.2-0.3-0.4-0.3-0.8v-2l3.3-0.5l1-5.6c0.1-0.3,0.2-0.5,0.4-0.6c0.2-0.1,0.4-0.2,0.7-0.2h2.6v6.5h5.4v3.5h-5.4v11.1
				c0,0.6,0.2,1.1,0.5,1.5c0.3,0.4,0.7,0.5,1.3,0.5c0.3,0,0.6,0,0.8-0.1c0.2-0.1,0.4-0.2,0.5-0.2c0.2-0.1,0.3-0.2,0.4-0.2
				c0.1-0.1,0.2-0.1,0.4-0.1c0.1,0,0.3,0,0.4,0.1c0.1,0.1,0.2,0.2,0.3,0.3l1.5,2.4c-0.7,0.6-1.5,1.1-2.5,1.4
				S1353.9,129.3,1352.9,129.3z"/>
			<path class="st1" d="M1372.4,108.2c1.5,0,2.9,0.2,4.2,0.7s2.3,1.2,3.2,2.1c0.9,0.9,1.6,2,2,3.3c0.5,1.3,0.7,2.8,0.7,4.4
				c0,1.6-0.2,3.1-0.7,4.4c-0.5,1.3-1.2,2.4-2,3.3c-0.9,0.9-1.9,1.6-3.2,2.1s-2.6,0.7-4.2,0.7s-2.9-0.2-4.2-0.7
				c-1.3-0.5-2.3-1.2-3.2-2.1c-0.9-0.9-1.6-2-2.1-3.3c-0.5-1.3-0.7-2.8-0.7-4.4c0-1.6,0.2-3.1,0.7-4.4c0.5-1.3,1.2-2.4,2.1-3.3
				c0.9-0.9,2-1.6,3.2-2.1C1369.5,108.4,1370.9,108.2,1372.4,108.2z M1372.4,125.5c1.7,0,3-0.6,3.8-1.7s1.2-2.8,1.2-5
				s-0.4-3.9-1.2-5.1s-2.1-1.7-3.8-1.7c-1.7,0-3,0.6-3.8,1.8c-0.8,1.2-1.2,2.8-1.2,5s0.4,3.9,1.2,5
				C1369.4,124.9,1370.7,125.5,1372.4,125.5z"/>
			<path class="st1" d="M1394.3,102.5c0,0.4-0.1,0.8-0.3,1.2s-0.4,0.7-0.7,1c-0.3,0.3-0.6,0.5-1,0.7c-0.4,0.2-0.8,0.2-1.2,0.2
				c-0.4,0-0.8-0.1-1.2-0.2c-0.4-0.2-0.7-0.4-1-0.7c-0.3-0.3-0.5-0.6-0.7-1s-0.2-0.8-0.2-1.2c0-0.4,0.1-0.9,0.2-1.2s0.4-0.7,0.7-1
				c0.3-0.3,0.6-0.5,1-0.7c0.4-0.2,0.8-0.2,1.2-0.2c0.4,0,0.9,0.1,1.2,0.2c0.4,0.2,0.7,0.4,1,0.7c0.3,0.3,0.5,0.6,0.7,1
				S1394.3,102.1,1394.3,102.5z M1393.6,108.5V129h-4.9v-20.5H1393.6z"/>
			<path class="st1" d="M1401.1,129v-20.5h3c0.6,0,1.1,0.3,1.3,0.9l0.3,1.5c0.4-0.4,0.7-0.8,1.1-1.1c0.4-0.3,0.8-0.6,1.3-0.9
				c0.4-0.2,0.9-0.4,1.4-0.6s1.1-0.2,1.7-0.2c1.3,0,2.4,0.3,3.2,1c0.8,0.7,1.5,1.6,1.9,2.8c0.3-0.7,0.7-1.3,1.2-1.8
				c0.5-0.5,1-0.9,1.6-1.2c0.6-0.3,1.2-0.5,1.8-0.7c0.6-0.1,1.3-0.2,1.9-0.2c1.1,0,2.1,0.2,3,0.5c0.9,0.3,1.6,0.9,2.2,1.5
				s1.1,1.5,1.4,2.4c0.3,1,0.5,2.1,0.5,3.3V129h-4.9v-13.1c0-1.3-0.3-2.3-0.9-2.9c-0.6-0.7-1.4-1-2.5-1c-0.5,0-1,0.1-1.4,0.3
				c-0.4,0.2-0.8,0.4-1.1,0.8c-0.3,0.3-0.6,0.7-0.8,1.2s-0.3,1.1-0.3,1.7V129h-5v-13.1c0-1.4-0.3-2.4-0.8-3
				c-0.6-0.6-1.4-0.9-2.5-0.9c-0.7,0-1.4,0.2-2,0.5s-1.2,0.8-1.7,1.5v15H1401.1z"/>
			<path class="st1" d="M1442.8,102.5c0,0.4-0.1,0.8-0.3,1.2s-0.4,0.7-0.7,1c-0.3,0.3-0.6,0.5-1,0.7c-0.4,0.2-0.8,0.2-1.2,0.2
				c-0.4,0-0.8-0.1-1.2-0.2c-0.4-0.2-0.7-0.4-1-0.7c-0.3-0.3-0.5-0.6-0.7-1s-0.2-0.8-0.2-1.2c0-0.4,0.1-0.9,0.2-1.2s0.4-0.7,0.7-1
				c0.3-0.3,0.6-0.5,1-0.7c0.4-0.2,0.8-0.2,1.2-0.2c0.4,0,0.9,0.1,1.2,0.2c0.4,0.2,0.7,0.4,1,0.7c0.3,0.3,0.5,0.6,0.7,1
				S1442.8,102.1,1442.8,102.5z M1442,108.5V129h-4.9v-20.5H1442z"/>
			<path class="st1" d="M1449.6,129v-20.5h3c0.6,0,1.1,0.3,1.3,0.9l0.3,1.6c0.4-0.4,0.9-0.8,1.3-1.2s0.9-0.6,1.5-0.9
				c0.5-0.3,1.1-0.4,1.7-0.6c0.6-0.1,1.2-0.2,1.9-0.2c1.1,0,2.1,0.2,3,0.6c0.9,0.4,1.6,0.9,2.2,1.6s1,1.5,1.3,2.5
				c0.3,1,0.5,2,0.5,3.1V129h-4.9v-13.1c0-1.3-0.3-2.2-0.9-2.9s-1.5-1-2.6-1c-0.9,0-1.7,0.2-2.4,0.6c-0.7,0.4-1.5,0.9-2.1,1.6V129
				H1449.6z"/>
			<path class="st1" d="M1481,129.3c-1.8,0-3.1-0.5-4.1-1.5c-1-1-1.4-2.4-1.4-4.2v-11.5h-2.1c-0.3,0-0.5-0.1-0.7-0.3
				c-0.2-0.2-0.3-0.4-0.3-0.8v-2l3.3-0.5l1-5.6c0.1-0.3,0.2-0.5,0.4-0.6c0.2-0.1,0.4-0.2,0.7-0.2h2.6v6.5h5.4v3.5h-5.4v11.1
				c0,0.6,0.2,1.1,0.5,1.5c0.3,0.4,0.7,0.5,1.3,0.5c0.3,0,0.6,0,0.8-0.1c0.2-0.1,0.4-0.2,0.5-0.2c0.2-0.1,0.3-0.2,0.4-0.2
				c0.1-0.1,0.2-0.1,0.4-0.1c0.1,0,0.3,0,0.4,0.1c0.1,0.1,0.2,0.2,0.3,0.3l1.5,2.4c-0.7,0.6-1.5,1.1-2.5,1.4S1482,129.3,1481,129.3z
				"/>
			<path class="st1" d="M1507.8,129h-2.2c-0.5,0-0.8-0.1-1.1-0.2s-0.5-0.4-0.6-0.8l-0.4-1.5c-0.5,0.5-1,0.9-1.5,1.2s-1,0.7-1.6,0.9
				c-0.5,0.2-1.1,0.4-1.7,0.5s-1.3,0.2-2,0.2c-0.9,0-1.7-0.1-2.4-0.4c-0.7-0.2-1.4-0.6-1.9-1.1c-0.5-0.5-0.9-1.1-1.2-1.7
				c-0.3-0.7-0.4-1.5-0.4-2.4c0-0.8,0.2-1.5,0.6-2.3c0.4-0.8,1.1-1.4,2-2c0.9-0.6,2.2-1.1,3.8-1.5s3.5-0.6,5.9-0.6v-1.2
				c0-1.4-0.3-2.4-0.9-3.1c-0.6-0.7-1.4-1-2.5-1c-0.8,0-1.5,0.1-2,0.3s-1,0.4-1.4,0.6s-0.8,0.4-1.1,0.6c-0.3,0.2-0.7,0.3-1.1,0.3
				c-0.3,0-0.6-0.1-0.9-0.3c-0.2-0.2-0.4-0.4-0.6-0.6l-0.9-1.6c2.4-2.2,5.2-3.2,8.5-3.2c1.2,0,2.3,0.2,3.2,0.6
				c0.9,0.4,1.7,0.9,2.4,1.6c0.7,0.7,1.1,1.5,1.5,2.5c0.3,1,0.5,2,0.5,3.2V129z M1498.2,125.9c0.5,0,1,0,1.4-0.1s0.8-0.2,1.2-0.4
				c0.4-0.2,0.7-0.4,1.1-0.7c0.4-0.3,0.7-0.6,1.1-1v-3.4c-1.4,0-2.6,0.1-3.6,0.3c-1,0.2-1.7,0.4-2.3,0.7c-0.6,0.3-1,0.6-1.2,1
				c-0.2,0.4-0.4,0.8-0.4,1.2c0,0.9,0.3,1.5,0.8,1.9C1496.7,125.7,1497.4,125.9,1498.2,125.9z"/>
			<path class="st1" d="M1526.8,112.5c-0.1,0.2-0.3,0.4-0.4,0.4c-0.1,0.1-0.3,0.1-0.6,0.1c-0.2,0-0.5-0.1-0.8-0.2
				c-0.3-0.1-0.6-0.3-0.9-0.5c-0.4-0.2-0.8-0.3-1.2-0.5c-0.5-0.1-1-0.2-1.6-0.2c-1,0-1.7,0.2-2.3,0.6s-0.8,1-0.8,1.6
				c0,0.4,0.1,0.8,0.4,1.1c0.3,0.3,0.7,0.6,1.1,0.8s1,0.4,1.6,0.6c0.6,0.2,1.2,0.4,1.8,0.6c0.6,0.2,1.2,0.5,1.8,0.7s1.1,0.6,1.6,1
				s0.9,0.9,1.1,1.5s0.4,1.3,0.4,2.1c0,1-0.2,1.9-0.5,2.7c-0.4,0.8-0.9,1.6-1.6,2.2c-0.7,0.6-1.5,1.1-2.6,1.4
				c-1,0.3-2.2,0.5-3.5,0.5c-0.7,0-1.4-0.1-2.1-0.2c-0.7-0.1-1.3-0.3-1.9-0.5c-0.6-0.2-1.2-0.5-1.7-0.8c-0.5-0.3-1-0.6-1.4-1
				l1.1-1.9c0.1-0.2,0.3-0.4,0.5-0.5c0.2-0.1,0.5-0.2,0.8-0.2s0.6,0.1,0.9,0.3c0.3,0.2,0.6,0.4,1,0.6s0.8,0.4,1.3,0.6
				c0.5,0.2,1.1,0.3,1.9,0.3c0.6,0,1.1-0.1,1.5-0.2c0.4-0.1,0.8-0.3,1-0.6c0.3-0.2,0.5-0.5,0.6-0.8c0.1-0.3,0.2-0.6,0.2-0.9
				c0-0.5-0.1-0.9-0.4-1.2s-0.7-0.6-1.1-0.8c-0.5-0.2-1-0.4-1.6-0.6c-0.6-0.2-1.2-0.4-1.9-0.6c-0.6-0.2-1.3-0.5-1.9-0.8
				c-0.6-0.3-1.1-0.7-1.6-1.1c-0.5-0.4-0.9-1-1.1-1.6c-0.3-0.6-0.4-1.4-0.4-2.3c0-0.8,0.2-1.6,0.5-2.4c0.3-0.8,0.8-1.4,1.5-2
				c0.6-0.6,1.5-1,2.4-1.4c1-0.3,2.1-0.5,3.4-0.5c1.4,0,2.7,0.2,3.9,0.7s2.1,1.1,2.9,1.8L1526.8,112.5z"/>
			<path class="st1" d="M1540.1,102.5c0,0.4-0.1,0.8-0.3,1.2s-0.4,0.7-0.7,1c-0.3,0.3-0.6,0.5-1,0.7c-0.4,0.2-0.8,0.2-1.2,0.2
				c-0.4,0-0.8-0.1-1.2-0.2c-0.4-0.2-0.7-0.4-1-0.7c-0.3-0.3-0.5-0.6-0.7-1s-0.2-0.8-0.2-1.2c0-0.4,0.1-0.9,0.2-1.2s0.4-0.7,0.7-1
				c0.3-0.3,0.6-0.5,1-0.7c0.4-0.2,0.8-0.2,1.2-0.2c0.4,0,0.9,0.1,1.2,0.2c0.4,0.2,0.7,0.4,1,0.7c0.3,0.3,0.5,0.6,0.7,1
				S1540.1,102.1,1540.1,102.5z M1539.3,108.5V129h-4.9v-20.5H1539.3z"/>
		</g>
		<g class="st2">
			<path class="st1" d="M1267.1,157.7c0,0.3-0.1,0.5-0.2,0.8c-0.1,0.2-0.3,0.5-0.4,0.6s-0.4,0.3-0.6,0.4c-0.2,0.1-0.5,0.2-0.8,0.2
				c-0.3,0-0.5-0.1-0.8-0.2c-0.2-0.1-0.5-0.3-0.6-0.4c-0.2-0.2-0.3-0.4-0.4-0.6c-0.1-0.2-0.2-0.5-0.2-0.8s0.1-0.5,0.2-0.8
				c0.1-0.3,0.3-0.5,0.4-0.7c0.2-0.2,0.4-0.3,0.6-0.4c0.2-0.1,0.5-0.2,0.8-0.2c0.3,0,0.5,0.1,0.8,0.2s0.5,0.3,0.6,0.4
				s0.3,0.4,0.4,0.7C1267.1,157.2,1267.1,157.4,1267.1,157.7z M1266.5,162.8V179h-2.8v-16.2H1266.5z"/>
			<path class="st1" d="M1279.7,179.3c-1.3,0-2.3-0.4-3-1.1c-0.7-0.7-1-1.7-1-3.1v-9.9h-2c-0.2,0-0.3,0-0.4-0.2s-0.2-0.3-0.2-0.5
				v-1.1l2.7-0.3l0.7-5c0-0.2,0.1-0.3,0.2-0.4c0.1-0.1,0.3-0.2,0.4-0.2h1.4v5.6h4.6v2.1h-4.6v9.7c0,0.7,0.2,1.2,0.5,1.5
				c0.3,0.3,0.8,0.5,1.3,0.5c0.3,0,0.6,0,0.8-0.1c0.2-0.1,0.4-0.2,0.6-0.3s0.3-0.2,0.4-0.3c0.1-0.1,0.2-0.1,0.3-0.1
				c0.1,0,0.3,0.1,0.4,0.3l0.8,1.4c-0.5,0.5-1.1,0.8-1.8,1.1C1281.2,179.1,1280.5,179.3,1279.7,179.3z"/>
			<path class="st1" d="M1287.9,162.8h2.2c0.2,0,0.4,0.1,0.6,0.2c0.1,0.1,0.3,0.3,0.3,0.4l3.1,10.4c0.1,0.4,0.2,0.8,0.2,1.1
				s0.1,0.7,0.2,1.1c0.1-0.4,0.2-0.7,0.3-1.1c0.1-0.4,0.2-0.7,0.3-1.1l3.4-10.5c0.1-0.2,0.1-0.3,0.3-0.4s0.3-0.2,0.5-0.2h1.2
				c0.2,0,0.4,0.1,0.5,0.2c0.1,0.1,0.2,0.2,0.3,0.4l3.3,10.5c0.1,0.4,0.2,0.7,0.3,1.1c0.1,0.4,0.2,0.7,0.3,1.1
				c0.1-0.4,0.1-0.7,0.2-1.1c0.1-0.4,0.2-0.7,0.3-1.1l3.2-10.4c0.1-0.2,0.2-0.3,0.3-0.4s0.3-0.2,0.5-0.2h2.1l-5.2,16.2h-2.3
				c-0.3,0-0.5-0.2-0.6-0.5l-3.6-11c-0.1-0.2-0.2-0.5-0.2-0.7c-0.1-0.2-0.1-0.5-0.2-0.7c-0.1,0.2-0.1,0.5-0.2,0.8
				c-0.1,0.3-0.1,0.5-0.2,0.8l-3.6,11c-0.1,0.4-0.3,0.5-0.7,0.5h-2.1L1287.9,162.8z"/>
			<path class="st1" d="M1321.7,157.7c0,0.3-0.1,0.5-0.2,0.8c-0.1,0.2-0.3,0.5-0.4,0.6s-0.4,0.3-0.6,0.4c-0.2,0.1-0.5,0.2-0.8,0.2
				c-0.3,0-0.5-0.1-0.8-0.2c-0.2-0.1-0.5-0.3-0.6-0.4c-0.2-0.2-0.3-0.4-0.4-0.6c-0.1-0.2-0.2-0.5-0.2-0.8s0.1-0.5,0.2-0.8
				c0.1-0.3,0.3-0.5,0.4-0.7c0.2-0.2,0.4-0.3,0.6-0.4c0.2-0.1,0.5-0.2,0.8-0.2c0.3,0,0.5,0.1,0.8,0.2s0.5,0.3,0.6,0.4
				s0.3,0.4,0.4,0.7C1321.6,157.2,1321.7,157.4,1321.7,157.7z M1321,162.8V179h-2.8v-16.2H1321z"/>
			<path class="st1" d="M1332.3,155.4v13.9h0.7c0.2,0,0.4,0,0.5-0.1s0.3-0.2,0.5-0.4l5.1-5.5c0.2-0.2,0.3-0.3,0.5-0.4
				s0.4-0.2,0.6-0.2h2.6l-6,6.4c-0.1,0.2-0.3,0.3-0.4,0.5c-0.1,0.1-0.3,0.3-0.5,0.4c0.2,0.1,0.4,0.3,0.5,0.4
				c0.2,0.2,0.3,0.4,0.4,0.6l6.3,8h-2.6c-0.2,0-0.4,0-0.6-0.1c-0.2-0.1-0.3-0.2-0.5-0.4l-5.3-6.6c-0.2-0.2-0.3-0.4-0.5-0.4
				s-0.4-0.1-0.7-0.1h-0.8v7.7h-2.9v-23.6H1332.3z"/>
			<path class="st1" d="M1353.2,157.7c0,0.3-0.1,0.5-0.2,0.8c-0.1,0.2-0.3,0.5-0.4,0.6s-0.4,0.3-0.6,0.4c-0.2,0.1-0.5,0.2-0.8,0.2
				c-0.3,0-0.5-0.1-0.8-0.2c-0.2-0.1-0.5-0.3-0.6-0.4c-0.2-0.2-0.3-0.4-0.4-0.6c-0.1-0.2-0.2-0.5-0.2-0.8s0.1-0.5,0.2-0.8
				c0.1-0.3,0.3-0.5,0.4-0.7c0.2-0.2,0.4-0.3,0.6-0.4c0.2-0.1,0.5-0.2,0.8-0.2c0.3,0,0.5,0.1,0.8,0.2s0.5,0.3,0.6,0.4
				s0.3,0.4,0.4,0.7C1353.2,157.2,1353.2,157.4,1353.2,157.7z M1352.6,162.8V179h-2.8v-16.2H1352.6z"/>
			<path class="st1" d="M1360,177.2c0-0.3,0.1-0.5,0.2-0.8c0.1-0.2,0.2-0.5,0.4-0.6c0.2-0.2,0.4-0.3,0.6-0.4
				c0.2-0.1,0.5-0.2,0.8-0.2c0.3,0,0.5,0.1,0.8,0.2c0.2,0.1,0.5,0.3,0.6,0.4c0.2,0.2,0.3,0.4,0.4,0.6c0.1,0.2,0.2,0.5,0.2,0.8
				c0,0.3-0.1,0.6-0.2,0.8c-0.1,0.2-0.2,0.5-0.4,0.6c-0.2,0.2-0.4,0.3-0.6,0.4c-0.2,0.1-0.5,0.2-0.8,0.2c-0.3,0-0.5-0.1-0.8-0.2
				c-0.2-0.1-0.5-0.2-0.6-0.4c-0.2-0.2-0.3-0.4-0.4-0.6C1360,177.8,1360,177.5,1360,177.2z"/>
			<path class="st1" d="M1371.6,179v-13.8l-1.8-0.2c-0.2-0.1-0.4-0.1-0.6-0.2c-0.1-0.1-0.2-0.3-0.2-0.5v-1.2h2.6v-1.6
				c0-0.9,0.1-1.8,0.4-2.5c0.3-0.7,0.6-1.3,1.1-1.8s1.1-0.9,1.8-1.1c0.7-0.3,1.5-0.4,2.3-0.4c0.7,0,1.4,0.1,2,0.3l-0.1,1.4
				c0,0.2-0.1,0.3-0.3,0.4c-0.2,0-0.4,0.1-0.7,0.1h-0.5c-0.5,0-0.9,0.1-1.3,0.2s-0.7,0.3-1,0.6s-0.5,0.7-0.7,1.1
				c-0.2,0.5-0.2,1.1-0.2,1.7v1.5h4.7v2.1h-4.6V179H1371.6z"/>
		</g>
		<text transform="matrix(1 0 0 1 1382.7579 179)" class="st1 st3 st4 st5"> </text>
		<text transform="matrix(1 0 0 1 1382.76 179)" class="st1 st3 st4 st5">i</text>
	</g>
</g>
</svg>
