<svg xmlns="http://www.w3.org/2000/svg" viewBox="0 0 37 30.07">
  <title>twitter</title>
  <path d="M32.64,4.75A7.62,7.62,0,0,0,36,.56,15.18,15.18,0,0,1,31.16,2.4,7.6,7.6,0,0,0,18.22,9.32,21.55,21.55,0,0,1,2.58,1.39,7.6,7.6,0,0,0,4.93,11.52a7.55,7.55,0,0,1-3.44-.95s0,0.06,0,.1a7.6,7.6,0,0,0,6.09,7.44,7.64,7.64,0,0,1-3.43.13,7.6,7.6,0,0,0,7.09,5.27,15.24,15.24,0,0,1-9.43,3.25A15.53,15.53,0,0,1,0,26.66a21.49,21.49,0,0,0,11.64,3.41c14,0,21.6-11.57,21.6-21.6q0-.49,0-1A15.46,15.46,0,0,0,37,3.56,15.16,15.16,0,0,1,32.64,4.75Z" transform="translate(0 0)" fill="#fff"/>
</svg>
